/* XPM */
static const char *cG5jbG9uZW5fZXZ0dWc__67a3e01393afe[] = {
/* columns rows colors chars-per-pixel */
"64 64 117 2 ",
"   c #0A0A14",
".  c #0F0C18",
"X  c #100C16",
"o  c #180F19",
"O  c #131617",
"+  c #1F1F1C",
"@  c #251527",
"#  c #281727",
"$  c #2E1824",
"%  c #2F1B29",
"&  c #341C27",
"*  c #361D28",
"=  c #391F29",
"-  c #1F2720",
";  c #3A2029",
":  c #353C27",
">  c #363C28",
",  c #343631",
"<  c #353832",
"1  c #3C3A31",
"2  c #47292F",
"3  c #45302E",
"4  c #472930",
"5  c #4D2B32",
"6  c #502D33",
"7  c #443C30",
"8  c #553134",
"9  c #593335",
"0  c #5D3C34",
"q  c #5F3938",
"w  c #643E3A",
"e  c #3A4135",
"r  c #434434",
"t  c #56453D",
"y  c #514939",
"u  c #5D4D3E",
"i  c #644137",
"p  c #64423B",
"a  c #6B443C",
"s  c #74443F",
"d  c #774640",
"f  c #784740",
"g  c #7A4841",
"h  c #615240",
"j  c #5D6252",
"k  c #5F7651",
"l  c #6E734C",
"z  c #727C4E",
"x  c #6A6D52",
"c  c #647353",
"v  c #6E7556",
"b  c #627A53",
"n  c #787550",
"m  c #757B50",
"M  c #7D7C54",
"N  c #855346",
"B  c #885647",
"V  c #8A5B49",
"C  c #8E684E",
"Z  c #9D6B50",
"A  c #817853",
"S  c #A26E52",
"D  c #A57154",
"F  c #AD7757",
"G  c #AE7958",
"H  c #74814E",
"J  c #678157",
"K  c #688157",
"L  c #688258",
"P  c #778452",
"I  c #7D8B54",
"U  c #718D5F",
"Y  c #818E57",
"T  c #86885A",
"R  c #8C8E59",
"E  c #86945A",
"W  c #88965C",
"Q  c #8D9C5F",
"!  c #AE825E",
"~  c #B0835D",
"^  c #AF976B",
"/  c #B89E69",
"(  c #82A16E",
")  c #96A565",
"_  c #9BA366",
"`  c #9CAC6A",
"'  c #86A772",
"]  c #8CAF77",
"[  c #93B67D",
"{  c #A7AA6B",
"}  c #BAA26B",
"|  c #A1B16D",
" . c #A9BB73",
".. c #B3C57A",
"X. c #8AB88C",
"o. c #89BD93",
"O. c #8BC185",
"+. c #8FC193",
"@. c #8FC79A",
"#. c #9EDC9E",
"$. c #ACD492",
"%. c #B2DC97",
"&. c #B3DD98",
"*. c #B5E09A",
"=. c #C1D483",
"-. c #C4D986",
";. c #C9DD8A",
":. c #D1DF8C",
">. c #CCE18B",
",. c #CDE18C",
"<. c #CFE48E",
"1. c #D2E08C",
"2. c #D0E58E",
"3. c #D5EA92",
"4. c #D8EE94",
"5. c #EDF19A",
"6. c #F0F49C",
/* pixels */
"4.4.4.4.4.4.4.4.4.*.*.#.#.6.6.4.4.4.4.4.4.4.4.4.4.4.4.4.4.4.4.4.4.4.4.4.4.4.4.4.4.4.4.4.4.4.4.4.4.4.4.4.4.4.4.4.4.4.4.4.4.4.4.4.",
"4.4.4.4.4.4.4.4.4.4.*.#.#.6.4.4.4.4.4.4.4.4.4.4.4.4.4.4.4.4.4.4.4.4.4.4.4.4.4.4.4.4.4.4.4.4.4.4.4.4.4.4.4.4.4.4.4.4.4.4.4.4.4.4.",
"4.4.4.4.4.4.4.4.4.4.*.#.#.#.4.4.4.4.4.4.4.4.4.4.4.4.*.*.*.*.*.*.*.*.4.4.4.4.6.4.4.4.4.4.4.4.4.4.4.4.4.4.4.4.4.4.4.*.4.4.4.4.#.#.",
"*.*.4.4.4.4.4.4.4.*.*.4.#.#.4.+.4.4.4.4.4.4.4.4.4.*.*.*.*.*.*.4.4.4.4.4.4.4.4.4.4.4.4.4.4.#.4.4.4.4.4.4.4.4.+.*.4.4.4.4.4.*.*.*.",
"*.*.*.*.*.4.4.4.4.4.4.4.4.+.#.#.*.#.4.4.4.*.*.*.*.*.*.*.*.*.4.4.4.4.4.4.4.4.4.4.4.4.4.4.4.4.4.4.4.#.#.+.4.+.+.4.4.4.4.4.*.*.*.*.",
"*.*.*.*.*.4.4.4.4.4.4.4.4.4.*.*.*.*.*.*.*.*.*.*.*.*.*.4.*.*.*.*.*.4.4.4.4.4.4.4.4.4.4.4.4.4.4.4.4.4.#.#.+.+.4.4.4.4.4.4.*.4.4.*.",
"4.*.*.*.*.4.4.4.4.@.4.4.4.4.*.*.*.*.*.*.*.*.*.4.#.#.4.4.4.4.4.4.4.4.4.4.4.4.4.4.4.4.4.4.4.4.4.4.4.4.4.#.#.#.+.4.4.4.@.4.4.4.4.4.",
"4.4.*.*.*.*.4.4.4.4.*.4.4.4.4.*.*.*.*.#.4.6.6.4.4.4.4.4.4.4.4.4.4.4.4.4.4.4.4.4.4.4.4.4.4.4.4.4.4.#.#.#.#.#.#.+.4.4.4.4.4.4.4.4.",
"4.4.*.*.*.*.4.4.4.4.@.4.4.4.4.*.*.*.*.#.4.4.4.4.4.4.4.4.4.4.4.4.4.4.4.#.4.4.4.4.4.4.4.4.*.4.4.4.4.#.#.#.#.#.#.+.4.4.4.4.4.4.4.4.",
"4.4.4.4.4.4.4.4.4.4.4.4.4.4.4.4.*.*.#.4.4.4.4.4.4.4.4.4.4.4.#.4.4.4.4.#.#.4.#.4.4.4.4.4.*.4.+.+.+.*.*.*.#.#.*.4.4.4.4.4.4.4.4.4.",
"*.*.4.4.4.4.4.4.4.4.4.4.4.4.4.4.*.#.#.4.4.4.4.4.4.4.4.*.4.4.4.4.4.4.#.*.#.4.4.4.4.4.4.*.+.4.4.#.#.6.*.*.*.#.4.4.4.4.4.4.4.4.4.4.",
"#.#.4.4.4.4.4.4.4.4.4.4.4.4.4.*.4.4.4.4.4.4.4.4.4.4.4.*.4.4.4.#.*.#.*.4.4.4.4.#.#.4.4.+.*.4.4.#.#.*.*.*.*.*.#.#.4.4.4.4.6.4.4.4.",
"4.4.4.4.4.4.4.4.4.4.4.4.4.4.4.4.4.4.4.4.4.4.4.4.4.4.4.4.4.4.4.4.*.*.4.4.4.4.4.4.#.4.#.#.4.4.+.#.*.*.6.6.*.*.#.*.#.4.4.6.6.4.4.4.",
"6.4.4.4.4.4.4.4.4.4.4.4.4.4.4.4.4.4.4.4.4.4.4.4.4.4.4.4.4.4.4.4.*.4.4.4.4.4.4.4.*.#.4.4.+.#.#.#.*.*.*.*.*.*.*.#.#.6.6.4.*.+.*.4.",
"6.4.4.4.4.4.4.4.4.4.4.4.4.4.4.4.4.4.4.4.4.4.4.4.4.4.4.4.4.4.4.4.4.4.4.4.4.4.4.4.*.*.*.*.*.*.*.*.*.*.*.*.*.*.*.*.#.+.#.+.+.*.4.4.",
"4.4.4.4.4.4.4.4.4.4.4.4.4.,.h h h h h h h M 4.4.4.*.4.4.4.4.4.4.4.4.4.4.4.4.4.*.*.*.*.*.*.*.*.*.*.*.*.*.*.*.*.*.*.#.#.#.4.4.4.4.",
"4.6.4.6.4.4.4.4.4.4.4.,.h u 5 5 5 5 5 5 5 8 h h v *.4.4.4.4.4.*.*.*.4.4.4.4.4.6.4.*.*.*.*.4.4.*.*.*.*.*.4.4.4.4.4.#.#.#.4.4.6.6.",
"4.6.4.6.6.4.4.4.4.4.,.u 5 5 5 5 5 5 5 5 5 5 5 5 p ! ! ! ^ *.*.*.*.4.4.4.6.4.4.4.*.*.*.4.:.~ ~ ~ ~ ~ ! ! ~ ~ } 4.4.4.4.#.#.6.6.4.",
"4.+.+.+.+.4.4.4.,.h u 5 5 5 8 f f s 5 5 5 5 5 5 5 a F F G ! ! ! ! ^ 4.4.4.4.4.4.*.4.:.~ ~ D g B F D g g B F G } 4.4.4.4.4.4.#.#.",
"+.+.*.+.4.4.4.,.u 5 5 5 5 5 5 9 g g s 5 5 5 5 5 5 w D a F D B F F G ! ~ ~ / 4.4.1.~ ~ F F F F Z 8 i S N S g B D C } 4.4.4.4.#.+.",
"*.*.*.6.4.4.,.u 5 5 5 8 f f f s 6 9 g f s 5 5 5 5 5 8 5 q g N D g g B F F G ~ ~ ~ F F F F F F S 5 0 D g g g g B F G } 4.4.4.4.#.",
"*.*.*.4.+.X.u 5 5 5 5 5 6 9 g g f f g g g f s 5 5 5 5 5 8 g g g N F F F F F F F F F F F F F F F Z 5 8 g g g g g g g V ~ } 4.4.4.",
"*.*.*.*.*.$.5 5 5 5 5 5 5 8 g g g s 6 9 g g s 5 5 5 5 5 5 6 9 N F D g g g B F F F F F F F D B F F Z 8 g s % % 2 g s 6 8 3 y T 4.",
"4.*.*.*.$.t 5 5 5 6 s 5 5 5 9 g s 6 8 f g s 6 5 5 5 5 5 5 5 5 9 g g g g N F D g B F F F D B F D g g f g g d d f s 6 5 5 $ X + P ",
"4.4.4.4.$.5 5 5 5 5 8 f f f f g g f f g g g f f f s 5 5 8 f s 8 g g g g N D g N F D g g g N F D g g g g g s 6 9 s 5 5 * & $ o m ",
"4.4.4.,.t 5 5 5 5 8 f g g g g g g g g g g g g g g s 5 5 5 9 g f g g g g g g g N F F S g g g B F S g g g g g s 5 6 5 * & & & # m ",
"4.4.4.O.5 5 5 5 6 f g g s 6 6 8 g g s 6 9 g g s 6 6 5 5 5 8 g g g g g g g g g g B D g g g g g g g g g g g g s 5 5 5 & & & & # c ",
"*.4.O.t 5 5 5 5 5 6 6 6 6 8 f f g s 6 8 f g g s 8 s 5 5 8 f g g g g g g g g g g N D g g g g g g g g g g s 9 g s 5 5 & & & & # c ",
"*.*.o.5 5 5 5 5 5 5 5 5 8 f g g g g f f g g g g f s 5 8 f s 9 g g g g g g g g g g g g g g g g g g g g g s 5 6 5 5 * & & # # # m ",
"*.$.t 5 5 * = 5 5 5 5 8 f g g g g g g g g g g g s 6 5 5 6 6 8 g g g g g g g g g g g g g g g g g s 6 9 s 5 5 5 * & & & & & & z %.",
"4.,.= 5 * * 5 5 5 5 8 f g s 8 g g g s 8 g g g g g f s 5 8 f f g g g g g g g g g g g g g g g g g g s 5 5 * * & & & & & & & z 3.4.",
"4.,.& * * 5 5 5 5 5 8 g s 8 f g g s 5 8 g g s 6 9 s 5 5 5 6 9 g g g g g g g g g g g g g g s 9 s 6 5 * & & l 3.3.3.3.3.3.3.3.4.4.",
"4.,.& & = 5 * = 5 5 5 6 5 8 g g s 5 8 f g g g s 5 5 5 5 5 8 f g g g g g g g g g g g g g g s 5 5 5 & l 3.3.3.4.4.4.4.4.4.4.4.4.4.",
"4.4.;.& & & & = 5 5 5 5 5 8 g g g f f g g g g g f s 5 5 5 5 9 g g g g g g g g g g g g s 9 g s 5 5 l 3.4.4.4.4.4.4.4.4.4.4.4.4.4.",
"4.4.4.;.& & & = 5 * = 5 8 f g g g g g g g g g g s 5 5 5 8 f f s 9 g g g g g g g g s 9 g s 5 5 5 n 3.4.4.4.4.4.4.4.4.4.4.4.4.4.4.",
"#.4.4.4.$.& = 5 & = 5 8 f g s 8 s 5 8 s 5 8 g s 5 5 = 5 8 s 5 5 8 g g g g g s 9 g s 5 9 s 5 5 n 3.4.4.4.4.4.4.4.4.4.4.4.4.4.4.#.",
"#.#.4.4.4.;.& & & = 8 f g s 5 5 5 8 f s 5 8 s 5 5 & & = 5 5 5 8 f g s 9 g g s 5 9 g s 5 5 5 A 3.4.4.4.4.4.+.*.*.4.4.4.4.#.4.#.#.",
"#.#.4.4.4.,.& & & = 5 5 5 5 5 5 5 8 g s 5 5 5 5 5 & & & & = 5 8 s 5 5 8 g g g s 8 g s 5 j 3.5.6.4.4.4.6.4.4.+.+.+.+.#.4.#.#.#.#.",
"4.4.4.4.4.4.;.& & = 5 5 5 5 5 5 5 8 s 5 5 = 5 5 & & & & & & & ; 5 5 8 f s 9 s 5 5 5 5 x #.#.4.4.@.4.6.6.+.+.#.#.+.*.#.4.4.#.#.#.",
"4.4.4.4.4.4.,.& & & = 5 5 = 5 5 = 5 5 5 & & & & & & 7 I I Y I & & & ; 5 5 8 s 5 5 5 x &.*.*.*.#.#.@.4.6.+.#.#.#.+.4.4.4.4.4.4.4.",
"4.4.4.4.4.4.*.$.# & = 5 & = 5 5 & & & & & & & 1 I I J I I I I z . o & ; 5 5 5 5 5 5 x *.*.*.*.*.*.#.@.#.#.#.+.+.4.6.4.4.4.4.4.4.",
"4.4.4.4.4.*.*.$.X # & & = 5 5 1 J J J J J J J I I I L I I I I H     o & & & & & ; 5 u  .-.4.4.*.*.*.#.#.#.#.#.4.4.4.4.4.4.4.4.4.",
"4.4.4.4.4.*.,.- . # & & & & 7 I L L L L L L L L I I I I I I I H       . . o & & & ; 5 r L ( =.4.4.*.*.*.#.+.4.4.4.+.4.4.4.4.4.4.",
"4.4.4.4.4.4.-.  . # & & 7 I I L L L I L L L I L I I I I I I H O           X # # & = 5 4 r L L ] <.*.*.*.#.4.4.4.+.*.4.6.4.4.4.4.",
"+.*.*.*.*.2.)   . # & & 1 I I I I I I I I L I I I I I I I I H           > I k # @ # & & # e L I | 2.*.*.#.4.4.+.+.*.4.4.6.4.4.6.",
"*.*.*.4.4. .H   . # # & 1 I I I I I I I I I I I I I I I I H O         > I L I I z @ # # & 1 L L L  .*.*.*.#.+.#.#.4.4.#.4.4.4.+.",
"*.*.*.4.4.W I H   . # # 1 I I I I L L I I I I I I I I I I H         : I I I I I I z # # # # e I I U *.*.*.*.*.#.#.#.#.4.4.4.+.+.",
"*.*.4.4.4.W I H   . # # # 1 I I I I L L I I I I I I I I I H         > R I L I L L I k @ # # r I L U *.4.4.*.4.*.*.*.*.4.4.+.#.#.",
"*.4.4.4.4. .I L b   . # # # < I I I I L L I I I I I I I I H     : I I R L L L L I I L k # # # r I  .4.4.*.4.4.*.*.*.4.4.*.*.*.#.",
"*.4.4.*.*.$.' L L J b # # # , L L L L L L I I I I I I I I H     : I I L L L I I I I I I z # # r | $.4.4.4.*.4.*.*.4.4.4.*.*.*.*.",
"4.4.4.*.4.4.<. .I L L K K K I L L L L L L L I I I I I I I I I I I I L L L L I I I I I I I I I ] $.*.*.4.*.*.4.*.4.4.4.4.4.4.4.4.",
"4.4.*.*.4.4.4.4.=.` I L L L I I I L L L L I I I I I I I I I I I I L L L I I I I I I I I I ` =.4.*.*.*.*.*.*.4.4.4.4.4.4.4.4.4.4.",
"4.4.*.4.4.4.4.4.4.4.-. .U L I I I I I L I I I I I I I I I I I I I I I I I I I I I I W  .-.*.*.4.4.*.*.*.*.4.4.4.4.4.4.4.4.4.4.4.",
"4.4.4.4.4.4.4.4.4.4.4.4.4.-.[ ` E I I I I I I I I I I I I I I R I I I I I I E ` ..-.4.*.*.4.4.*.*.*.*.*.*.*.4.4.4.4.4.4.4.4.4.4.",
"4.4.4.4.4.4.4.4.4.4.4.4.4.4.6.4.4.>.=... .` ) Q W Y I I I Y W _ { `  ...=.>.6.4.4.4.4.4.*.*.*.*.*.*.*.*.*.*.4.4.4.4.4.4.4.4.4.4.",
"4.4.4.4.4.4.4.4.4.4.4.4.4.*.6.4.6.4.4.4.4.4.4.4.4.4.4.4.*.4.*.6.4.4.4.6.6.4.4.4.4.4.4.4.4.4.4.4.*.*.4.4.*.4.4.4.4.4.4.4.@.@.4.4.",
"4.4.4.4.4.4.4.4.4.4.4.4.4.*.*.*.6.4.4.6.4.4.4.4.4.4.4.4.*.*.*.*.4.*.*.6.4.4.6.6.*.*.*.*.4.*.*.*.*.*.4.4.4.4.4.4.4.4.4.4.4.@.@.4.",
"4.4.4.4.4.4.4.4.4.4.4.4.4.4.4.*.6.6.*.6.4.4.4.4.4.4.4.4.*.*.*.*.*.4.4.*.*.*.4.*.4.4.*.*.4.4.4.*.*.*.*.4.4.4.4.4.4.4.4.4.4.4.*.@.",
"4.4.4.4.4.4.4.4.4.4.4.4.4.*.*.*.4.*.*.*.*.4.4.4.4.4.4.4.*.*.*.*.4.4.4.4.*.*.*.4.4.4.4.4.4.4.4.*.4.4.*.4.4.4.4.4.4.4.4.4.4.4.*.*.",
"4.4.4.4.4.4.4.4.4.4.4.4.*.*.*.*.*.4.4.*.*.*.4.4.4.4.4.*.*.*.*.*.4.4.4.4.4.4.4.4.4.4.4.4.4.4.*.4.4.4.4.*.4.4.4.4.*.4.4.4.4.4.4.*.",
"4.4.4.4.4.4.4.4.4.*.*.*.*.4.4.*.*.4.4.4.4.4.4.4.4.4.4.4.4.4.*.*.4.4.4.4.4.4.4.*.*.4.*.*.4.4.4.4.4.4.4.4.4.4.4.4.4.4.4.4.4.4.4.4.",
"4.4.4.4.4.4.4.4.4.4.4.*.*.4.*.*.4.4.4.4.4.4.4.4.4.4.4.4.4.*.*.4.4.4.4.4.4.4.4.4.*.*.*.4.4.4.4.4.4.4.4.*.4.4.4.4.4.4.4.4.4.4.4.4.",
"4.4.4.4.4.4.4.4.4.4.*.*.4.4.*.4.4.4.4.4.4.4.4.4.4.4.4.4.4.*.4.4.4.4.4.4.*.4.4.4.4.4.4.4.4.4.4.4.4.4.4.4.4.4.4.4.4.4.4.4.4.4.4.4.",
"4.4.4.4.4.4.4.+.4.4.*.*.#.4.4.4.4.4.4.4.4.4.4.4.4.4.4.4.4.4.4.4.4.4.4.4.4.4.4.4.4.4.4.4.4.4.4.4.*.4.4.4.4.*.4.4.4.4.*.4.6.4.4.4."
};
