/* XPM */
static char *_51859b96e32478bff7cb98892eb8a35yhLgz490pS3Uepza[] = {
/* columns rows colors chars-per-pixel */
"64 64 48 1 ",
"  c #090A14",
". c #241527",
"X c #341C27",
"o c #4D2B32",
"O c #7A4841",
"+ c #AD7757",
"@ c #6F8760",
"# c #708961",
"$ c #769065",
"% c #7F9C6D",
"& c #838F5C",
"* c #85925E",
"= c #87945F",
"- c #8B9962",
"; c #819E6F",
": c #919361",
"> c #909F65",
", c #96A569",
"< c #99A86B",
"1 c #9EAD6E",
"2 c #85A372",
"3 c #8BAB77",
"4 c #8EAF79",
"5 c #91B37C",
"6 c #92B47D",
"7 c #A9BA75",
"8 c #ADBE78",
"9 c #B4C67C",
"0 c #B7C97E",
"q c #97BB81",
"w c #99BC82",
"e c #9DC286",
"r c #8FC193",
"t c #8FC79A",
"y c #9EDC9E",
"u c #A2C88A",
"i c #BBCE81",
"p c #AAD291",
"a c #ACD593",
"s c #AED894",
"d c #B5E09A",
"f c #C1D485",
"g c #CBDF8B",
"h c #CDE28D",
"j c #D0E58F",
"k c #D5EB92",
"l c #D8EE94",
"z c #F0F49C",
/* pixels */
"lllllllllddyyzzlllllllllllllllllllllllllllllllllllllllllllllllll",
"lllllllllldyyzllllllllllllllllllllllllllllllllllllllllllllllllll",
"lllllllllldyyyllllllllllllddddddddllllzlllllllllllllllllldllllyy",
"ddlllllllddlyylrlllllllllddddddllllllllllllllyllllllllrdlllllddd",
"dddddllllllllryydyllldddddddddlllllllllllllllllllyyrlrrllllldddd",
"dddddllllllllldddddddddddddldddddlllllllllllllllllyyrrlllllldlld",
"lddddlllltlllldddddddddlyylllllllllllllllllllllllllyyyrllltlllll",
"llddddlllldllllddddylzzllllllllllllllllllllllllllyyyyyyrllllllll",
"llddddlllltllllddddylllllllllllllllylllllllldllllyyyyyyrllllllll",
"llllllllllllllllddylllllllllllyllllyylyllllldlrrrdddyydlllllllll",
"ddlllllllllllllldyylllllllldllllllydylllllldrllyyzdddyllllllllll",
"yyllllllllllllldllllllllllldlllydydllllyyllrdllyydddddyyllllzlll",
"llllllllllllllllllllllllllllllllddllllllylyyllryddzzddydyllzzlll",
"zllllllllllllloooooooolllllllllldllllllldyllryyydddddddyyzzldrdl",
"zlllllllllllooooooooooooo+llllllllllllllddddddddddddddddyryrrdll",
"llllllllllloooooooooooooo++++llllllllllddddddddddddddddddyyyllll",
"lzlzlllllooooooOOOoooooooo++++++++lllllzlddddlldddddlllllyyyllzz",
"lzlzzlllooooooooOOOooooooo+o++O++++++llldddlllllllddlllllllyyzzl",
"lrrrrlloooooOOOOooOOOooooooooOO+OOO++++ldlllllllllddllllllllllyy",
"rrdrllooooooooOOOOOOOOOooooooOOOO++++++++lllllllllldllllllllllyr",
"dddzllooooooooOOOOooOOOooooooooO++OO++++++llllllllllllllllllllly",
"dddlroooooOooooOOooOOOooooooooooOOOOOO++++++llllllllllllllllllll",
"dddddooooooOOOOOOOOOOOOOOOoooOOoOOOOO+++++++llllllllllllllllllll",
"ldddooooooOOOOOOOOOOOOOOOOooooOOOOOOO++O+++++++++lllllllllllllll",
"lllloooooOOOOoooOOOooOOOooooooOOOOOOO+OO++++++++++++llllllllldll",
"llloooooooooooOOOOooOOOOoOoooOOOOOOOOOOO+++OO+++++O+++lllllldddl",
"lllooooooooooOOOOOOOOOOOOOooOOoOOOOOOOOOO+OOO++++XOO+++llllddddd",
"dloooXXoooooOOOOOOOOOOOOOooooooOOOOOOOOOOOOO++++oX+OOO++lldlllld",
"ddXoXXoooooOOOoOOOOoOOOOOOOooOOOOOOOOOOOOOO+++++oXXOOOO++lllllll",
"ddXXXooooooOOoOOOOooOOOooOoooooOOOOOOOOOOOOOOO+++oOOOOO+++dlddld",
"llXXXoXXooooooOOOooOOOOOooooooOOOOOOOOOOOOOOO++OOOO...OO+++lllll",
"lllXXXXXooooooOOOOOOOOOOOOooooOOOOOOOOOOOOOOOO+OOOOOOOOOO++lllll",
"llllXXXXoXXooOOOOOOOOOOOOoooOOOOOOOOOOOOOOOOOOOOOOOOOOOoooXXllll",
"lllllXXoXXooOOOoOooOooOOooXoOoooOOOOOOOOOOOOOOOOOOOOOooooX  llll",
"llllddXXXXoOOOooooOOooOooXXoooooOOOOOOOOOOoOOOOOOOooOoooXXX  lll",
"yllldlXXXXooooooooOOoooooXXoXooOOOoOOOOoOOooOOooOOooOooXXXX.Xlly",
"yylllllXXXooooooooOooXooXXXXXooOoooOOOOooOOoOOOoOoooOooXXXX.Xlyy",
"yylllllXXXXooXooXoooXXXXXXXXXXooooOOOOOOoOOoooooooXXXXXXX..Xyyyy",
"llllllllXXXoXXooXXXXXXXXlllXXXXXoooOooOoooooXXXXXXXXXXXXX.XXlyyy",
"llllllll..XXXooXXXddddllllllllXXXoooooOooooXXddyytlzryXXXXllllll",
"llllllddy.XXXoXXXdddddddlldlllllXXXooooooodddddddytyyyrrlzllllll",
"llllldddd.XXXXXXpuw632%>-=#&&*=->XXXooo..lllllldddyyyyylllllllll",
"llllldldd..XX..&@@@@@@@@&&&&&&&&&X.XXoo.@,7iadllldddyrlllrllllll",
"llllllldj...X.&@@@&@@@&@&&&&&&&&&&..XX..@@&&&;wsldddylllrdlzllll",
"rddddlk9-...X.&&&&&&&@&&&&&&&&&&&&..XX.@@@@&@@@-9kddyllrrdllzllz",
"dddlll8&&&....&&&&&&&&&&&&&&&&&&&&&....&&&@@@@@@@8dddyryyllylllr",
"dddlll*&&&.....&&@@&&&&&&&&&&&&&&&&&....&&&@@@@&&#dddddyyyylllrr",
"ddllll8&&&@.....&&@@&&&&&&&&&&&&&&&:&....&@@@&&&@5dlldlddddllryy",
"dlllllkq$@@@....&&&@@&&&&&&&&&&&&&&:@@...&@@@&&-9klldlldddlldddy",
"dlldddddsw;@@@@@@@@@@&&&&&&&&&&&&&&@@@&&&&&&&<0jldllldlddllldddd",
"llldlllllddae4,@@@@@@@&&&&&&&&&&&&@@@@&&&,7ihllddddlddldllllllll",
"llddllllllldddlkguw631,>-=*&&*=->%2380fgklllllllddddddllllllllll",
"lldlllllllllddllllldlllllllllllllllllllllllllddllddddlllllllllll",
"lllllllllllllldllllllllllllllllzlllllllllllddlldddddddllllllllll",
"llllllllllllllzllllllllllllllllzzlllllzlllllddddddddddllllllllll",
"llllllllllllldzlzllllllllllldldzlllzzlllllllllllddlldlllllllttll",
"llllllllllllldddzllzllllllllddddlddzllzzddddldddddlllllllllllttl",
"llllllllllllllldzzdzlllllllldddddlldddldllddlllddddllllllllllldt",
"llllllllllllldddlddddlllllllddddlllldddlllllllldlldllllllllllldd",
"lllllllllllldddddlldddllllldddddlllllllllllllldlllldlllldlllllld",
"lllllllllddddllddlllllllllllllddlllllllddlddllllllllllllllllllll",
"lllllllllllddlddlllllllllllllddllllllllldddlllllllldllllllllllll",
"llllllllllddlldlllllllllllllldlllllldlllllllllllllllllllllllllll",
"lllllllrllddyllllllllllllllllllllllllllllllllllldlllldlllldlzlll"
};
