/* XPM */
static char *f0ccbfd3c64740b1e205f750e530d299ZpjkmUuOGteWduSW[] = {
/* columns rows colors chars-per-pixel */
"64 64 44 1 ",
"  c #090A14",
". c #241527",
"X c #341C27",
"o c #4D2B32",
"O c #7A4841",
"+ c #AD7757",
"@ c #6F8760",
"# c #708961",
"$ c #758F64",
"% c #799468",
"& c #7E9B6C",
"* c #838F5C",
"= c #84915D",
"- c #8A9761",
"; c #8F9E64",
": c #919361",
"> c #96A568",
", c #9FAF6E",
"< c #84A371",
"1 c #8BAC77",
"2 c #90B17B",
"3 c #93B57D",
"4 c #94B77E",
"5 c #A6B673",
"6 c #ABBC76",
"7 c #AFC079",
"8 c #B0C27A",
"9 c #B3C57B",
"0 c #B9CB7F",
"q c #8FC193",
"w c #8FC79A",
"e c #9EDC9E",
"r c #A4CA8B",
"t c #AAD291",
"y c #ADD693",
"u c #B1DA96",
"i c #B5E09A",
"p c #C3D786",
"a c #C6DA88",
"s c #CBDF8B",
"d c #CEE38D",
"f c #D3E890",
"g c #D8EE94",
"h c #F0F49C",
/* pixels */
"gggggggggiieehhggggggggggggggggggggggggggggggggggggggggggggggggg",
"ggggggggggieehgggggggggggggggggggggggggggggggggggggggggggggggggg",
"ggggggggggieeeggggggggggggiiiiiiiigggghggggggggggggggggggiggggee",
"iigggggggiigeegqgggggggggiiiiiiggggggggggggggeggggggggqigggggiii",
"iiiiiggggggggqeeiegggiiiiiiiiigggggggggggggggggggeeqgqqgggggiiii",
"iiiiigggggggggiiiiiiiiiiiiigiiiiigggggggggggggggggeeqqggggggiggi",
"giiiiggggwggggiiiiiiiiigeegggggggggggggggggggggggggeeeqgggwggggg",
"ggiiiiggggiggggiiiieghhggggggggggggggggggggggggggeeeeeeqgggggggg",
"ggiiiiggggwggggiiiiegggggggggggggggeggggggggiggggeeeeeeqgggggggg",
"ggggggggggggggggiiegggggggggggeggggeegegggggigqqqiiieeiggggggggg",
"iiggggggggggggggieeggggggggiggggggeieggggggiqggeehiiiegggggggggg",
"eegggggggggggggigggggggggggigggeieiggggeeggqiggeeiiiiieegggghggg",
"ggggggggggggggggggggggggggggggggiiggggggegeeggqeiihhiieiegghhggg",
"hgggggggggggggggggggggggggggggggigggggggieggqeeeiiiiiiieehhgiqig",
"hggggggggggggoooooooogggggggggggggggggggiiiiiiiiiiiiiiiieqeqqigg",
"gggggggggggooooooooooooo+igggggggggggggiiiiiiiiiiiiiiiiiieeegggg",
"ghghggggggoooooooooooooo++++gggiiiggggghgiiiiggiiiiigggggeeegghh",
"ghghhgggooooooOOOoooooooo++++++++ggghgggiiigggggggiigggggggeehhg",
"gqqqqggooooooooOOOooooooo+o++O++++++ggggigggggggggiiggggggggggee",
"qqiqggoooooOOOOooOOOooooooooOO+OOO++++gggggggggggggiggggggggggeq",
"iiihgooooooooOOOOOOOOOooooooOOOO++++++++ggggggggggggggggggggggge",
"iiigqooooooooOOOOooOOOooooooooO++OO++++++gggg+++gggggggggggggggg",
"iiiioooooOooooOOooOOOooooooooooOOOOOO+++++g+++O++O++++gggggggggg",
"giiiooooooOOOOOOOOOOOOOOOoooOOoOOOOO++++++++++++XOOOO++ggggggggg",
"gggooooooOOOOOOOOOOOOOOOOooooOOOOOOO++O++++++++oX+OOOO+++ggggigg",
"gggoooooOOOOoooOOOooOOOooooooOOOOOOO+OO++++++++oXXOOOOO+++ggiiig",
"ggoooooooooooOOOOooOOOOoOoooOOOOOOOOOOO+++++++++ooOOOOOOO++iiiii",
"igooooooooooOOOOOOOOOOOOOooOOoOOOOOOOOOO++++O++OOOO...OOooXXoggi",
"ioooXXoooooOOOOOOOOOOOOOooooooOOOOOOOOOO+OOOO++OOOOOOOOoooX   gg",
"iXoXXoooooOOOoOOOOoOOOOOOOooOOOOOOOOOOOO++OOO++OOOOOOooooXXX Xgi",
"gXXXooooooOOoOOOOooOOOooOoooooOOOOOOOOOOOOOOOOOOOOOOOoooXXXX.Xgg",
"gXXXoXXooooooOOOooOOOOOooooooOOOOOOOOOOOOOOOOOOOOOOoOOooXXXX.Xgg",
"ggXXXXXooooooOOOOOOOOOOOOooooOOOOOOOOOOOOOOOOOOOOOOooOooXXX..Xgg",
"gggXXXXoXXooOOOOOOOOOOOOoooOOOOOOOOOOOOOOOOOOOOooOooooXXXX..Xggg",
"ggggXXoXXooOOOoOooOooOOooXoOoooOOOOOOOOOOOOOOOOOoooXXXXXXXXXgggg",
"egggiXXXXoOOOooooOOooOooXXoooooOOOOOOOOOOoOOoOooXXXXXggXXXXgggge",
"eegggXXXXooooooooOOoooooXXoXooOOOoOOOOoOOooOoooXXggggqiiggggegee",
"eeggggXXXooooooooOooXooXXXXXooOoooOOOOooOOoooooXggghggqqqqegeeee",
"ggggggXXXXooXooXoooXXXXXXXXXXooooOOOOOOoOOoooeggwghhqqeeqieggeee",
"gggggggXXXoXXooXXXXXXXXgggXXXXXoooOooOooooooiiieewghqeeeqggggggg",
"ggggggi..XXXooXXXiiiiiiiggiggXXXoooooOooooiiiiiiieweeeqqghgggggg",
"gggggiii.XXXoXXXiiiiiiigggiggggXXXoooooooggggggiiieeeeeggggggggg",
"gggggigi.XXXXXX71<&%$##@==-;>,57XXXooo..igggiigggiiieqgggqgggggg",
"gggggggi..XX..*@@@*@@@*@********X.XXoo.iiigggiiigiiiegggqighgggg",
"qiiiis7;...X.********@***********..XX..%3tigiiigggiieggqqigghggh",
"iiif8=**...X.********************..XX.***=4uiiiiigiiieqeeggegggq",
"iii6*****....****@@***************....*****2iiiggiiiiiieeeegggqq",
"iig=*****.....****@@***************....@@*@#igggiiiggigiiiiggqee",
"igg6***@@@.....****@@**************:....**@2igggggggiggiiiggiiie",
"iggu4#@@@@@....@@@@@@**************@@...*=8fgggggigggigiigggiiii",
"gggigs7;*@@@@@*@@@@@@@************@@@@*;7sgggggiiiigiigigggggggg",
"ggiigggga9,$@@***@@@@************@@$,9agggggggggiiiiiigggggggggg",
"ggigggggggggyr075,>%-==*==-;>,570pdggggggggggiiggiiiiggggggggggg",
"ggggggggggggggigggggggggggggggghgggggggggggiiggiiiiiiigggggggggg",
"gggggggggggggghgggggggggggggggghhggggghgggggiiiiiiiiiigggggggggg",
"gggggggggggggihghgggggggggggigihggghhgggggggggggiiggigggggggwwgg",
"gggggggggggggiiihgghggggggggiiiigiihgghhiiiigiiiiigggggggggggwwg",
"gggggggggggggggihhihggggggggiiiiiggiiigiggiigggiiiigggggggggggiw",
"gggggggggggggiiigiiiigggggggiiiiggggiiiggggggggiggigggggggggggii",
"ggggggggggggiiiiiggiiigggggiiiiiggggggggggggggiggggiggggiggggggi",
"gggggggggiiiiggiigggggggggggggiigggggggiigiigggggggggggggggggggg",
"gggggggggggiigiigggggggggggggiigggggggggiiiggggggggigggggggggggg",
"ggggggggggiiggiggggggggggggggiggggggiggggggggggggggggggggggggggg",
"gggggggqggiiegggggggggggggggggggggggggggggggggggiggggiggggighggg"
};
