/* XPM */
static char *b054cd697ced47489026dc93f26136b2FcBiol7U78C55JwV[] = {
/* columns rows colors chars-per-pixel */
"64 64 47 1 ",
"  c #090A14",
". c #241527",
"X c #341C27",
"o c #4D2B32",
"O c #7A4841",
"+ c #AD7757",
"@ c #6F8760",
"# c #718A62",
"$ c #789367",
"% c #799568",
"& c #7E9B6C",
"* c #838F5C",
"= c #86935E",
"- c #8A9861",
"; c #8E9C63",
": c #8F9E64",
"> c #919361",
", c #96A568",
"< c #9EAD6E",
"1 c #85A372",
"2 c #87A774",
"3 c #8AA976",
"4 c #8CAC77",
"5 c #93B67E",
"6 c #A1B170",
"7 c #A3B471",
"8 c #A6B773",
"9 c #AFC179",
"0 c #B2C47B",
"q c #B8CB7F",
"w c #96B980",
"e c #9BBF84",
"r c #9CC085",
"t c #90CB8B",
"y c #8FC193",
"u c #8FC79A",
"i c #9EDC9E",
"p c #A2C98A",
"a c #A5CB8C",
"s c #ACD492",
"d c #AED794",
"f c #B5E09A",
"g c #C2D585",
"h c #CDE28D",
"j c #CFE58E",
"k c #D8EE94",
"l c #F0F49C",
/* pixels */
"kkkkkkkkkffiillkkkkkkkkkkkkkkkkkkkkkkkkkkkkkkkkkkkkkkkkkkkkkkkkk",
"kkkkkkkkkkfiilkkkkkkkkkkkkkkkkkkkkkkkkkkkkkkkkkkkkkkkkkkkkkkkkkk",
"kkkkkkkkkkfiiikkkkkkkkkkkkffffffffkkkklkkkkkkkkkkkkkkkkkkfkkkkii",
"ffkkkkkkkffkiikykkkkkkkkkffffffkkkkkkkkkkkkkkikkkkkkkkyfkkkkkfff",
"fffffkkkkkkkkyiifikkkfffffffffkkkkkkkkkkkkkkkkkkkiiykyykkkkkffff",
"fffffkkkkkkkkkfffffffffffffkfffffkkkkkkkkkkkkkkkkkiiyykkkkkkfkkf",
"kffffkkkkukkkkfffffffffkiikkkkkkkkkkkkkkkkkkkkkkkkkiiiykkkukkkkk",
"kkffffkkkkfkkkkffffikllkkkkkkkkkkkkkkkkkkkkkkkkkkiiiiiiykkkkkkkk",
"kkffffkkkkukkkkffffikkkkkkkkkkkkkkkikkkkkkkkfkkkkiiiiiiykkkkkkkk",
"kkkkkkkkkkkkkkkkffikkkkkkkkkkkikkkkiikikkkkkfkyyyfffiifkkkkkkkkk",
"ffkkkkkkkkkkkkkkfiikkkkkkkkfkkkkkkifikkkkkkfykkiilfffikkkkkkkkkk",
"iikkkkkkkkkkkkkfkkkkkkkkkkkfkkkififkkkkiikkyfkkiifffffiikkkklkkk",
"kkkkkkkkkkkkkkkkooooooookkkkkkkkffkkkkkkikiikkyiffllffifikkllkkk",
"lkkkkkkkkkkkkkoooooooooooookkkkkfkkkkkkkfikkyiiifffffffiillkfyfk",
"lkkkkkkkkkkkkoooooooooooooo++++kkkkkkkkkffffffffffffffffiyiyyfkk",
"kkkkkkkkkkkooooooOOOoooooooo++++++++kkkffffffffffffffffffiiikkkk",
"klklkkkkkkooooooooOOOooooooo+o++O++++kklkffffkkfffffkkkkkiiikkll",
"klkllkkkkoooooOOOOooOOOooooooooOO+OOO++kfffkkkkkkkffkkkkkkkiillk",
"kyyyykkkooooooooOOOOOOOOOooooooOOOO+++++++kkkkkkkkffkkkkkkkkkkii",
"yyfykkkkooooooooOOOOooOOOooooooooO++OO++++++kkkkkkkfkkkkkkkkkkiy",
"ffflkkkoooooOooooOOooOOOooooooooooOOOOOO+++++kkkkkkkkkkkkkkkkkki",
"fffkyykooooooOOOOOOOOOOOOOOOoooOOoOOOOO+++++++kkkkkkkkkkkkkkkkkk",
"ffffffooooooOOOOOOOOOOOOOOOOooooOOOOOOO++O++++++kkkkkkkkkkkkkkkk",
"kfffffoooooOOOOoooOOOooOOOooooooOOOOOOO+OO++O++++kkkkkkkkkkkkkkk",
"kkkkfoooooooooooOOOOooOOOOoOoooOOOOOOOOOOO+OO+++++kkkkkkkkkkkfkk",
"kkkkfooooooooooOOOOOOOOOOOOOooOOoOOOOOOOOOOOO++++++kkkkkkkkkfffk",
"kkktoooXXoooooOOOOOOOOOOOOOooooooOOOOOOOOOOO+++O+++++kkkkkkfffff",
"fktfXoXXoooooOOOoOOOOoOOOOOOOooOOOOOOOOOOOOOOOOO++++++kkkkfkkkkf",
"ffufXXXooooooOOoOOOOooOOOooOoooooOOOOOOOOOOOOOO++++++++kkkkkkkkk",
"ffffXXXoXXooooooOOOooOOOOOooooooOOOOOOOOOOOOOOOO+OO+++++lkfkffkf",
"kkkkkXXXXXooooooOOOOOOOOOOOOooooOOOOOOOOOOOOOOOOOO++++O+kkkkkkkk",
"kkkkffXXXXoXXooOOOOOOOOOOOOoooOOOOOOOOOOOOOOOOOOOOO++OO++kkkkkkk",
"kkkkkkfXXoXXooOOOoOooOooOOooXoOoooOOOOOOOOOOOOOOOOOOOOO+++kkkkkk",
"kkkkkkfkXXXXoOOOooooOOooOooXXoooooOOOOOOOOOOoOOOOOOOOO++O+kkkkkk",
"kkkkfffkXXXXooooooooOOoooooXXoXooOOOoOOOOoOOoOOOOOOOOOoo+O+kkkkk",
"ikkkfkkkkXXXooooooooOooXooXXXXXooOoooOoOoooooOoOOOOOOoXXo++kkkki",
"iikkkkkkkXXXXooXooXoooXXXXXXXXXXooooOOOooooooooOOOOOOOOOO+++ikii",
"iikkkkkkkkXXXoXXooXXXXXXXXffkXXXXXoooOoooooooooooOOOOOO.OO++iiii",
"kkkkkkkkkk..XXXooXXXffffkkkkkkkkXXXooooooooXXoooOOOOOOO.OO+kkiii",
"kkkkkkkkkkk.XXXoXXXfffkkkkkkkkkkkkXXXoooooooXXXooOOOOoO.O+Okkkkk",
"kkkkkkffiii.XXXXXXffffffkkfkkkkkkkkXXXooo..fffXooooOOoOOOO+kkkkk",
"kkkkkffffff..XX..ffffffkkkfkkkkkkkkX.XXoo.kkkkXXoooOooOOOO+kkkkk",
"kkkkkfkfffk...X.dar541&%-==*==-:,<89..XX..kkffkXXooooooooo+kkkkk",
"kkkkkkkfkkk...X.@@*@@@*@************..XX.ehkkfffXXXooooooo+lkkkk",
"yffffkkkkkg6....*****@***************....@@6pffkkXXXXXXXXXXklkkl",
"fffkkkkkk0**.....********************@....@@@wfffXXXXXXXX Xikkky",
"fffkkkkkk=***.....@********************....@@#fkkXXXXXXXX  kkkyy",
"ffkkkkkkk0@@**....@@***************>*@*@...@@0kkfXX...X..  kkyii",
"fkkkkkkfffp2@@@****@@**************>@@@@**@2pkkkkkX.f...Xfkkfffi",
"fkkfffffffffse3$@@@@@**************@@@*;7qhkkkkkkfkXk.XXfkkkffff",
"kkkfkkkkkfffffkfdar541,:-==*==-:,<45rajkkkkkkkkffffkffkfkkkkkkkk",
"kkffkkkkkkkfffkkkffffkkkkkkkkkkkkfffkkkkkkkkkkkkffffffkkkkkkkkkk",
"kkfkkkkkkkkkffkkkkkfkkkkkkkkkkkkkkkkkkkkkkkkkffkkffffkkkkkkkkkkk",
"kkkkkkkkkkkkkkfkkkkkkkkkkkkkkkklkkkkkkkkkkkffkkfffffffkkkkkkkkkk",
"kkkkkkkkkkkkkklkkkkkkkkkkkkkkkkllkkkkklkkkkkffffffffffkkkkkkkkkk",
"kkkkkkkkkkkkkflklkkkkkkkkkkkfkflkkkllkkkkkkkkkkkffkkfkkkkkkkuukk",
"kkkkkkkkkkkkkffflkklkkkkkkkkffffkfflkkllffffkfffffkkkkkkkkkkkuuk",
"kkkkkkkkkkkkkkkfllflkkkkkkkkfffffkkfffkfkkffkkkffffkkkkkkkkkkkfu",
"kkkkkkkkkkkkkfffkffffkkkkkkkffffkkkkfffkkkkkkkkfkkfkkkkkkkkkkkff",
"kkkkkkkkkkkkfffffkkfffkkkkkfffffkkkkkkkkkkkkkkfkkkkfkkkkfkkkkkkf",
"kkkkkkkkkffffkkffkkkkkkkkkkkkkffkkkkkkkffkffkkkkkkkkkkkkkkkkkkkk",
"kkkkkkkkkkkffkffkkkkkkkkkkkkkffkkkkkkkkkfffkkkkkkkkfkkkkkkkkkkkk",
"kkkkkkkkkkffkkfkkkkkkkkkkkkkkfkkkkkkfkkkkkkkkkkkkkkkkkkkkkkkkkkk",
"kkkkkkkykkffikkkkkkkkkkkkkkkkkkkkkkkkkkkkkkkkkkkfkkkkfkkkkfklkkk"
};
