/* XPM */
static char *af28f4f38b044a7ee95dd7fd49f6b404GDKMJ1q8R4eokK0p[] = {
/* columns rows colors chars-per-pixel */
"64 64 46 1 ",
"  c #090A14",
". c #241527",
"X c #341C27",
"o c #4D2B32",
"O c #7A4841",
"+ c #AD7757",
"@ c #6F8760",
"# c #718A61",
"$ c #7F9C6D",
"% c #838F5C",
"& c #84905D",
"* c #87945F",
"= c #8B9962",
"- c #819E6E",
"; c #919361",
": c #909F65",
"> c #96A569",
", c #98A86A",
"< c #9EAD6E",
"1 c #85A372",
"2 c #8BAB77",
"3 c #8DAD78",
"4 c #91B37C",
"5 c #92B47D",
"6 c #A7B874",
"7 c #ACBE77",
"8 c #B4C67C",
"9 c #9ABE83",
"0 c #90CB8B",
"q c #8FC193",
"w c #8FC79A",
"e c #9EDC9E",
"r c #A1C789",
"t c #A2C88A",
"y c #A6CD8D",
"u c #ABD391",
"i c #B1DA96",
"p c #B4DE99",
"a c #B5E09A",
"s c #C0D384",
"d c #C1D585",
"f c #C6DA88",
"g c #CBE08C",
"h c #D6EC93",
"j c #D8EE94",
"k c #F0F49C",
/* pixels */
"jjjjjjjjjaaeekkjjjjjjjjjjjjjjjjjjjjjjjjjjjjjjjjjjjjjjjjjjjjjjjjj",
"jjjjjjjjjjaeekjjjjjjjjjjjjjjjjjjjjjjjjjjjjjjjjjjjjjjjjjjjjjjjjjj",
"jjjjjjjjjjaeeejjjjjjjjjjjjaaaaaaaajjjjkjjjjjjjjjjjjjjjjjjajjjjee",
"aajjjjjjjaajeejqjjjjjjjjjaaaaaajjjjjjjjjjjjjjejjjjjjjjqajjjjjaaa",
"aaaaajjjjjjjjqeeaejjjaaaaaaaaajjjjjjjjjjjjjjjjjjjeeqjqqjjjjjaaaa",
"aaaaajjjjjjjjjaaaaaaaaaaaaajaaaaajjjjjjjjjjjjjjjjjeeqqjjjjjjajja",
"jaaaajjjjwjjjjaaaaaaaaajeejjjjjjjjjjjjjjjjjjjjjjjjjeeeqjjjwjjjjj",
"jjaaaajjjjajjjjaaaaejkkjjjjjjjjjjjjjjjjjjjjjjjjjjeeeeeeqjjjjjjjj",
"jjaaaajjjjwjjjjaaaaejjjjjjjjjjjjjjjejjjjjjjjajjjjeeeeeeqjjjjjjjj",
"jjjjjjjjjjjjjjjjaaejjjjjjjjjjjejjjjeejejjjjjajqqqaaaeeajjjjjjjjj",
"aajjjjjjjjjjjjjjaeejjjjjjjjajjjjjjeaejjjjjjaqjjeekaaaejjjjjjjjjj",
"eejjjjjjjjjjjjjajjjjjjjjjjjajjjeaeajjjjeejjqajjeeaaaaaeejjjjkjjj",
"jjjjjjjjjjjjjjjoooooooojjjjjjjjjaajjjjjjejeejjqeaakkaaeaejjkkjjj",
"kjjjjjjjjjjjjooooooooooooojjjjjjajjjjjjjaejjqeeeaaaaaaaeekkjaqaj",
"kjjjjjjjjjjjoooooooooooooo++++jjjjjjjjjjaaaaaaaaaaaaaaaaeqeqqajj",
"jjjjjjjjjjooooooOOOoooooooo++++++++jjjjaaaaaaaaaaaaaaaaaaeeejjjj",
"jkjkjjjjjooooooooOOOooooooo+o++O++++jjjkjaaaajjaaaaajjjjjeeejjkk",
"jkjkkjjjoooooOOOOooOOOooooooooOO+OOO++jjaaajjjjjjjaajjjjjjjeekkj",
"jqqqqjjooooooooOOOOOOOOOooooooOOOO+++++++jjjjjjjjjaajjjjjjjjjjee",
"qqaqjjjooooooooOOOOooOOOooooooooO++OO+++++++jjjjjjjajjjjjjjjjjeq",
"aaakjjoooooOooooOOooOOOooooooooooOOOOOO++++++jjjjjjjjjjjjjjjjjje",
"aaajqqooooooOOOOOOOOOOOOOOOoooOOoOOOOO+++++++++jjjjjjjjjjjjjjjjj",
"aaaaaooooooOOOOOOOOOOOOOOOOooooOOOOOOO++O+++++++jjjjjjjjjjjjjjjj",
"jaaaaoooooOOOOoooOOOooOOOooooooOOOOOOO+OO++O+++++jjjjjjjjjjjjjjj",
"jjjjoooooooooooOOOOooOOOOoOoooOOOOOOOOOOO+OO++++++jjjjjjjjjjjajj",
"jjjjooooooooooOOOOOOOOOOOOOooOOoOOOOOOOOOOOO++O+++++jjjjjjjjaaaj",
"jjjoooXXoooooOOOOOOOOOOOOOooooooOOOOOOOOOOO+OOO++++++jjjjjjaaaaa",
"aj0XoXXoooooOOOoOOOOoOOOOOOOooOOOOOOOOOOOOOOOO++++++++jjjjajjjja",
"aawXXXooooooOOoOOOOooOOOooOoooooOOOOOOOOOOOOOOO+OO+++++jjjjjjjjj",
"aaaXXXoXXooooooOOOooOOOOOooooooOOOOOOOOOOOOOOOOOO++++O+jkjajaaja",
"jjjjXXXXXooooooOOOOOOOOOOOOooooOOOOOOOOOOOOOOOOOOO++OO++jjjjjjjj",
"jjjjaXXXXoXXooOOOOOOOOOOOOoooOOOOOOOOOOOOOOOOOOOOOOOO+++jjjjjjjj",
"jjjjjjXXoXXooOOOoOooOooOOooXoOoooOOOOOOOOOOOOOOOOOOOO++O+jjjjjjj",
"jjjjjjaXXXXoOOOooooOOooOooXXoooooOOOOOOOOOOoOOOOOOOOooo+O+jjjjjj",
"jjjjaaaXXXXooooooooOOoooooXXoXooOOOoOOOOoOOoOOOOOOOOOXXo++jjjjjj",
"ejjjajjjXXXooooooooOooXooXXXXXooOoooOoOoooooOoOOOOOOOOOO+++jjjje",
"eejjjjjjXXXXooXooXoooXXXXXXXXXXooooOOOooooooooOOOOOOOO.OO++jejee",
"eejjjjjjjXXXoXXooXXXXXXXXjaaXXXXXoooOoooooooooOOOOOOOO.OO+ejeeee",
"jjjjjjjjj..XXXooXXXaaaaajjjjjjjXXXooooooooXXooOoOOOOoO.O+Oejjeee",
"jjjjjjjjjj.XXXoXXXaaaajjjjjjjjjjjXXXoooooooXXXooooOOoOOOO+jjjjjj",
"jjjjjjaaee.XXXXXXaaaaaaajjajjjjjjjXXXooo..aaaXXoooOooOOOO+jjjjjj",
"jjjjjaaaaa..XX..ut9521$:=*#%%&*=:>X.XXoo.jjjjjXXooooooooo+jjjjjj",
"jjjjjajaaa...X.&@@@@@@@@%%%%%%%%%%%..XX..,7siajXXXooooooo+jjjjjj",
"jjjjjjjajf...X.@@@%@@@%@%%%%%%%%%%%..XX.@@%%&3yaXXXXXXXXXXjkjjjj",
"qaaaajjj8%%....%%%%%%@%%%%%%%%%%%%%%....@@@%@@@8XXXXXXXX Xjjkjjk",
"aaajjjjj&%%.....%%%%%%%%%%%%%%%%%%%%%....%@@@@@#aXXXXXXX  jejjjq",
"aaajjjjj8%%%.....@@%%%%%%%%%%%%%%%%%%%....%@@@@8jaXX.X..  ejjjqq",
"aajjjjjjjf3#%....%@@%%%%%%%%%%%%%%%;%@%...@@#6fjaaXX...Xaaajjqee",
"ajjjjjjaaaair4-&%%%@@%%%%%%%%%%%%%%;@@@@&,4rijjjjjjXXXXaaajjaaae",
"ajjaaaaaaaaaaaaput952<>:=*&%%&*=:><259dghjjjjjjjjajjjajaajjjaaaa",
"jjjajjjjjaaaaajaaaaaaajjjjjjjjjjjjaaaajjjjjjjjjaaaajaajajjjjjjjj",
"jjaajjjjjjjaaajjjaaaajjjjjjjjjjjjaaajjjjjjjjjjjjaaaaaajjjjjjjjjj",
"jjajjjjjjjjjaajjjjjajjjjjjjjjjjjjjjjjjjjjjjjjaajjaaaajjjjjjjjjjj",
"jjjjjjjjjjjjjjajjjjjjjjjjjjjjjjkjjjjjjjjjjjaajjaaaaaaajjjjjjjjjj",
"jjjjjjjjjjjjjjkjjjjjjjjjjjjjjjjkkjjjjjkjjjjjaaaaaaaaaajjjjjjjjjj",
"jjjjjjjjjjjjjakjkjjjjjjjjjjjajakjjjkkjjjjjjjjjjjaajjajjjjjjjwwjj",
"jjjjjjjjjjjjjaaakjjkjjjjjjjjaaaajaakjjkkaaaajaaaaajjjjjjjjjjjwwj",
"jjjjjjjjjjjjjjjakkakjjjjjjjjaaaaajjaaajajjaajjjaaaajjjjjjjjjjjaw",
"jjjjjjjjjjjjjaaajaaaajjjjjjjaaaajjjjaaajjjjjjjjajjajjjjjjjjjjjaa",
"jjjjjjjjjjjjaaaaajjaaajjjjjaaaaajjjjjjjjjjjjjjajjjjajjjjajjjjjja",
"jjjjjjjjjaaaajjaajjjjjjjjjjjjjaajjjjjjjaajaajjjjjjjjjjjjjjjjjjjj",
"jjjjjjjjjjjaajaajjjjjjjjjjjjjaajjjjjjjjjaaajjjjjjjjajjjjjjjjjjjj",
"jjjjjjjjjjaajjajjjjjjjjjjjjjjajjjjjjajjjjjjjjjjjjjjjjjjjjjjjjjjj",
"jjjjjjjqjjaaejjjjjjjjjjjjjjjjjjjjjjjjjjjjjjjjjjjajjjjajjjjajkjjj"
};
