/* XPM */
static const char *cG5jbG9uZW5feXJzZw___67a3e01395666[] = {
/* columns rows colors chars-per-pixel */
"64 64 48 1 ",
"  c #090A14",
". c #241527",
"X c #341C27",
"o c #4D2B32",
"O c #7A4841",
"+ c #AD7757",
"@ c #5A805A",
"# c #688258",
"$ c #698459",
"% c #6D895C",
"& c #7D8B54",
"* c #799766",
"= c #7B9A68",
"- c #808E56",
"; c #8C8E59",
": c #839158",
"> c #85945A",
", c #8E905A",
"< c #8D9B5F",
"1 c #91A062",
"2 c #94A464",
"3 c #85A671",
"4 c #8DAF78",
"5 c #8FB279",
"6 c #94B87E",
"7 c #A0B06C",
"8 c #A7B871",
"9 c #A9BA73",
"0 c #ABBD75",
"q c #B1C379",
"w c #B7CA7D",
"e c #B8CB7D",
"r c #9ABF83",
"t c #8FC193",
"y c #8FC79A",
"u c #9EDC9E",
"i c #A0C688",
"p c #A4CB8B",
"a c #BFD382",
"s c #B0D995",
"d c #B2DC97",
"f c #B3DE98",
"g c #B5E09A",
"h c #C4D886",
"j c #D2E78F",
"k c #D4EA91",
"l c #D8EE94",
"z c #F0F49C",
/* pixels */
"lllllllllgguuzzlllllllllllllllllllllllllllllllllllllllllllllllll",
"llllllllllguuzllllllllllllllllllllllllllllllllllllllllllllllllll",
"llllllllllguuullllllllllllggggggggllllzllllllllllllllllllglllluu",
"gglllllllggluultlllllllllggggggllllllllllllllulllllllltglllllggg",
"ggggglllllllltuugulllgggggggggllllllllllllllllllluutlttlllllgggg",
"ggggglllllllllggggggggggggglgggggllllllllllllllllluuttllllllgllg",
"lggggllllyllllgggggggggluullllllllllllllllllllllllluuutlllylllll",
"llggggllllgllllggggulzzlllllllllllllllllllllllllluuuuuutllllllll",
"llggggllllyllllggggulllllllllllllllullllllllglllluuuuuutllllllll",
"llllllllllllllllggulllllllllllulllluululllllgltttggguuglllllllll",
"ggllllllllllllllguullllllllgllllllugullllllgtlluuzgggullllllllll",
"uulllllllllllllglllllllllllgllluguglllluulltglluuggggguullllzlll",
"llllllllllllllllllllllllllllllllgglllllluluulltuggzzggugullzzlll",
"zlllllllllllllllllllllllllllllllglllllllgulltuuuggggggguuzzlgtgl",
"zlllllllllllllllllllllllllllllllllllllllggggggggggggggggututtgll",
"lllllllllllllllllllllllllglllllllllllllggoooooooooogggggguuullll",
"lzlzllllll++++++++++llllgglllllgggll++++ooooooooooooolllluuullzz",
"lzlzzllll+++OOO++OO+++llggggggg++++++++ooooooooooooooollllluuzzl",
"lttttll+O+OO+O+Xo+++++++ggg+++++++O++o+ooooooooOOOoooooolllllluu",
"ttgtll+++OOOOO+Xo+++++++++++++OOO+OOooooooooooOOOoooooooolllllut",
"gggz++OOOOOOOOXo++++++++++++++++OOOOooooooooOOOooOOOOooooolllllu",
"ggoXXooOO...OOo+++O++++++++OOOO++OooooooooOOOOOOOOOoooooooolllll",
"g   XoooOOOOOOOOO++O++++OO++OOOOOoooooooooOOOooOOOOoooooooolllll",
"lX XXXooOooOOOOOO++OOOO++OO+OOOOOoOOoooooooOOOooOOooooOooooollll",
"lX.XXXXoooOOOOOO++OOOO+++OOOOOOOOOOooooOOOOOOOOOOOOOOOoooooolgll",
"lX.XXXXoooOOOOOOOOOOOOO+OOOOOOOOOOOooooOOOOOOOOOOOOOOOOooooooggl",
"lX.XXXXooOOoOOOOOOOOOOO+OOOOOOOOOOOOoooooOOOooOOOoooOOOOoooooggg",
"gX...XXXooooOOOOOOOOOOOOOOOOOOOOOOoOOooOoOOOOooOOOOooooooooooolg",
"ggXXXXXXXXoooOooOOOOOOOOOOOOOOOOOOoooooOOOOOOOOOOOOOooooooooooll",
"gggXXXXXXXXXXooOOOOOOOOOOOOOOOOOOOOOooooOOOOOOOOOOOOOoooooXXooog",
"llllllgllllXXXXooOoOOOOOOOOOOOOOOOooooOOOOOOOoOOOOoOOOoooooXXoXl",
"llllggglllllluXXoooOOOOOOOOOOOOOOOOooooOooOOOooOOOOoOOooooooXXXl",
"llllllgllllllllXooOOoOOOOOOOOOOOOOOooooooOOOOOooOOOooooooXXoXXXl",
"llllllglllllllllooooOOoOOOOOOOOOOoOOOooOOOOOOOOOOOOooooooXXXXXll",
"llllgggllllllullloooOooOOoOOOOOOOoooOoooOOOOOOOOOOOOooXXoXXXXlll",
"ulllgllllllluullllooooOOooOOOOoOOOooooXooOOooOooOoOOOooXXoXXlllu",
"uullllllllllluullllgooOOoOOOOOoooOooXoXXooOooOOooooOOOoXXXXluluu",
"uulllllllllluuuluuuggoooooOooOOoooXoXXXXoooooOOooooooooXXXXluuuu",
"llllllllllllluuuuuggggooooOooooooXXXXXXXXooXooOooooooooXXXulluuu",
"lllllllllllluugggggggghoooooXXXXXXXX&&&##XXXXoooXooXooXXXXllllll",
"llllllgguuuuugggggggf6$#.ooXXX  &&&&#&&&###XXXXXXooXXoXX.,qkllll",
"lllllggggggggglggggg5##..oXX.   &&&&&&&&&&&&&&&##XooXXXX.&&0llll",
"lllllglgggllllllgggr###.oXX.    &&&&&&&&#&&&##&&   ..XXX..&&elll",
"lllllllglllllllgggl=##&.XX..   &&&&&&&&###&&&###    ..XX..&;2lll",
"tggggllllllllllllll&&# ....  &&&&&&&&&#####&###     @..XX.&&;llz",
"gggllllllllllllllll2&  ... &&&&&&&&&&#&&&&###      ##@....&@2llt",
"gggllllllllllllllgge& ....&&&&&&&&&&&&&&&&&#      ####....@&eltt",
"ggllllllllggllllllgg0&....&&&&&&&&&;&#&##&##     ##&&.....#0ltuu",
"gllllllggggggggllllgfq...&&&&&&&&&&;####&&###&&&&&&&#....$qkgggu",
"gllgggggggggggggggggglh7&&&&&&&&&&&###&&&&&&&&&&&#&&&#&#3hllgggg",
"lllglllllggggglgggggggllh8:&&&&&&&####&&&&&&&&&####&#%8pllllllll",
"llgglllllllggglllgggglllllka91&&&###&&&&&&&&&&&&##*4idllllllllll",
"llglllllllllgglllllglllllllllljhw072<>-&&-><235whsggglllllllllll",
"llllllllllllllgllllllllllllllllzlllllllllllggllgggggggllllllllll",
"llllllllllllllzllllllllllllllllzzlllllzlllllggggggggggllllllllll",
"lllllllllllllgzlzlllllllllllglgzlllzzlllllllllllggllglllllllyyll",
"lllllllllllllgggzllzllllllllgggglggzllzzgggglggggglllllllllllyyl",
"lllllllllllllllgzzgzllllllllgggggllggglgllgglllgggglllllllllllgy",
"lllllllllllllggglgggglllllllggggllllgggllllllllgllglllllllllllgg",
"llllllllllllgggggllggglllllgggggllllllllllllllgllllgllllgllllllg",
"lllllllllggggllgglllllllllllllgglllllllgglggllllllllllllllllllll",
"lllllllllllgglgglllllllllllllgglllllllllgggllllllllgllllllllllll",
"llllllllllggllgllllllllllllllgllllllglllllllllllllllllllllllllll",
"llllllltllggulllllllllllllllllllllllllllllllllllgllllgllllglzlll"
};
