/* XPM */
static char *result[] = {
/* columns rows colors chars-per-pixel */
"64 64 57 1 ",
"  c #090A14",
". c #241527",
"X c #341C27",
"o c #4D2B32",
"O c #7A4841",
"+ c #AD7757",
"@ c #6F8760",
"# c #708860",
"$ c #718A61",
"% c #748E64",
"& c #769166",
"* c #789468",
"= c #7E9B6C",
"- c #838F5C",
"; c #83905D",
": c #84905D",
"> c #85925E",
", c #899660",
"< c #8C9A62",
"1 c #8F9D64",
"2 c #819E6F",
"3 c #919361",
"4 c #96A568",
"5 c #99A86B",
"6 c #9CAB6C",
"7 c #9EAE6E",
"8 c #83A170",
"9 c #85A472",
"0 c #89A875",
"q c #8DAE78",
"w c #90B17B",
"e c #91B37C",
"r c #92B57D",
"t c #A2B371",
"y c #A7B874",
"u c #ABBC76",
"i c #ACBE77",
"p c #AEC078",
"a c #B2C47B",
"s c #95B880",
"d c #8FC193",
"f c #8FC79A",
"g c #9EDC9E",
"h c #A3CA8B",
"j c #A8CF8F",
"k c #BDD082",
"l c #ADD593",
"z c #B5E09A",
"x c #C3D686",
"c c #C8DC89",
"v c #C8DD8A",
"b c #C9DD8A",
"n c #CEE38D",
"m c #D5EB92",
"M c #D6EC93",
"N c #D8EE94",
"B c #F0F49C",
/* pixels */
"NNNNNNNNNzzggBBNNNNNNNNNNNNNNNNNNNNNNNNNNNNNNNNNNNNNNNNNNNNNNNNN",
"NNNNNNNNNNzggBNNNNNNNNNNNNNNNNNNNNNNNNNNNNNNNNNNNNNNNNNNNNNNNNNN",
"NNNNNNNNNNzgggNNNNNNNNNNNNzzzzzzzzNNNNBNNNNNNNNNNNNNNNNNNzNNNNgg",
"zzNNNNNNNzzNggNdNNNNNNNNNzzzzzzNNNNNNNNNNNNNNgNNNNNNNNdzNNNNNzzz",
"zzzzzNNNNNNNNdggzgNNNzzzzzzzzzNNNNNNNNNNNNNNNNNNNggdNddNNNNNzzzz",
"zzzzzNNNNNNNNNzzzzzzzzzzzzzNzzzzzNNNNNNNNNNNNNNNNNggddNNNNNNzNNz",
"NzzzzNNNNfNNNNzzzzzzzzzNggNNNNNNNNNNNNNNNNNNNNNNNNNgggdNNNfNNNNN",
"NNzzzzNNNNzNNNNzzzzgNBBNNNNNNNNNNNNNNNNNNNNNNNNNNggggggdNNNNNNNN",
"NNzzzzNNNNfNNNNzzzzgNNNNNNNNNNNNNNNgNNNNNNNNzNNNNggggggdNNNNNNNN",
"NNNNNNNNNNNNNNNNzzgNNNNNNNNNNNgNNNNggNgNNNNNzNdddzzzggzNNNNNNNNN",
"zzNNNNNNNNNNNNNNzggNNNNNNNNzNNNNNNgzgNNNNNNzdNNggBzzzgNNNNNNNNNN",
"ggNNNNNNNNNNNNNzNNNNNNNNNNNzNNNgzgzNNNNggNNdzNNggzzzzzggNNNNBNNN",
"NNNNNNNNNNNNNNNNNNNNNNNNNNNNNNNNzzNNNNNNgNggNNdgzzBBzzgzgNNBBNNN",
"BNNNNNNNNNNNNNNNNNNNNNNNNNNNNNNNzNNNNNNNzgNNdgggzzzzzzzggBBNzdzN",
"BNNNNNNNNNNNNooooooooNNNNNNNNNNNNNNNNNNNzzzzzzzzzzzzzzzzgdgddzNN",
"NNNNNNNNNNNoooooooooooooNzNNNNNNNNNNNNNzzzzzzzzzzzzzzzzzzgggNNNN",
"NBNBNNNNNNoooooooooooooo++++NNNzzzNNNNNBNzzz++++++++++NNNgggNNBB",
"NBNBBNNNooooooOOOoooooooo++++++++NNNBNNNzz+++OO++OOO+++NNNNggBBN",
"NddddNNooooooooOOOooooooo+o++O+++++++NNN+++++++oX+O+OO+O+NNNNNgg",
"ddzdNNoooooOOOOooOOOooooooooOO+OOO+++++++++++++oX+OOOOO+++NNNNgd",
"zzzBNooooooooOOOOOOOOOooooooOOOO++++++++++++++++oXOOOOOOOO++NNNg",
"zzzNdooooooooOOOOooOOOooooooooO++OOOO++++++++O+++oOO...OOooXXoNN",
"zzzzoooooOooooOOooOOOooooooooooOOOOO++OO++++O++OOOOOOOOOoooX   N",
"NzzzooooooOOOOOOOOOOOOOOOoooOOoOOOOO+OO++OOOO++OOOOOOooOooXXX XN",
"NNNooooooOOOOOOOOOOOOOOOOooooOOOOOOOOOO+++OOOO++OOOOOOoooXXXX.XN",
"NNNoooooOOOOoooOOOooOOOooooooOOOOOOOOOOO+OOOOOOOOOOOOOoooXXXX.XN",
"NNoooooooooooOOOOooOOOOoOoooOOOOOOOOOOOO+OOOOOOOOOOOoOOooXXXX.Xz",
"zNooooooooooOOOOOOOOOOOOOooOOoOOOOOOOOOOOOOOOOOOOOOOooooXXX...Xz",
"zoooXXoooooOOOOOOOOOOOOOooooooOOOOOOOOOOOOOOOOOOooOoooXXXXXXXXNN",
"zXoXXoooooOOOoOOOOoOOOOOOOooOOOOOOOOOOOOOOOOOOOOOooXXXXXXXXXXzNz",
"NXXXooooooOOoOOOOooOOOooOoooooOOOOOOOOOOOOOOOoOooXXXXNNNNNNNNNNN",
"NXXXoXXooooooOOOooOOOOOooooooOOOOOOOOOOOOOOOOoooXXNNNNNNNNNNNNNN",
"NNXXXXXooooooOOOOOOOOOOOOooooOOOOOOOOOOOOOOoOOooXNNNNNNNNNNNNNNN",
"NNNXXXXoXXooOOOOOOOOOOOOoooOOOoOOOOOOOOOOoOOooooNNNNNNNNNNNNNNNN",
"NNNNXXoXXooOOOoOooOooOOooXoOoooOOOOOOOoOOooOoooNNNNNNNNNNNNNNNNN",
"gNNNzXXXXoOOOooooOOooOooXXooooOOOoOOOOooOOooooNNNNNNNNNNNNNNNNNg",
"ggNNNXXXXooooooooOOoooooXXoXooOoooOOOOOoOOooNNBNNNNNNdzzNNNNgNgg",
"ggNNNNXXXooooooooOooXooXXXXXoooooOOooOooooogfNBBNNNBNNddddgNgggg",
"NNNNNNXXXXooXooXoooXXXXXXXXXXoXooooooOoooozzggNNfNBBddggdzgNNggg",
"NNNNNNNXXXoXXooXXXXXXXXNNNXXXXXXXXooooooozzzzzzggfNBdgggdNNNNNNN",
"NNNNNNz..XXXooXXXsq9=*%$;;$,147yXXXooo..zzzzzzzzzgfgggddNBNNNNNN",
"NNNNNzzz.XXXoXXX@@@@@@@---@------.XXoo.MNNNNNNNzzzgggggNNNNNNNNN",
"NNNNNzNz.XXXXXX-@@@@@@@@---------..XX..<evNNzzNNNzzzgdNNNdNNNNNN",
"NNNNNNnw..XX..-@@@-@@@-@---------..XX.-@@@unNzzzNzzzgNNNdzNBNNNN",
"dzzzzc6-...X.--------@------------..X.@@@@@6jzzNNNzzgNNddzNNBNNB",
"zzzNNt--...X.---------------------....----@@0zzzzNzzzgdggNNgNNNd",
"zzzNN:---....----@@---------------....-----@#zzNNzzzzzzggggNNNdd",
"zzNNNt---.....----@@---------------....@@-@@0NNNzzzNNzNzzzzNNdgg",
"zNNNNc6@@@.....----@@--------------3....--@8jNNNNNNNzNNzzzNNzzzg",
"zNNzzzlw@@@....@@@@@@--------------@@...--unNNNNNzNNNzNzzNNNzzzz",
"NNNzNNNNve&@@@-@@@@@@@------------@@@@-<ivNNNNNzzzzNzzNzNNNNNNNN",
"NNzzNNNNNNMhr2---@@@@------------@@@5pxMNNNNNNNNzzzzzzNNNNNNNNNN",
"NNzNNNNNNNNNzzmbkay941,>;;>,147yakbmNNNNNNNNNzzNNzzzzNNNNNNNNNNN",
"NNNNNNNNNNNNNNzNNNNNNNNNNNNNNNNBNNNNNNNNNNNzzNNzzzzzzzNNNNNNNNNN",
"NNNNNNNNNNNNNNBNNNNNNNNNNNNNNNNBBNNNNNBNNNNNzzzzzzzzzzNNNNNNNNNN",
"NNNNNNNNNNNNNzBNBNNNNNNNNNNNzNzBNNNBBNNNNNNNNNNNzzNNzNNNNNNNffNN",
"NNNNNNNNNNNNNzzzBNNBNNNNNNNNzzzzNzzBNNBBzzzzNzzzzzNNNNNNNNNNNffN",
"NNNNNNNNNNNNNNNzBBzBNNNNNNNNzzzzzNNzzzNzNNzzNNNzzzzNNNNNNNNNNNzf",
"NNNNNNNNNNNNNzzzNzzzzNNNNNNNzzzzNNNNzzzNNNNNNNNzNNzNNNNNNNNNNNzz",
"NNNNNNNNNNNNzzzzzNNzzzNNNNNzzzzzNNNNNNNNNNNNNNzNNNNzNNNNzNNNNNNz",
"NNNNNNNNNzzzzNNzzNNNNNNNNNNNNNzzNNNNNNNzzNzzNNNNNNNNNNNNNNNNNNNN",
"NNNNNNNNNNNzzNzzNNNNNNNNNNNNNzzNNNNNNNNNzzzNNNNNNNNzNNNNNNNNNNNN",
"NNNNNNNNNNzzNNzNNNNNNNNNNNNNNzNNNNNNzNNNNNNNNNNNNNNNNNNNNNNNNNNN",
"NNNNNNNdNNzzgNNNNNNNNNNNNNNNNNNNNNNNNNNNNNNNNNNNzNNNNzNNNNzNBNNN"
};
