/* XPM */
static const char *cWJiZQ___67a3c537b1ad8[] = {
/* columns rows colors chars-per-pixel */
"64 64 181 2 ",
"   c #504D4B",
".  c #7C6A67",
"X  c #7A6E6E",
"o  c #7E6E6E",
"O  c #8B7D5F",
"+  c #836E6E",
"@  c #81726F",
"#  c #857A6B",
"$  c #897B6B",
"%  c #807473",
"&  c #867A78",
"*  c #927875",
"=  c #917A78",
"-  c #967A78",
";  c #7FA97D",
":  c #8F8266",
">  c #94886E",
",  c #92956E",
"<  c #8D8173",
"1  c #848F70",
"2  c #998271",
"3  c #97807D",
"4  c #9C807D",
"5  c #A08D70",
"6  c #A4867C",
"7  c #A48A79",
"8  c #AC9375",
"9  c #AA967A",
"0  c #AF907F",
"q  c #A9997F",
"w  c #B39D71",
"e  c #B79A7B",
"r  c #BA9D78",
"t  c #8EAC7B",
"y  c #BFA377",
"u  c #A7B677",
"i  c #C7AD73",
"p  c #C4AB7F",
"a  c #CBB27A",
"s  c #CBB47A",
"d  c #D0B97E",
"f  c #857A83",
"g  c #9C8886",
"h  c #9B8A89",
"j  c #9D918E",
"k  c #9E9393",
"l  c #A88783",
"z  c #AF8783",
"x  c #A88A83",
"c  c #AC8E82",
"v  c #AD8F8B",
"b  c #A29184",
"n  c #A39587",
"m  c #A9958E",
"M  c #B09582",
"N  c #B49686",
"B  c #B59887",
"V  c #BB9F82",
"C  c #BA9F88",
"Z  c #A89894",
"A  c #AC9E98",
"S  c #B29794",
"D  c #B29D94",
"F  c #B89D94",
"G  c #B19E9C",
"H  c #B79F9C",
"J  c #B89A9F",
"K  c #A1A68D",
"L  c #ACAB8B",
"P  c #B8A382",
"I  c #BCA283",
"U  c #BAAA8F",
"Y  c #B4BD83",
"T  c #BFBE82",
"R  c #ABA39F",
"E  c #AFA19C",
"W  c #BAA090",
"Q  c #BFA797",
"!  c #B0A39F",
"~  c #BDA59D",
"^  c #B4AA9D",
"/  c #BFA898",
"(  c #BFAF98",
")  c #B9B29C",
"_  c #AFA3A0",
"`  c #AFA4A1",
"'  c #BDA7A5",
"]  c #BDAAA7",
"[  c #BAB5B5",
"{  c #C7AF86",
"}  c #C1A78B",
"|  c #C1A889",
" . c #C2AA8C",
".. c #C5AA8E",
"X. c #CAB280",
"o. c #C9B287",
"O. c #CFB882",
"+. c #CEB987",
"@. c #C7B08C",
"#. c #C4B48E",
"$. c #CDB78E",
"%. c #CEB98E",
"&. c #D0BB82",
"*. c #D3BE87",
"=. c #D4BF87",
"-. c #D3BE89",
";. c #D2BD8F",
":. c #C6AF93",
">. c #C5AF99",
",. c #C2AC9D",
"<. c #C6B193",
"1. c #C8B095",
"2. c #CBB697",
"3. c #CAB59B",
"4. c #C8B39E",
"5. c #CBB89B",
"6. c #C9B99D",
"7. c #CBBD9C",
"8. c #D1BC96",
"9. c #D0BC9A",
"0. c #C2ADA5",
"q. c #C8B4A6",
"w. c #CEBBA1",
"e. c #CDBBA6",
"r. c #C2B3AB",
"t. c #C0B5AF",
"y. c #C7BDB6",
"u. c #90CB8B",
"i. c #8FC193",
"p. c #8FC79A",
"a. c #9EDC9E",
"s. c #A3C88C",
"d. c #A9CF8D",
"f. c #B5E09A",
"g. c #D5C289",
"h. c #D8C38D",
"j. c #D9C68F",
"k. c #C2D587",
"l. c #CDDD81",
"z. c #D5C091",
"x. c #D2C096",
"c. c #D8C491",
"v. c #D8C796",
"b. c #DAC991",
"n. c #DFCA90",
"m. c #DCCA95",
"M. c #DDCD96",
"N. c #D5C29A",
"B. c #D5C39C",
"V. c #D6C59C",
"C. c #DBC99C",
"Z. c #E2CD99",
"A. c #E0CF9C",
"S. c #E1D19C",
"D. c #E9D29B",
"F. c #EDD69E",
"G. c #D8EE94",
"H. c #E3E089",
"J. c #F4F88D",
"K. c #E9F093",
"L. c #F0F49C",
"P. c #D4C3A1",
"I. c #D3C2A7",
"U. c #DAC7A0",
"Y. c #DAC9A1",
"T. c #D8C8A7",
"R. c #DECEA7",
"E. c #CDC0BB",
"W. c #CFC7BF",
"Q. c #D1C1BF",
"!. c #E4D4A2",
"~. c #E9DAA8",
"^. c #E8DDA8",
"/. c #CEC7C0",
"(. c #CFC8C0",
"). c #DDD9D1",
"_. c #DDD8D5",
"`. c #E4D9D1",
"'. c #E4E1DB",
"]. c #ECEAE6",
"[. c #FBFCFC",
/* pixels */
"f.f.f.f.f.a.a.G.G.G.G.G.H.G.G.G.G.G.G.G.G.G.G.G.G.l                     G.G.f.G.G.G.G.G.G.G.G.G.G.G.G.G.G.a.a.f.f.f.f.f.f.f.f.f.",
"f.f.f.f.f.a.a.G.G.G.G.G.H.G.G.G.G.G.G.G.G.G.G.      l l l P P l l l l M       G.G.G.G.G.G.G.G.G.G.G.G.G.G.a.a.f.f.f.f.f.f.f.f.f.",
"f.f.f.f.f.f.a.G.G.L.L.G.G.G.G.l.G.G.G.G.u t . l c l l l e l 0 l l l l l l l l * . k.G.G.G.f.G.G.G.G.G.G.G.G.f.f.f.f.f.f.f.f.f.f.",
"f.G.f.f.f.f.f.f.L.L.G.f.G.G.G.f.G.J.J.u l l l l e l e i l i i l i i i ' ' ' ' ' ' .   G.a.a.G.G.G.G.G.G.G.G.f.f.f.f.f.f.G.f.f.f.",
"G.f.f.f.f.f.f.f.a.a.a.f.f.G.L.G.G.s.. * l M 0 e e e y S  . .3.3. . .i i  .'  .p ' H l . 1 f.f.f.G.G.G.G.G.G.G.G.G.f.G.G.f.f.f.G.",
"G.G.G.G.f.f.f.f.f.f.a.i.a.G.L.L.  . l l i l e i i i i ' ' ' O.c.c.i i i i i '  .i ' ' l l   ; G.a.f.a.G.f.f.G.f.f.f.f.f.G.G.G.G.",
"G.G.f.f.f.f.f.f.f.f.a.f.f.f.G., l 0 i } O.O.$. .O. .:. . . .' ' ' ' '  . .o.O.O.i O.O.i p S * ; f.f.a.f.f.G.f.f.f.G.G.G.G.G.G.G.",
"G.G.G.f.l.f.f.f.f.f.f.f.f.f.  l i i ' c.c.i ' ' i '                        .i O.i i c.c.i i e l ; f.f.f.f.f.f.f.G.G.G.G.G.G.G.G.",
"G.G.G.G.f.f.f.f.f.f.f.f.f.1 S p O.p c.c.O.c.y O . . @ S B ' Q   ' / 5.@ S . . : O.V c.c.-.O.p S * t J.f.G.f.G.f.G.G.G.G.G.G.G.G.",
"G.G.G.G.G.G.f.f.G.G.G.f.f.. i i c.S c.c.l i . l S ' S ' &.i  .l ' i b.S ' S ' l   l i c.O.c.i i S l t f.f.f.f.f.G.G.G.G.G.G.G.G.",
"G.G.G.G.G.G.G.G.f.G.G.d.  l i c.i  .i } l l S '  .i S ' S.b.i ' i b.b.' ~.i ' '   & l c. .i c.i S l u G.G.G.f.f.G.f.G.G.G.G.G.G.",
"G.G.G.G.G.G.f.f.f.a.a.f l S O.$. .O.O.l . S H &.g.~.5.i S.i s ' i &.b. .~.b.&.s . H S l O. .$.O.:.l . G.G.f.G.G.G.f.G.G.G.G.G.G.",
"G.G.G.G.G.G.f.a.f.G.J.J l  .c.O.c.O.l l   b.i b.b.b.&.i S.i &.' i &.b.i ~.b.b.&.l  .' l } c.O.c. .i . G.f.f.f.G.f.G.G.G.G.G.G.G.",
"G.G.G.G.G.f.G.J.f.G.J.J i  .c.i O.{ . g l S.s ~.b.i &.i m.i 5.' ' s b.i S.&.b.&.e i  .' B O.i c.O.' z G.G.f.f.f.f.G.G.G.G.G.G.G.",
"G.G.G.G.G.G.J.J.G.J.G.J i O.i i c.. l ..i ~.&.~.S.i q.l c.I.&.' i B.b.S I.&.' S.i m.Z.i S c.i i i c.z G.f.f.f.f.G.G.G.G.G.G.G.G.",
"G.G.G.L.G.f.G.f.f.f.f.J O.-.i i c.. S | ' ~.=.S.S.i >.l c.I.o.' &.V.b.S $.&.I.M.i &.d  .S c.i i c.O.z f.d.d.f.a.a.f.G.G.G.G.G.G.",
"G.G.G.L.f.f.f.a.f.f.f.J c.O.i i c.. i S l ~.&.b.S.i ' l &.b.' l ' b.i S ' &.b.b.i 5.i ' e c.i i c.i z d.a.f.f.J.G.a.G.G.G.G.G.G.",
"G.G.G.f.f.f.G.G.a.G.G.J c.c.c.-.c.. S y l &.%.b.g.i ' l &.I.9.l $.V.i S ' &.&.9. .o.i i S c.-.c.c.c.z a.f.f.f.J.G.f.f.G.G.G.G.G.",
"G.G.f.f.f.f.G.G.G.G.f.J c.O.c.c.i . ' e   i  .i &.i  .  I.I.I.l I.I.I.l i &.i $.l b.i ' S i c.c.c.i z f.K.a.G.G.J.G.G.G.G.G.G.G.",
"G.f.f.f.G.G.G.G.G.a.f.J c.O.c.O.i . l /    .'  . . .W   0.' ,.. q.0.' * e  . .I l >. .' . O.O.c.-.i z K.K.K.f.G.f.J.J.J.G.G.G.G.",
"G.G.G.G.G.G.f.G.G.f.f.J c.O.i O.i                                                         c.O.i O.i z G.K.G.K.G.f.J.J.f.G.G.G.G.",
"G.G.G.G.G.f.f.f.f.f.f.J c.O.c.O.c.. l l l l l l l l l l l l l l l l l l l l l l l l l l l c.O.'  .' z + T K.G.G.G.a.a.f.G.G.G.G.",
"L.G.G.G.G.G.L.G.G.f.f.J c.-.O.-.i < O.m.A.A.A.A.A.A.A.A.A.A.A.A.A.A.A.A.A.#.q q q q q q = h b h h h - ! ^ G.K.f.G.f.f.G.G.G.G.G.",
"G.G.H.L.L.J.G.f.G.f.G.J c.O.i O.i & ' S ' i i i i c.i c.O.c.O.c.i 3.' ' l R [.[.[.].).).).).).).).).o ).! K.G.f.a.a.a.f.G.G.G.G.",
"G.f.f.L.J.G.L.L.f.G.G.J c.a i O.i @ S p i h.m.h.h.O.-.A.-.O.O.O.O.a  .8 R )././.D _ 6 (.W./.m k D (.o ).! K.K.f.f.a.a.f.G.G.G.G.",
"f.G.G.f.f.f.l.f.G.G.G.J c.O.i O.i & ' ' i i O.~.c.i  .' ' ' ' ' ' ' i l X ].[.).t.` t.t.0.).t.k t.t.o ).! K.G.f.f.f.f.f.G.G.G.G.",
"G.G.G.a.f.f.f.f.G.f.f.J ~.O.A.O.i & l /  . .i O.O.c.-.c.c.3. . .3.3.} V e G Q.Q.Q.r.r.r.E E.E.E.E.E.- ).A f.G.f.f.G.G.f.f.G.G.G.",
"l.G.G.G.a.J.f.f.f.G.f.J ~.O.~.O.i                                                         ' O.' 3.' z + ! f.G.G.f.G.G.G.J.G.G.G.",
"l.p.G.G.f.f.a.G.G.G.G.J ~.-.~.a i . S ~   q.~ 5.3.q.g ' <. ./ l  ./ ' 3 l S S S   S S S * ' P.q.e.' z + L G.G.G.G.G.G.G.G.G.G.G.",
"p.G.p.f.a.f.a.f.f.f.f.J ~.c.~.O.i . l $.l I.q.b.b.I.Q i V.i  .l i r ' l ' V.i  .   .' ' S I.I.I.I.I.z G.G.f.G.G.G.G.G.a.G.G.G.G.",
"G.G.G.G.f.a.f.f.G.G.G.J ~.*.A.O.i @ } 3.l &.e.&.x.I.>.h.b. .&.' e 5.b.S  .V.I.;.l +.I.q.B R.+.~.O.I.z G.f.6.G.f.G.f.f.G.G.G.G.G.",
"G.G.G.J.G.G.G.J.J.J.G.J c.A.c.O.i . ' I.l b.$.~.V.I. .i S.i  .' l q.c.S i S.I.h.l I.i ~.e c.O.~.O.i z a.6.6.G.G.G.G.G.G.f.f.f.G.",
"G.G.G.G.G.G.f.f.f.G.f.J c.O.i O.i & l c.l ^.V.b.B.I. .i S.i  .' ' q.c.S I.&.I.V.i c.I.b.e i A.c.O.i z 7.7.v.6.G.7.G.7.G.G.G.G.G.",
"G.G.G.f.J.G.G.f.f.f.f.J c.n j w c.@ } 4.S b.P.b.B.i  .i S. .&.'  .w.c.S I.&.' P.i I.B.b.e O.A.O.c.B.z 7.7.f.6.6.G.7.7.f.f.G.G.J.",
"G.G.G.f.J.a.a.G.G.f.G.J c.R t.5 c.. n.B.l b.I.b.B.i  .i S.i &.' i B.c.S I.&.' I.i B.n.b.e c.A.i B.I.z f.7.f.Z.7.7.f.f.G.G.G.J.G.",
"G.G.G.G.G.G.J.J.G.G.G.J c.R t.5 c.& 3.%.' I.&.b.h.i  .=.n.e %.' &.V.b.S $.&.I.M.&.&.d  .e i !.i ;.I.z v.f.f.G.G.G.f.f.f.f.f.f.f.",
"G.G.G.G.G.G.J.f.f.f.G.J c.R t.q c.& i &.l ~.&.b.A.i e ' b.b.' ' ' b.i S ' h.~.b.i 5.i ' e i A.i B.' z Z.G.f.G.f.J.f.f.f.f.a.f.G.",
"G.G.G.G.f.J.f.f.G.G.G.J  .U q ] c.&  .p l ~.&.i g.$.S V.v.i I.' $.V.i S ' =.&.9.i o.i i S i A.i $.' z G.G.f.f.f.J.f.f.f.f.f.G.G.",
"G.G.G.G.f.f.f.f.G.G.G.J I.3.I.' c.& I.5.l b.&.i &.I.Q ' V.i I.l i I.I.S i &.i V.l b.i ' S c.O.i V.I.z G.F.F.f.J.f.f.f.f.f.f.f.f.",
"G.G.G.f.f.f.f.f.G.G.a.J $.T.B.3.c.. ' S . I.9.Q 4.I.. S e. .0.l q.0.' @  . . . .. >. .' . c.o. .a $.z F.F.D.f.f.a.a.G.G.G.G.G.G.",
"G.G.f.f.f.f.f.f.f.G.f.J i c.c.$.c.            l l                     . l l l           . ~.3.'  .c.z + G.L.L.f.J.G.G.f.G.G.G.G.",
"G.f.f.a.G.G.f.G.a.f.f.J i A.c.X.c.@ S V } 1.1.1...} } } } } } } } } } } } } } V e e e e l ~.8.3.C.I.x ! K G.G.J.G.f.f.f.G.G.G.G.",
"f.f.f.a.G.G.a.f.f.f.G.J ~.c.c.i c.& i A.~.~.~.~.~.~.~.~.~.~.~.~.~.~.~.~.c.q X X X X X X X X X X X X o `.! f.f.G.f.f.G.G.G.G.a.G.",
"f.f.f.u.f.f.f.f.f.a.G.J ~.O.c.$.c.. '  .i i O.i i i O.c.O.i i i i i i i X /.t.t.).).).).).).).).).).o `.) G.f.f.G.G.G.f.G.G.G.G.",
"a.a.G.G.G.f.G.a.f.a.G.J ~.O.c.$.c.@ S  .i h.m.~.A.O.$.I.3.3.3.3.3.:. .4 R ]._.'./.y././.E r.W.).Z W.o `.) G.G.a.G.G.G.f.G.G.G.u.",
"G.G.G.G.f.G.G.J.f.G.f.J ~.O.c.$.c.. l ' ' ' i c.c.c.O.c.c.' ' ' c.c.c.O.i [ [.).).).).).).).).).).).o `.) G.G.G.G.G.G.G.G.G.G.G.",
"G.G.G.G.G.G.J.J.G.f.f.J ~.*.I.@.c.. S I O.O.*.h.*.A.O.O.O.O.i i ' :.e S S 7 = = = = = = % h h h h h - `.! G.G.G.G.G.G.G.G.G.G.G.",
"G.G.G.G.G.G.G.f.f.G.G.J ~.O.I. .c.. ' l   l l l q.' . l ' ' S   ' q.' # ' R.b.V.  i ' l & ' B.' q.' z + Y G.G.G.G.G.G.G.G.G.G.G.",
"G.G.G.G.G.a.G.G.G.f.f.l i a $.B.c.. S >.  S 0.i +.I.F I.w.I.0.  V.Y.b.0 ~.V.i V.. $.I.I.> q.I.I.I.q.z a.G.G.G.G.G.f.G.G.G.G.G.G.",
"G.G.G.L.G.G.G.L.f.a.a.l i i i q.c.. i e l I.$.b.&.I.Q I.A.I.I.  b.V.b.e ~.R.i h.l $.I.I.> I.$.~.O.I.z f.a.G.G.G.f.f.G.G.G.G.G.f.",
"G.G.G.L.L.G.G.f.L.f.f.l c.' i -.c.. S e S I.$.b.j.&.4.Z.z.B.v.l I.Y.&.e ~.V.i <.S X.I.i > R.O.A.O.I.z f.a.J.J.G.f.f.f.f.f.f.f.f.",
"G.i.i.i.i.a.G.G.G.f.f.l c.c.I.q.( . ' e l ' U.b.R.b.$.~.U.I.S.' ~.5.i q.~.V.I.R.i B.~.I.> i A.c.O.i z f.a.G.G.f.f.f.f.f.f.f.f.f.",
"i.i.f.i.f.f.a.f.f.f.f.l ~.A.A.;.I.. Q 3.l ' U.b.I.B.e ~.g.V.~.l b.9.i Q ~.&.q.V.S B.I.b.$ O.A.i ;.I.z f.G.G.G.f.f.f.f.f.f.f.f.f.",
"f.f.f.f.f.f.f.f.f.f.f.l ~.A.c.B.' . ' Q   ' R.b.B.c.| ~.&.' S.l b.V.i Q ~.&.' I.l I.c.b.& i A.i O.I.z G.f.f.f.f.f.f.G.G.G.G.G.i.",
"f.f.f.f.i.i.f.f.f.f.f.l ~.A.c.$.' . l S   ' R.b.B.c.e ' V.' b.l i I.I.S ~.&.' I.l B.n.b.O i ~.i B.I.z f.f.f.G.f.G.G.G.G.G.G.G.G.",
"f.f.f.f.f.f.f.f.f.f.f.l ~.A.I.N.q.. S v   S Q | V | 2 } >.' |   ' q. .* 1.<.$.3.. <.2.S : i c.i 8.' z f.f.f.f.G.G.G.G.G.G.G.G.G.",
"G.f.f.f.f.f.G.f.J.f.f.l ~.A.I.B.I.                                                      e c.O.i V.I.z f.f.f.f.G.G.G.G.G.G.G.G.G.",
"G.G.G.G.f.G.G.f.f.f.f.l ~.B.I.-.O.9 h.h.A.A.A.A.A.A.A.~.A.A.A.A.A.h.O.m.O.h.h.m.h.m.O.O.e c.i i s I.z G.f.f.f.f.f.G.G.G.G.G.G.G.",
"G.G.G.G.f.f.f.G.f.f.a.l ~.B.I.O.c.} c.~.~.~.~.~.~.~.~.~.~.~.~.~.~.~.~.~.~.~.~.~.~.~.~.~.e c.3.' O.i z G.G.f.f.f.G.G.G.G.G.G.G.G.",
"G.G.G.u.f.f.G.G.G.G.f.l R.N.c.a 3.N  .' 3.3.3. .3.3.3.3.$.' S ' I.*.O.3.3.$.O.$.3.:. .3.C ~.8.3.9.B.z G.G.G.G.G.G.G.G.G.G.G.G.G.",
"f.G.u.f.f.f.f.G.G.G.G.l ~.i c. .' } ' l ' i i i O.i i i i i . l i c.c.c.i i c.c.c.e l c.S I.O.i I.I.z G.G.G.G.G.G.G.G.G.G.G.f.f.",
"f.f.p.f.f.f.f.f.G.G.G.l I. .c.o.l } e . S  .a e V i $.3.3.3.3 S h.h.h.O.A.A.A.A.i g &  .S I.h.O.9.' z f.f.G.G.G.G.G.G.G.G.G.G.f.",
"f.f.f.f.f.f.f.f.f.G.G.l ' S ' S l e ' i ' i O.c.c.c.e l i i ' ' c.c.c.O.i i i i i e i i S ' ' ' ' ' z f.f.G.G.G.G.G.G.G.G.G.G.G.",
"f.f.f.f.f.a.a.G.G.G.G.l l l l l l l i i i i e l l l l l l l l l l l l l l l l l l l l l l l l l l l z G.G.a.a.f.f.f.f.f.f.f.f.f."
};
