/* XPM */
static char *e972aab20f1e4238a0c919fcf941e43fVHWOHqPGXTv0b4DK[] = {
/* columns rows colors chars-per-pixel */
"64 64 78 1 ",
"  c #4A5F6E",
". c #A53D4A",
"X c #B95966",
"o c #493DA5",
"O c #6459B9",
"+ c #C77B85",
"@ c #847BC7",
"# c #BBB096",
"$ c #D0BD8C",
"% c #C0B29A",
"& c #C1B499",
"* c #C4B69A",
"= c #CABB9A",
"- c #C8BC9E",
"; c #E0A489",
": c #E7BBA6",
"> c #ECBAB5",
", c #D5C08D",
"< c #D8C38F",
"1 c #DBC590",
"2 c #DAC597",
"3 c #DCC897",
"4 c #DFCA9A",
"5 c #E1C990",
"6 c #E0CA99",
"7 c #E0CC9B",
"8 c #E0CC9F",
"9 c #E4CF9C",
"0 c #E5D19B",
"q c #E3D19F",
"w c #E5D09F",
"e c #E8D19A",
"r c #E8D29C",
"t c #EAD59C",
"y c #EDD59D",
"u c #F0DB9F",
"i c #E4D0A0",
"p c #EBD5A1",
"a c #EDD7A0",
"s c #ECD7A6",
"d c #EFDBA2",
"f c #EDD8A7",
"g c #EEDAA8",
"h c #EEDCA8",
"j c #F1D8A0",
"k c #F1DCA0",
"l c #F3DDA7",
"z c #F2DBA8",
"x c #F2DEAA",
"c c #F5DFAA",
"v c #F7DFAC",
"b c #ECCEB1",
"n c #EDD5B1",
"m c #EFD8B4",
"M c #F2D9B7",
"N c #F4DCBB",
"B c #F7DCBA",
"V c #F3E2A9",
"C c #F6E0AB",
"Z c #F7E1AC",
"A c #F9E3AF",
"S c #FBE3B1",
"D c #FAE4B0",
"F c #FCE7B3",
"G c #FDE9B1",
"H c #FFECB4",
"J c #FFF0BB",
"K c #FFF2BE",
"L c #BA89E0",
"P c #CCA6E7",
"I c #BDF4CF",
"U c #EECFC2",
"Y c #FBEFCF",
"T c #FEEECE",
"R c #FFFFCA",
"E c #F3E0D6",
"W c #DBC2EE",
"Q c #E6D5F3",
/* pixels */
"xxxxxtay-7xyyy0xx7yyy77xuxxxx7777xxx2777xkxxx6xxxyyyyx70077xyx7x",
"xxx27yyy77x7yyyy7yyy7yydyy77xxxxxxx77ee77kk66exxyyyyxxxx777xxxxx",
"xxx7euy33yy7xyyyy6yWWLyyyy7xxxxxx22xeeeyr6ykxxxxxxyyyyxx77xxxxx7",
"22xee03yyy9yxyyxxxWPLLLyxy7xxxx7227xy7ereee6xxxxx7xxxkxu77xxxxx0",
"27xy7yyyyyxuxyxxxWPPPLL@yyyyxxxx0777737yrreyyxxxxxx7xxxyu7uuxxx0",
"777732y0uxxuxxxxx@@PPPP@OPPuu0770777yy7rryyyyxxxx77xxxxuyexuxxyx",
"x77yyyyykyxyxxWWPLOOP@OOPLLLx007ee77ry77rxxyx7x8y7y7yx77xuyey7yx",
"xx7ryyyxkyyxxxQPPPLON>oL@@LOxx0yyyyp77xy7xyyx788yyy77xdddexxxxxx",
"xxx77yxxxkyxyyNPL@@O>>oOO@@ uxx0-x-yydxyyyyxxy7yyyeyyx6dxxxxxxxu",
"xxxyd;E;;xyy1y@NL@OOOoO@OO  0uxxxxypxxx-xx22xy7y77&yexuyxxxxxxxy",
"fifx;EUU;;+j77y@@O@@@OL@@@O00yxyxxxxxAA7xx2xy7y776yxye6yxxxyxxyx",
"wfqf+U:;;;;+j7yy@PPL@OPLL@OkxyyxxxxAAAx777x7777&&6&xyxxxxxyyxyyd",
"xwqf+:::;;++;;kkNPLL@OOWL@OxxNNNAAAAd77777y7777r&666y767xx7y777x",
"x;;++++:;++X::;7@NNQOOOOOO xxNAAAAA77770007y7k7ryy666xx77x7y7uxx",
"bUU:+XX++XX:;;;+jOO@  0   NxxAAAAA77777770y777kr7yyyxy7yyyxy0xxx",
"+E:;;+XN>.;++;+;y-xxxx00xxNNNAAA777777770yuuu7TT&Ty6xx7yyy77xxx7",
"+N:;++X>>.XX++X 0j-xNWWLxxxxAA2777707770001uyxx0T2x2xxx77yyxx77x",
";+NE+XXX.X+XXX  00x-WPLLLAAAA27777000000y1xuuxyy0x22xxx7777yy70x",
"7;++X+++X;+++X xx0xWPPPLL@xx22777007y00000x157x0xxx7xxx77e-yuyyx",
"y7;E:;++XE;;+X xNNN@@LLL@@OPP77700000000xxxy7x077x7x7xxxxx-uyux5",
"x7;N:;;+XXIU+X -WWPLOO@@OOPLLL0000000000xxyxx077x777777-x-exxxxy",
"xx;+NNEX XXXX  xQPPPLON>oL@@LO0000-y0yxxxxx7yx7yyy7777-xx-xxxxx5",
"ex%;XXX       yxNPL@@O>>oOO@@O707000xyxx7x777yYy,777y7x55x7xxx7x",
"exxx    kxx7xxyy@NL@OOOoO@OO 000-0000x0xxxx7xYYy,777y7y5y7xxxx7e",
"kxxxxyyxkyrxyyxAA@@O@@@OL@@@O000x00000xxuxxyY,,,,77yy15x5yxxx3xx",
"xxxxx7yx0xerxxxA77@PPL@OQLL@Oy0ukxxx0xxuuxx7,,,,7,7yyyxxxx7733yx",
"xkxxx7y7yyeyxKx777NPLL@OONL@O00kuuxuuxzkky77y,,,xxx7xx55e777x73x",
"xxxxxy7x6ye0rK7770@NNQOOOOOO00yy0xxxjcvMxy-y7,,,,xxxxxxxxxu77xye",
"xxxxxy777y360733077OO@    <yyykxuxxxxCFRiey9-,,xxxxxx07dx77uxxyy",
"xxxxxe76ye777y3007006y6yyy<yyxxxxxxxCGRA7e---7dyxyxxxx70xx7y7xy7",
"xxxxxx67773y0y30700T$y$66<<xxyxVxxxcSJAA69997dxyxyx777777xxx77yy",
"xxxxxx7777yyyy3000$$$y$dd<7xxxxaxxcAGAA906xxxxxxxxxNA7x7007777yr",
"xxxxxxxu77xyyyy000y$$yyy7<<xxxkxxcADAA27xxxxxxxxuAAAAx70077xyx77",
"xxx27x77uxxyyyx0377$$$77<<<xxkahnmSAA277yyxxxxxxNAAAx7xx777xxxxy",
"xxx7exx7y7xyyyx0077$y77u<<kkxafzCSKAA700-yxAAANAAAAxx6xx77xxxxxy",
"22xee7xxx77yyyyy07y$yyyyukkyyssxAAAA27xy-xxxxNNAAxy6y0xu77xxxxxx",
"27xy7007777yxyxy077u77yyukx*aslAAAAA77yyxxxxNAAAA7yydyxyu7uuxxxx",
"77773077xyx7yxyx0077677uyux=8gvGAAA2677xxxxNAAAuxy7yddxuyexuxxyx",
"x77yy777xxxxyyx-x07777yxxxxppvDAGAA667yxxxyAAA7yyuy7dx77xuyey7yx",
"xx7ry77xxxxxexxx7777777yxxgsxAAAAA677yxyxx7AA777y16dxxdddexxxxxy",
"xxx7777xxxxxeeyyy7777yy77xfxAAAFg2007yyyxxxA071y11ddxx6dxxxxxxx7",
"xxxydu7uuxxxyyxxyyy67yy7xxxCAAHf270wyyyyxxNAx101177xxxuyxxxxxxx7",
"fifxxyexuxxyxxyxy77x6y7xxxxAAKfi77yw0yyyyNAAeyy10x7xxx6yxxxyxxy7",
"wfqfAxuyey7yyyxy4y6yx7y7qChAADr27777yyexyNAAe00y07xxxxxxxxyyxyy7",
"xwqfqdexxxxyyyy74xyyxxxxcxCAAp77777e7xeyxNAeyyyxxxxxxx67xx7y777u",
"x7777xxxxxxy7y76xxxxxxxxxifZfps737yy7exxxNe7kyyxxxxx0Ax77x7y7uxy",
"xxx77xxxxxy3y7y66xxxxxxx7apfafy37777707xxxke7kxxxxxxAA7yyyxy0xxu",
"xy7y7xxxyxxyyy77xyyxxxx7x7aayyk77y7x700yx77%%7xxxxxAA77yyy77xxx5",
"777yyxxyyxyyyy6yyyyxxxxxxy7yyy7k7xxxxyxyy7ee7eexxxAAAxx77yyxx77x",
"y77yexx7y7777yyyyyxx7777yykypykkkx7yxxyxxx%wwx7xxxAAAxx7777yy707",
"77yyyxxxxxuuxyy0x22xxxx77e-yuyye77yyyxxxxxuuxyy0x22xxxx77e-yuyyx",
"y747y77xyxx57x0xxx7xx7xxxx-uyuxxy767y77xyxx57x0xxx7xx7xxxx-uyuxe",
"x777xy7yyx7xx077x7x7x77-x-exxxxxx777xy7yyx7xx077x7x7x77-x-exxxx6",
"xxx%77yyx777777x777777-xx-xxxxxxxxx%77yyx777777x777777-xx-xxxxxy",
"ex%xxyyx777x77yyy77777x55x7xxx7kex%xxyyx777x77yyy77777x55x7xxx7y",
"exxxxxxyx77eyey,777y77y5y7xxxx7kexxxxxxyx77eyey,777y77y5y7xxxx7y",
"kxxxxyyxx776700,777y7y5x5yxxx3xkkxxxxyyxx776700,777y7y5x5yxxx3x0",
"xxxxxxxxxxxyy77,77yy1yxxxx7733yxxxxxxxxxxxxyy77,77yy1yxxxx7733yu",
"xkxxxxxx7xyy6uxx,7yyyy55e777x73xxkxxxxxx7xyy6uxx,7yyyy55e777x73y",
"xx67yxxxxxxx47x77yy7uuxxxxxx7777yu7xxxx777x7007777yxx7xyx7x---e7",
"xx#7yxxxxxx7yy7y77yu7xxxxxx7x70yyyxxxxx77770077xyx7x7yyy7x7---7y",
"xr0yxyxxxxx7770xxyyyyxxxxx77700x6xxxxxx777xx777xxxxxxxx777x--e7e",
"070kxAxxx2777xkxxx6xxxxxx777xx76exxDxxxxx7xx77xxxxxx67y777x7yuuu",
"xrrkAAxxx7ee77kk66exxxxxxxx7xx7xxxxDxxxxx7xu77xxxxxxx66x07yy7xuy"
};
