/* XPM */
static char *b20a687256d44aa3eb2b1ea32e1e4efaLxtIXuVrpfFnG88f[] = {
/* columns rows colors chars-per-pixel */
"64 64 77 1 ",
"  c #4A5F6E",
". c #A53D4A",
"X c #B95966",
"o c #493DA5",
"O c #6459B9",
"+ c #C77B85",
"@ c #847BC7",
"# c #BBB096",
"$ c #D0BD8C",
"% c #C0B29A",
"& c #C1B499",
"* c #C4B69A",
"= c #CABB9A",
"- c #C8BC9E",
"; c #E0A489",
": c #E7BBA6",
"> c #ECBAB5",
", c #D5C08D",
"< c #D8C38F",
"1 c #DBC590",
"2 c #DAC597",
"3 c #DCC897",
"4 c #DFCA9A",
"5 c #E1C990",
"6 c #E0CA99",
"7 c #E0CC9B",
"8 c #E0CC9F",
"9 c #E4CF9C",
"0 c #E5D19B",
"q c #E3D19F",
"w c #E5D09F",
"e c #E8D19A",
"r c #E8D29C",
"t c #EAD59C",
"y c #EDD59D",
"u c #F0DB9F",
"i c #E4D0A0",
"p c #EBD5A1",
"a c #EDD7A0",
"s c #ECD7A6",
"d c #EFDBA2",
"f c #EDD8A7",
"g c #EEDAA8",
"h c #EEDCA8",
"j c #F1D8A0",
"k c #F1DCA0",
"l c #F3DDA7",
"z c #F2DBA8",
"x c #F2DEAA",
"c c #F5DFAA",
"v c #F7DFAC",
"b c #ECCEB1",
"n c #EDD5B1",
"m c #EFD8B4",
"M c #F2D9B7",
"N c #F7DCBA",
"B c #F3E2A9",
"V c #F6E0AB",
"C c #F7E1AC",
"Z c #F9E3AF",
"A c #FBE3B1",
"S c #FAE4B0",
"D c #FCE7B3",
"F c #FDE9B1",
"G c #FFECB4",
"H c #FFF0BB",
"J c #FFF2BE",
"K c #BA89E0",
"L c #CCA6E7",
"P c #BDF4CF",
"I c #EECFC2",
"U c #FBEFCF",
"Y c #FEEECE",
"T c #FFFFCA",
"R c #F3E0D6",
"E c #DBC2EE",
"W c #E6D5F3",
/* pixels */
"xxxxxtay-7xyyy0xx7yyy77xuxxxx7777xxx2777xkxxx6xxxyyyyx70077xyx7x",
"xxx27yyy77x7yyyy7yyy7yydyy77xxxxxxx77ee77kk66exxyyyyxxxx777xxxxx",
"xxx7euy33yy7xyyyy6y77yyyyy7xxxxxx22xeeeyr6ykxxxxxxyyyyxx77xxxxx7",
"22xee03yyy9yxyyxxxx777yyxy7xxxx7227xy7ereee6xxxxx7xxxkxu77xxxxx0",
"27xy7yyyyyxuxyxxxxxx77xxyyyyxxxx0777737yrreyyxxxxxx7xxxyu7uuxxx0",
"777732y0uxxuxxxxxx7xxx7yyyuuu0770777yy7rryyyyxxxx77xxxxuyexuxxyx",
"x77yyyyykyxyxxxxxx7eeyyyyuuux007ee77ry77rxxyx7x8y7y7yx77xuyey7yx",
"xx7ryyyxkyyxxx77xx7yuy474u7uxx0yyyyp77xy7xyyx788yyy77xdddexxxxxx",
"xxx77yxxxkyxyyx707k7yue77700uxx0-x-yydxyyyyxxy7yyyeyyx6dxxxxxxxu",
"xxxyduyxyxyy1y17070yk66000k00uxxxxypxxx-xx22xy7y77&yexuyxxxxxxxy",
"fifxxyyyxxxj77yy7y0xxxxu00000yxyxxxxxZZ7xx2xy7y776yxye6yxxxyxxyx",
"wfqfZyx17xx7j7yy70yyxxxyyx0kxyyxxxxZZZx777x7777&&6&xyxxxxxyyxyyd",
"xwqfqdu7u77777kkxxy00yxxxxyxxNNNZZZZd77777y7777r&666y767xx7y777x",
"x7777yyy777777j7xxxy00xxxxxxxNZZZZZ77770007y7k7ryy666xx77x7y7uxx",
"xxx77yyu7777jkk7jxxyy00xxxNxxZZZZZ77777770y777kr7yyyxy7yyyxy0xxx",
"xy7y7xy7yy770000y-xxxx00xxNNNZZZ777777770yuuu7YY&Yy6xx7yyy77xxx7",
"777yyyyyy74k02200j-xNNyxxxxxZZ2777707770001uyxx0Y2x2xxx77yyxx77x",
"y77yeyyy77740yyy00x-NxNNZZZZZ27777000000y1xuuxyy0x22xxx7777yy70x",
"77yyy77yyyyy0xxxx0xxxNNZZZxx22777007y00000x157x0xxx7xxx77e-yuyyx",
"y747yx67yy4y027xNNNNNNZZx777777700000000xxxy7x077x7x7xxxxx-uyux5",
"x777xx#77x00072-NxxZZZZ33777770000000000xxyxx077x777777-x-exxxxy",
"xxx%7r0y74y0007xxNZZZx777777000000-y0yxxxxx7yx7yyy7777-xx-xxxxx5",
"ex%xx70kxx7y00yxxZZZ7777777700707000xyxx7x777yUy,777y7x55x7xxx7x",
"exxxxrrkkxx7xxyyZZZ7777700770000-0000x0xxxx7xUUy,777y7y5y7xxxx7e",
"kxxxxyyxkyrxyyxZZZ7777e007000000x00000xxuxxyU,,,,77yy15x5yxxx3xx",
"xxxxx7yx0xerxxxZ7777777000000y0ukxxx0xxuuxx7,,,,7,7yyyxxxx7733yx",
"xkxxx7y7yyeyxJx777700000000y000kuuxuuxzkky77y,,,xxx7xx55e777x73x",
"xxxxxy7x6ye0rJ7770770000000000yy0xxxjcvMxy-y7,,,,xxxxxxxxxu77xye",
"xxxxxy777y360733077000y00y<yyykxuxxxxVDTiey9-,,xxxxxx07dx77uxxyy",
"xxxxxe76ye777y3007006y6yyy<yyxxxxxxxVFTZ7e---7dyxyxxxx70xx7y7xy7",
"xxxxxx67773y0y30700Y$y$66<<xxyxBxxxcAHZZ69997dxyxyx777777xxx77yy",
"xxxxxx7777yyyy3000$$$y$dd<7xxxxaxxcZFZZ906xxxxxxxxxNZ7x7007777yr",
"xxxxxxxu77xyyyy000y$$yyy7<<xxxkxxcZSZZ27xxxxxxxxuZZZZx70077xyx77",
"xxx27x77uxxyyyx0377$$$77<<<xxkahnmAZZ277yyxxxxxxNZZZx7xx777xxxxy",
"xxx7exx7y7xyyyx0077$y77u<<kkxafzVAJZZ700-yxZZZNZZZZxx6xx77xxxxxy",
"22xee7xxx77yyyyy07y$yyyyukkyyssxZZZZ27xy-xxxxNNZZxy6y0xu77xxxxxx",
"27xy7007777yxyxy077u77yyukx*aslZZZZZ77yyxxxxNZZZZ7yyEEKyu7uuxxxx",
"77773077xyx7yxyx0077677uyux=8gvFZZZ2677xxxxNZZZuxy7ELKKKyexuxxyx",
"x77yy777xxxxyyx-x07777yxxxxppvSZFZZ667yxxxyZZZ7yyuELLLKK@uyey7yx",
"xx7ry77xxxxxexxx7777777yxxgsxZZZZZ677yxyxx7ZZ777y1@@LLLL@OLLxxxy",
"xxx7777xxxxxeeyyy7777yy77xfxZZZDg2007yyyxxxZ071EELKOOL@OOLKKKxx7",
"xxxydu7uuxxxyyxxyyy67yy7xxxVZZGf270wyyyyxxNZx10WLLLKON>oK@@KOxx7",
"fifxxyexuxxyxxyxy77x6y7xxxxZZJfi77yw0yyyyNZZeyyNLK@@O>>oOO@@ xy7",
"wfqfZxuyey7yyyxy4y6yx7y7qVhZZSr27777yy;R;;ZZe00@NK@OOOoO@OO  yy7",
"xwqfqdexxxxyyyy74xyyxxxxcxVZZp77777e7;RII;;+yyyx@@O@@@OK@@@O777u",
"x7777xxxxxxy7y76xxxxxxxxxifCfps737yy7+I:;;;;+yyxx@LLK@OLKK@O7uxy",
"xxx77xxxxxy3y7y66xxxxxxx7apfafy377777+:::;;++;;xxNLKK@OOEK@O0xxu",
"xy7y7xxxyxxyyy77xyyxxxx7x7aayyk77y;;++++:;++X::;x@NNWOOOOOO xxx5",
"777yyxxyyxyyyy6yyyyxxxxxxy7yyy7k7bII:+XX++XX:;;;+xOO@  7   xx77x",
"y77yexx7y7777yyyyyxx7777yykypykkk+R:;;+XN>.;++;+;xZZZxx7777yy707",
"77yyyxxxxxuuxyy0x22xxxx77e-yuyye7+N:;++X>>.XX++X 22xxxEEKe-yuyyx",
"y747y77xyxx57x0xxx7xx7xxxx-uyuxxy;+NR+XXX.X+XXX  x7xxELKKK-uyuxe",
"x777xy7yyx7xx077x7x7x77-x-exxxxxx7;++X+++X;+++X x7x7ELLLKK@xxxx6",
"xxx%77yyx777777x777777-xx-xxxxxxxxx;R:;++XR;;+X 7777@@KKK@@OLLxy",
"ex%xxyyx777x77yyy77777x55x7xxx7kex%;N:;;+XXPI+X yEELKOO@@OOLKKKy",
"exxxxxxyx77eyey,777y77y5y7xxxx7kexx;+NNRX XXXX  7WLLLKON>oK@@KOy",
"kxxxxyyxx776700,777y7y5x5yxxx3xkkxxx;XXX       ,7NLK@@O>>oOO@@O0",
"xxxxxxxxxxxyy77,77yy1yxxxx7733yxxxxxx    xxyy77,7@NK@OOOoO@OO yu",
"xkxxxxxx7xyy6uxx,7yyyy55e777x73xxkxxxxxx7xyy6uxx,7@@O@@@OK@@@O3y",
"xx67yxxxxxxx47x77yy7uuxxxxxx7777yu7xxxx777x7007777y@LLK@OWKK@Oe7",
"xx#7yxxxxxx7yy7y77yu7xxxxxx7x70yyyxxxxx77770077xyx7NLKK@OONK@O7y",
"xr0yxyxxxxx7770xxyyyyxxxxx77700x6xxxxxx777xx777xxxx@NNWOOOOOOe7e",
"070kxZxxx2777xkxxx6xxxxxx777xx76exxSxxxxx7xx77xxxxxxOO@    7yuuu",
"xrrkZZxxx7ee77kk66exxxxxxxx7xx7xxxxSxxxxx7xu77xxxxxxx66x07yy7xuy"
};
