/* XPM */
static char *_0efde30eda144c3a40d24c67cb673bcoRxZS5qXiGZWlSj1[] = {
/* columns rows colors chars-per-pixel */
"64 64 77 1 ",
"  c #4A5F6E",
". c #A53D4A",
"X c #B95966",
"o c #493DA5",
"O c #6459B9",
"+ c #C77B85",
"@ c #847BC7",
"# c #BBB096",
"$ c #D0BD8C",
"% c #C0B29A",
"& c #C1B499",
"* c #C4B69A",
"= c #CABB9A",
"- c #CBBD9C",
"; c #E0A489",
": c #E7BBA6",
"> c #ECBAB5",
", c #D5C08D",
"< c #D8C38F",
"1 c #DBC590",
"2 c #DAC597",
"3 c #DCC897",
"4 c #DFCA9A",
"5 c #E1C990",
"6 c #E1CB9A",
"7 c #E0CC9B",
"8 c #E0CC9F",
"9 c #E4CF9C",
"0 c #E5D19B",
"q c #E2D09E",
"w c #E5D09F",
"e c #E9D29B",
"r c #E8D29C",
"t c #EAD59C",
"y c #EDD69E",
"u c #F0DB9F",
"i c #E6D2A2",
"p c #EAD6A0",
"a c #EDD7A1",
"s c #EDD7A6",
"d c #EFDBA2",
"f c #EDDBA7",
"g c #EEDAA8",
"h c #EEDCA8",
"j c #F0DAA3",
"k c #F1DCA0",
"l c #F3DDA7",
"z c #F2DBA8",
"x c #F2DEAA",
"c c #F5DFAA",
"v c #F7DFAC",
"b c #ECCEB1",
"n c #EDD5B1",
"m c #EFD8B4",
"M c #F2D9B7",
"N c #F7DCBA",
"B c #F3E2A9",
"V c #F7E0AA",
"C c #F7E1AC",
"Z c #F9E3AF",
"A c #F9E2B1",
"S c #F9E5B3",
"D c #FDE7B1",
"F c #FFE8B3",
"G c #FFECB4",
"H c #FFF0BB",
"J c #FFF1BC",
"K c #BA89E0",
"L c #CCA6E7",
"P c #BDF4CF",
"I c #EECFC2",
"U c #FBEFCF",
"Y c #FEEECE",
"T c #FFFFC9",
"R c #F3E0D6",
"E c #DBC2EE",
"W c #E6D5F3",
/* pixels */
"x7xyx77007xyyyyxxx6xxxkx7772xxx7777xxxxux77yyy7xx0yyyx7-yatxxxxx",
"xxxxx777xxxxyyyyxxe66kk77ee77xxxxxxx77yydyy7yyy7yyyy7x77yyy72xxx",
"7xxxxx77xxyyyyxxxxxxky6ryeeex22xxxxxx7yyyyy77y6yyyyx7yy33yue7xxx",
"0xxxxx77uxkxxx7xxxxx6eeere7yx7227xxxx7yxyy777xxxxyyxy9yyy30eex22",
"0xxxuu7uyxxx7xxxxxxyyerry7377770xxxxyyyyxx77xxxxxxyxuxyyyyy7yx72",
"xyxxuxeyuxxxx77xxxxyyyyrr7yy7770770uuuyyy7xxx7xxxxxxuxxu0y237777",
"xy7yeyux77xy7y7y7x7xyxxr77yr77ee700xuuuyyyyee7xxxxxxyxykyyyyy77x",
"xxxxxxedddx77yyy777xyyx7yx77pyyyy0xxu7u474yuy7xx77xxxyykxyyyr7xx",
"uxxxxxxxd6xyyeyyy7yxxyyyyxdyy-x-0xxu00777euy7k707xyyxykxxxy77xxx",
"yxxxxxxxyuxey&77y7yx22xx-xxxpyxxxxu00k00066ky07071y1yyxyxyudyxxx",
"xyxxyxxxy6eyxy677y7yx2xx7ZZxxxxxyxy00000uxxxx0y7yy77jxxxyyyxxfif",
"dyyxyyxxxxxyx&6&&7777x777xZZZxxxxyyxk0xyyxxxyy07yy7j7xx71xyZfqfw",
"x777y7xx767y666&r7777y77777dZZZZNNNxxyxxxxy00yxxkk77777u7udqfqwx",
"xxu7y7x77xx666yyr7k7y70007777ZZZZZNxxxxxxx00yxxx7j777777yyy7777x",
"xxx0yxyyy7yxyyy7rk777y07777777ZZZZZxxNxxx00yyxxj7kkj7777uyy77xxx",
"7xxx77yyy7xx6yY&YY7uuuy077777777ZZZNNNxx00xxxx-y000077yy7yx7y7yx",
"x77xxyy77xxx2x2Y0xxyu1000777077772ZZxxxxxyNNx-j00220k47yyyyyy777",
"x07yy7777xxx22x0yyxuux1y00000077772ZZZZZNNxN-x00yyy04777yyyey77y",
"xyyuy-e77xxx7xxx0x751x00000y70077722xxZZZNNxxx0xxxx0yyyyy77yyy77",
"5xuyu-xxxxx7x7x770x7yxxx000000007777777xZZNNNNNNx720y4yy76xy747y",
"yxxxxe-x-777777x770xxyxx00000000007777733ZZZZxxN-27000x77#xx777x",
"5xxxxx-xx-7777yyy7xy7xxxxxy0y-000000777777xZZZNxx7000y47y0r7%xxx",
"x7xxx7x55x7y777,yUy777x7xxyx0007070077777777ZZZxxy00y7xxk07xx%xe",
"e7xxxx7y5y7y777,yUUx7xxxx0x0000-0000770077777ZZZyyxx7xxkkrrxxxxe",
"xx3xxxy5x51yy77,,,,Uyxxuxx00000x000000700e7777ZZZxyyxrykxyyxxxxk",
"xy3377xxxxyyy7,7,,,,7xxuuxx0xxxku0y0000007777777Zxxxrex0xy7xxxxx",
"x37x777e55xx7xxx,,,y77ykkzxuuxuuk000y000000007777xJxyeyy7y7xxxkx",
"eyx77uxxxxxxxxx,,,,7y-yxMvcjxxx0yy0000000000770777Jr0ey6x7yxxxxx",
"yyxxu77xd70xxxxxx,,-9yeiTDVxxxxuxkyyy<y00y000770337063y777yxxxxx",
"7yx7y7xx07xxxxyxyd7---e7ZTFVxxxxxxxyy<yyy6y6007003y777ey67exxxxx",
"yy77xxx777777xyxyxd79996ZZHAcxxxBxyxx<<66$y$Y00703y0y37776xxxxxx",
"ry7777007x7ZNxxxxxxxxx609ZZFZcxxaxxxx7<dd$y$$$0003yyyy7777xxxxxx",
"77xyx77007xZZZZuxxxxxxxx72ZZSZcxxkxxx<<7yyy$$y000yyyyx77uxxxxxxx",
"yxxxx777xx7xZZZNxxxxxxyy772ZZAmnhakxx<<<77$$$7730xyyyxxu77x72xxx",
"yxxxxx77xx6xxZZZZNZZZxy-007ZZJAVzfaxkk<<u77y$7700xyyyx7y7xxe7xxx",
"xxxxxx77ux0y6yxZZNNxxxx-yx72ZZZZxssyykkuyyyy$y70yyyyy77xxx7eex22",
"xxxxuu7uyKEEyy7ZZZZNxxxxyy77ZZZZZlsa*xkuyy77u770yxyxy7777007yx72",
"xyxxuxeyKKKLE7yxuZZZNxxxx7762ZZZFvg8=xuyu7767700xyxy7xyx77037777",
"xy7yeyu@KKLLLEuyy7ZZZyxxxy766ZZFZSvppxxxxy77770x-xyyxxxx777yy77x",
"yxxxLLO@LLLL@@1y777ZZ7xxyxy776ZZZZZxsgxxy7777777xxxexxxxx77yr7xx",
"7xxKKKLOO@LOOKLEE170Zxxxyyy7002gDZZZxfx77yy7777yyyeexxxxx7777xxx",
"7xxOK@@Ko>NOKLLLW01xZNxxyyyy0072fGZZVxxx7yy76yyyxxyyxxxuu7udyxxx",
"7yx @@OOo>>O@@KLNyyeZZNyyyy00y77ifJZZxxxx7y6x77yxyxxyxxuxeyxxfif",
"7yy  OO@OoOOO@KN@00eZZ;;R;yy77772rSZZhVq7y7xy6y4yxyyy7yeyuxZfqfw",
"u777O@@@KO@@@O@@xyyy+;;IIR;7e77777pZZVxcxxxxyyx47yyyyxxxxedqfqwx",
"yxu7O@KKLO@KLL@xxyy+;;;;:I+7yy737spfCfixxxxxxxxx67y7yxxxxxx7777x",
"uxx0O@KEOO@KKLNxx;;++;;:::+777773yfafpa7xxxxxxx66y7y3yxxxxx77xxx",
"5xxx OOOOOOWNN@x;::X++;:++++;;y77kyyaa7x7xxxxyyx77yyyxxyxxx7y7yx",
"x77xx   7  @OOx+;;;:XX++XX+:IIb7k7yyy7yxxxxxxyyyy6yyyyxyyxxyy777",
"707yy7777xxZZZx;+;++;.>NX+;;:R+kkkypykyy7777xxyyyyy7777y7xxey77y",
"xyyuy-eKEExxx22 X++XX.>>X++;:N+7eyyuy-e77xxxx22x0yyxuuxxxxxyyy77",
"exuyu-KKKLExx7x  XXX+X.XXX+RN+;yxxuyu-xxxx7xx7xxx0x75xxyx77y747y",
"6xxxx@KKLLLE7x7x X+++;X+++X++;7xxxxxxe-x-77x7x7x770xx7xyy7yx777x",
"yxLLO@@KKK@@7777 X+;;RX++;:R;xxxxxxxxx-xx-777777x777777xyy77%xxx",
"yKKKLOO@@OOKLEEy X+IPXX+;;:N;%xek7xxx7x55x77777yyy77x777xyyxx%xe",
"yOK@@Ko>NOKLLLW7  XXXX XRNN+;xxek7xxxx7y5y77y777,yeye77xyxxxxxxe",
"0O@@OOo>>O@@KLN7,       XXX;xxxkkx3xxxy5x5y7y777,007677xxyyxxxxk",
"uy OO@OoOOO@KN@7,77yyxx    xxxxxxy3377xxxxy1yy77,77yyxxxxxxxxxxx",
"y3O@@@KO@@@O@@7,xxu6yyx7xxxxxxkxx37x777e55yyyy7,xxu6yyx7xxxxxxkx",
"7eO@KKWO@KLL@y7777007x777xxxx7uy7777xxxxxxuu7yy77x74xxxxxxxy76xx",
"y7O@KNOO@KKLN7xyx77007777xxxxxyyy07x7xxxxxx7uy77y7yy7xxxxxxy7#xx",
"e7eOOOOOOWNN@xxxx777xx777xxxxxx6x00777xxxxxyyyyxx0777xxxxxyxy0rx",
"uuuy7    @OOxxxxxx77xx7xxxxxSxxe67xx777xxxxxx6xxxkx7772xxxZxk070",
"yux7yy70x66xxxxxxx77ux7xxxxxSxxxx7xx7xxxxxxxxe66kk77ee7xxxZZkrrx"
};
