/* XPM */
static const char *c2JrX3lyc2cy_67abea2bac07f[] = {
/* columns rows colors chars-per-pixel */
"64 64 44 1 ",
"  c #2F2F2E",
". c #3B3B39",
"X c #4F4F4E",
"o c #9D5021",
"O c #D67941",
"+ c #6F8760",
"@ c #718A61",
"# c #838F5C",
"$ c #85925E",
"% c #87945F",
"& c #8B9962",
"* c #819E6E",
"= c #919361",
"- c #909F65",
"; c #96A569",
": c #98A86A",
"> c #9EAD6E",
", c #85A372",
"< c #8DAD78",
"1 c #91B37C",
"2 c #A5B673",
"3 c #A7B874",
"4 c #ACBE77",
"5 c #AEBF78",
"6 c #B4C67C",
"7 c #B7CA7E",
"8 c #97BA81",
"9 c gray72",
"0 c #8FC193",
"q c #8FC79A",
"w c #9EDC9E",
"e c #A6CD8D",
"r c #B1DA96",
"t c #B4DE99",
"y c #B5E09A",
"u c #C0D384",
"i c #C1D585",
"p c #C6DA88",
"a c #CBE08C",
"s c #D3E890",
"d c #D6EC93",
"f c #D8EE94",
"g c #F0F49C",
"h c white",
/* pixels */
"fffffffffyywwggfffffffffffffffffffffffffffffffffffffffffffffffff",
"ffffffffffywwgffffffffffffffffffffffffffffffffffffffffffffffffff",
"ffffffffffywwwffffffffffffyyyyyyyyffffgffffffffffffffffffyffffww",
"yyfffffffyyfwwf0fffffffffyyyyyyffffffffffffffwffffffff0yfffffyyy",
"yyyyyffffffff0wwywfffyyyyyyyyyfffffffffffffffffffww0f00fffffyyyy",
"yyyyyfffffffffyyyyyyyyyyyyyfyyyyyfffffffffffffffffww00ffffffyffy",
"fyyyyffffqffffyyyyyyyyyfwwfffffffffffffffffffffffffwww0fffqfffff",
"ffyyyyffffyffffyyyywfggffffffffffffffffffffffffffwwwwww0ffffffff",
"ffyyyyffffqffffyyyywfffffffffffffffwffffffffyffffwwwwww0ffffffff",
"ffffffffffffffffyywfffffffffffwffffwwfwfffffyf000yyywwyfffffffff",
"yyffffffffffffffyw      fffyffffffwywffffffy0ffwwgyyywffffffffff",
"wwfffffffffffffyff      fffyfffwywyffffwwff0yffwwyyyyywwffffgfff",
"ffffffffffffffffff      ffffffffyyffffffwfwwff0wyyggyywywffggfff",
"gffff        fffff   ooo  ffffffyfffffffywff0wwwyyyyyyywwggfy0yf",
"gffff        fffff   ooo  ffffffffffffffyyyyyyyyyyyyyyyyw0w00yff",
"fffff   OOooo   ff   hhhoo   ffffffffffyyyyyyyyyyyyyyyyyywwwffff",
"fgfgf   OOooo   ff   hhhoo   ffyyyfffffgfyyyyffyyyyyfffffwwwffgg",
"fgfgg   OOooo   ff   hhhoo   yyyyfffgfffyyyfffffffyyfffffffwwggf",
"f0000fff             hhhoo   yyyyyffffffyfffffffffyyffffffffffww",
"00y0ffff             hhhoo   yyyyyyffffffffffffffffyffffffffffw0",
"yyygffff             hhhoo   ff0fyyyfffffffffffffffffffffffffffw",
"yyyf00ff  OOOOOOOOOOOooooo   fffffffffffffffffffffffffffffffffff",
"yyyyyyyf  OOOOOOOOOOOooooo   fffffffffffffffffffffffffffffffffff",
"fyyyy   oooooooo  OOOooooo   fffffffffffffffffffffffffffffffffff",
"ffffy   oooooooo  OOOooooo   ffffffffffffffffffffffffffffffffyff",
"ffffy   oooooooo  OOOooooo   fffffffwwwfffffffffffffffffffffyyyf",
"ff        OOOOOOOOOOOoooooooo   fffqywff        fffffffffffyyyyy",
"yf        OOOOOOOOOOOoooooooo   wfqyyywf        ffffffffffyffffy",
"yy        OOOOOOOOOOOoooooooo   wwwyyyww        ffffffffffffffff",
"yy   hhhhhhhhhhhhhhhhhhh99999   wyyyy   OOOOOOOO     fffgfyfyyfy",
"ff   hhhhhhhhhhhhhhhhhhh99999   yyyyw   OOOOOOOO     fffffffffff",
"ffffy     hhhhhhhh999999                OOOOOOOOoohhh     ffffff",
"fffff     hhhhhhhh999999                OOOOOOOOoohhh     ffffff",
"fffff     hhhhhhhh999999                OOOOOOOOoohhh     ffffff",
"ffffyyyfff              ooooooooooooo   oooooooooohhhhhh99   fff",
"wfffyfffff              ooooooooooooo   oooooooooohhhhhh99   ffw",
"wwffffffff              ooooooooooooo   oooooooooohhhhhh99   fww",
"wwffffffff   hhhhhOOOOOOOOOOOooooooooooo                     www",
"ffffffffff   hhhhhOOOOOOOOOOOooooooooooo                     www",
"ffffffffff      99999oooOOOOOOOOoooooooo  yyyyywwqfg0www0fffffff",
"ffffffyyww      99999oooOOOOOOOOoooooooo  yyyyyyywqwww00fgffffff",
"fffffyyyyy      99999oooOOOOOOOOoooooooo  fffffyyywwwwwfffffffff",
"fffffyfyyy   ooo        OO           ooo  ffyyfffyyyw0fff0ffffff",
"fffffffyff   ooo        OO           ooo  fffyyyfyyywfff0yfgffff",
"0yyyyfffff   ooo        OO           ooo  yfyyyfffyywff00yffgffg",
"yyyffffffs   XXX  ###   XX      ..   ...  ryyyyyyfyyyw0wwffwfff0",
"yyyffffp3$   XXX  +##   XX      ..   ...  $<eyyffyyyyyywwwwfff00",
"yyffff6###      ##++#     ######  #=#     +++6ffyyyffyfyyyyff0ww",
"yfffff$+++      ###++     ######  #=+     +++$ffffffyffyyyffyyyw",
"yffyyy8+++      +++++     ######  #++     ###6fffyfffyfyyfffyyyy",
"fffyfffp3@++++#+++++++############++++####$3pffyyyyfyyfyffffffff",
"ffyyfffffsu1*@###++++############+++##$:4usfffffyyyyyyffffffffff",
"ffyfffffffffytai752,;-&%$##$%&-;>257iadffffffyyffyyyyfffffffffff",
"ffffffffffffffyffffffffffffffffgfffffffffffyyffyyyyyyyffffffffff",
"ffffffffffffffgffffffffffffffffggfffffgfffffyyyyyyyyyyffffffffff",
"fffffffffffffygfgfffffffffffyfygfffggfffffffffffyyffyfffffffqqff",
"fffffffffffffyyygffgffffffffyyyyfyygffggyyyyfyyyyyfffffffffffqqf",
"fffffffffffffffyggygffffffffyyyyyffyyyfyffyyfffyyyyfffffffffffyq",
"fffffffffffffyyyfyyyyfffffffyyyyffffyyyffffffffyffyfffffffffffyy",
"ffffffffffffyyyyyffyyyfffffyyyyyffffffffffffffyffffyffffyffffffy",
"fffffffffyyyyffyyfffffffffffffyyfffffffyyfyyffffffffffffffffffff",
"fffffffffffyyfyyfffffffffffffyyfffffffffyyyffffffffyffffffffffff",
"ffffffffffyyffyffffffffffffffyffffffyfffffffffffffffffffffffffff",
"fffffff0ffyywfffffffffffffffffffffffffffffffffffyffffyffffyfgfff"
};
