/* XPM */
static const char *c2JrX3liYnhfeXJzZw___67abe16a83bc8[] = {
/* columns rows colors chars-per-pixel */
"64 64 48 1 ",
"  c #2F2F2E",
". c #3B3B39",
"X c #4F4F4E",
"o c #9D5021",
"O c #D67941",
"+ c #688258",
"@ c #6A855A",
"# c #6E895D",
"$ c #7D8B54",
"% c #7F8C55",
"& c #738F61",
"* c #799766",
"= c #8C8E59",
"- c #8A985D",
"; c #93965E",
": c #8F9E60",
"> c #91A062",
", c #9AAA68",
"< c #89AA74",
"1 c #8CAD76",
"2 c #8EB078",
"3 c #91B47B",
"4 c #ABAE6E",
"5 c #A3B46F",
"6 c #A4B56F",
"7 c #A7B872",
"8 c #AABB73",
"9 c #B5B975",
"0 c #AEC076",
"q c #B9CC7E",
"w c gray72",
"e c #9BC083",
"r c #90CB8B",
"t c #8FC193",
"y c #8FC79A",
"u c #9EDC9E",
"i c #A4CB8B",
"p c #A5CC8C",
"a c #BCCF80",
"s c #AED794",
"d c #AFD995",
"f c #B5E09A",
"g c #C4D886",
"h c #CFE58E",
"j c #D2E78F",
"k c #D8EE94",
"l c #F0F49C",
"z c white",
/* pixels */
"kkkkkkkkkffuullkkkkkkkkkkkkkkkkkkkkkkkkkkkkkkkkkkkkkkkkkkkkkkkkk",
"kkkkkkkkkkfuulkkkkkkkkkkkkkkkkkkkkkkkkkkkkkkkkkkkkkkkkkkkkkkkkkk",
"kkkkkkkkkkfuuukkkkkkkkkkkkffffffffkkkklkkkkkkkkkkkkkkkkkkfkkkkuu",
"ffkkkkkkkffkuuktkkkkkkkkkffffffkkkkkkkkkkkkkkukkkkkkkktfkkkkkfff",
"fffffkkkkkkkktuufukkkfffffffffkkkkkkkkkkkkkkkkkkkuutkttkkkkkffff",
"fffffkkkkkkkkkfffffffffffffkfffffkkkkkkkkkkkkkkkkkuuttkkkkkkfkkf",
"kffffkkkkykkkkfffffffffkuukkkkkkkkkkkkkkkkkkkkkkkkkuuutkkkykkkkk",
"kkffffkkkkfkkkkffffukllkkkkkkkkkkkkkkkkkkkkkkkkkkuuuuuutkkkkkkkk",
"kkffffkkkkykkkkffffukkkkkkkkkkkkkkkukkkkkkkkfkkkkuuuuuutkkkkkkkk",
"kkkkkkkkkkkkkkkkffukkkkkkkkkkkukkkkuukukkkkkfktttfffuufkkkkkkkkk",
"ffkkkkkkkkkkkkkkfuukkkkkkkkfkkkkkkufukkkkkkft      ffukkkkkkkkkk",
"uukkkkkkkkkkkkkfkkkkkkkkkkkfkkkufufkkkkuukktf      fffuukkkklkkk",
"kkkkkkkkkkkkkkkkkkkkkkkkkkkkkkkkffkkkkkkukuuk      lffufukkllkkk",
"lkkkkkkkkkkkkkkkkkkkkkkkkkkkkkk        kfu   oooOOO  ffuullkftfk",
"lkkkkkkkkkkkkkkkkkkkkkkkkkkkkkk        kff   oooOOO  fffututtfkk",
"kkkkkkkkkkkkkkkkkkkkkkkkkfkkkkk        fff   oooOOO  ffffuuukkkk",
"klklkkkkkkkkkkkkkkkkkkkkffkkkkk   oooOO   fff   zzzOO   kuuukkll",
"klkllkkkkkkkkkkkkkkkkkkkfffffff   oooOO   fkk   zzzOO   kkkuullk",
"kttttkkkkkkkkkkkkkkkkkkffffffff   oooOO   kkk   zzzOO   kkkkkkuu",
"ttftkkkkkkkkkkkkkkkkkkkfffffffffff              zzzOO   kkkkkkut",
"ffflkkkkkkkkkkkkkkkkffffuukkkkktkf              zzzOO   kkkkkkku",
"fffkttkkk   kkkkfffffffukkkkkkkkkk   oooooooooooOOOOO   kkkkkkkk",
"fffffffkk   kkffffffffukkkkkkkkkkk   oooooooooooOOOOO   kkkkkkkk",
"kfffffkkk   kkkkkkkffffkkkkkkkkkkk   oooooooooooOOOOO   kkkkkkkk",
"kkkkfk   www  kkkkkkfffffkkkkkk   oooooooo   OOOOOOOO   kkkkkfkk",
"kkkkff   www  kkkkkkkfffkkkkkkk   oooooooo   OOOOOOOO   kkkkfffk",
"kkkrff   www  fkkkkkkkkkkkkkkkk   oooooooo   OOOOOOOO   kkkfffff",
"fkr   wwwzzz  fkkkkkkkkkkkkk         oooooOOOOOOOOOOOOOO   kkkkf",
"ffy   wwwzzz  ffkkkffkkkkkuk         oooooOOOOOOOOOOOOOO   kkkkk",
"fff   wwwzzz  fkkkkffkkkkffu         oooooOOOOOOOOOOOOOO   kffkf",
"kkk   ooozzz        kuufffff   wwwwwwwwzzzzzzzzzzzzzzzzz   kkkkk",
"kkk   ooozzz        kkffffff   wwwwwwwwzzzzzzzzzzzzzzzzz   kkkkk",
"kkk   ooooooOOOOOOOO                 wwwwwzzzzzzzzz     kkkkkkkk",
"kkk   ooooooOOOOOOOO                 wwwwwzzzzzzzzz     kkkkkkkk",
"kkk   ooooooOOOOOOOO                 wwwwwzzzzzzzzz     kkkkkkkk",
"ukk   ooooooOOOOOooo   oooooooooooooo              kkkkkkkkkkkku",
"uuk   ooooooOOOOOooo   oooooooooooooo              kktffkkkkukuu",
"uuk   ooooooOOOOOooo   oooooooooooooo              lkkttttukuuuu",
"kkkkkk   oooooooo   oooooooooooOOOOOOOOOOOzzzzzz   lttuutfukkuuu",
"kkkkkk   oooooooo   oooooooooooOOOOOOOOOOOzzzzzz   ltuuutkkkkkkk",
"kkkkkk   oooooooo   oooooooooooOOOOOOOOOOOzzzzzz   uuuttklkkkkkk",
"kkkkkffff           ooooooooOOOOOOOOOoowwwwww      uuuukkkkkkkkk",
"kkkkkfkff           ooooooooOOOOOOOOOoowwwwww      futkkktkkkkkk",
"kkkkkkkfk           ooooooooOOOOOOOOOoowwwwww      fukkktfklkkkk",
"tffffkkkkkkkkkkkk   ooo           OOO        ooo   fukkttfkklkkl",
"fffkkkkkkkkkkkkkk   ooo           OOO        ooo   ffutuukkukkkt",
"fffkkkkkkkkkkkkkk   ...   ..      XXX  50q   XXX   ffffuuuukkktt",
"ffkkkkkkkkffkkkkk   ...   ..      XXX  ++$   XXX   kkfkffffkktuu",
"fkkkkkkffffffffkg   ...   ..      XXX  +$$   XXX   kfkkfffkkfffu",
"fkkfffffffffffs2+      $$$  $$$$$$     $$$$$$      hkfkffkkkffff",
"kkkfkkkkkfffff7++      $$$  $$$$$$     $$$$$$      7ffkfkkkkkkkk",
"kkffkkkkkkkfff%$$      $$$  $$$$$+     $$$$$$      @ffkkkkkkkkkk",
"kkfkkkkkkkkkff7$$$$+$$$$$$$$$$$$$$$$$$$$$$$$$++$$++1fkkkkkkkkkkk",
"kkkkkkkkkkkkkks8$$$$$$$$$$$$$$$=$$$$$$$$$$$++$$+++2sffkkkkkkkkkk",
"kkkkkkkkkkkkkklkg6%$$$$$$$$$$$$==$$$$$=$$$$$+++@<iffffkkkkkkkkkk",
"kkkkkkkkkkkkkflklkja7:$$$$$$+$+=$$$==$$$$$$$:7ajffkkfkkkkkkkyykk",
"kkkkkkkkkkkkkffflkklkkjgq05,*&#@$+@;->493epdkfffffkkkkkkkkkkkyyk",
"kkkkkkkkkkkkkkkfllflkkkkkkkkfffffkkfffkfkkffkkkffffkkkkkkkkkkkfy",
"kkkkkkkkkkkkkfffkffffkkkkkkkffffkkkkfffkkkkkkkkfkkfkkkkkkkkkkkff",
"kkkkkkkkkkkkfffffkkfffkkkkkfffffkkkkkkkkkkkkkkfkkkkfkkkkfkkkkkkf",
"kkkkkkkkkffffkkffkkkkkkkkkkkkkffkkkkkkkffkffkkkkkkkkkkkkkkkkkkkk",
"kkkkkkkkkkkffkffkkkkkkkkkkkkkffkkkkkkkkkfffkkkkkkkkfkkkkkkkkkkkk",
"kkkkkkkkkkffkkfkkkkkkkkkkkkkkfkkkkkkfkkkkkkkkkkkkkkkkkkkkkkkkkkk",
"kkkkkkktkkffukkkkkkkkkkkkkkkkkkkkkkkkkkkkkkkkkkkfkkkkfkkkkfklkkk"
};
