/* XPM */
static const char *c2JrX3liYnhfZXZ0dWc__67abe16a8575e[] = {
/* columns rows colors chars-per-pixel */
"64 64 44 1 ",
"  c #2F2F2E",
". c #3B3B39",
"X c #4F4F4E",
"o c #9D5021",
"O c #D67941",
"+ c #698358",
"@ c #6C875B",
"# c #7D8B54",
"$ c #7E8C55",
"% c #7E9D6B",
"& c #8D8F5A",
"* c #829057",
"= c #87965B",
"- c #8F9E60",
"; c #909F61",
": c #97A767",
"> c #9FAF6C",
", c #84A570",
"< c #8BAC75",
"1 c #A9AC6C",
"2 c #A1B26E",
"3 c #A6B771",
"4 c #A6B871",
"5 c #A8B972",
"6 c #ADBE75",
"7 c #B4B774",
"8 c #B8CB7E",
"9 c gray72",
"0 c #90CB8B",
"q c #8FC193",
"w c #8FC79A",
"e c #9EDC9E",
"r c #A6CE8D",
"t c #BED282",
"y c #ABD391",
"u c #B1DB96",
"i c #B5E09A",
"p c #C5D986",
"a c #CCE18B",
"s c #D2E78F",
"d c #D3E991",
"f c #D8EE94",
"g c #F0F49C",
"h c white",
/* pixels */
"fffffffffiieeggfffffffffffffffffffffffffffffffffffffffffffffffff",
"ffffffffffieegffffffffffffffffffffffffffffffffffffffffffffffffff",
"ffffffffffieeeffffffffffffiiiiiiiiffffgffffffffffffffffffiffffee",
"iifffffffiifeefqfffffffffiiiiiiffffffffffffffeffffffffqifffffiii",
"iiiiiffffffffqeeiefffiiiiiiiiifffffffffffffffffffeeqfqqfffffiiii",
"iiiiifffffffffiiiiiiiiiiiiifiiiiifffffffffffffffffeeqqffffffiffi",
"fiiiiffffwffffiiiiiiiiifeefffffffffffffffffffffffffeeeqfffwfffff",
"ffiiiiffffiffffiiiiefggffffffffffffffffffffffffffeeeeeeqffffffff",
"ffiiiiffffwffffiiiiefffffffffffffffeffffffffiffffeeeeeeqffffffff",
"ffffffffffff      efffffffffffeffffeefefffffifqqqiiieeifffffffff",
"iiffffffffff      effffffffiffffffeieffffffiqffeegiiieffffffffff",
"eeffffffffff      fffffffffifffeieiffffeeffqiffeeiiiiieeffffgfff",
"ffffffffff  OOOooo   fff        iiffffffefeeffqeiiggiieieffggfff",
"gfffffffff  OOOooo   fff        ifffffffieffqeeeiiiiiiieeggfiqif",
"gfffffffff  OOOooo   fff        ffffffffiiiiiiiiiiiiiiiieqeqqiff",
"fffffff   OOhhh   fff   OOooo   fffffffiiiiiiiiiiiiiiiiiieeeffff",
"fgfgfff   OOhhh   fff   OOooo   iifffffgfiiiiffiiiiifffffeeeffgg",
"fgfggff   OOhhh   fff   OOooo   ifffgfffiiifffffffiifffffffeeggf",
"fqqqqff   OOhhh              iiiiiffffffifffffffffiiffffffffffee",
"qqiqfff   OOhhh              iiiiiiffffffffffffffffiffffffffffeq",
"iiigfff   OOOOOooooooooooo   ffqfiiifffffffffffffff   fffffffffe",
"iiifqqf   OOOOOooooooooooo   ffffffffffffffffffffff   ffffffffff",
"iiiiiii   OOOOOooooooooooo   ffffffffffffffffffffff   ffffffffff",
"fiiiiif   OOOOOOOO   oooooooo   fffffffffffffffff  999   fffffff",
"ffffiff   OOOOOOOO   oooooooo   fffffffffffffffff  999   ffffiff",
"ffffiii   OOOOOOOO   oooooooo   ffffeeeffffffffff  999   fffiiif",
"fff0   OOOOOOOOOOOOOOooooo         wiefffffffffff  hhh999   iiii",
"if0i   OOOOOOOOOOOOOOooooo         iiieffffffffff  hhh999   fffi",
"iiwi   OOOOOOOOOOOOOOooooo         iiieefffffffff  hhh999   ffff",
"iiii   hhhhhhhhhhhhhhhhh99999999   iiieeeff        hhhooo   iifi",
"ffff   hhhhhhhhhhhhhhhhh99999999   iefeffgg        hhhooo   ffff",
"ffffiii     hhhhhhhhh99999                 OOOOOOOOoooooo   ffff",
"ffffffi     hhhhhhhhh99999                 OOOOOOOOoooooo   ffff",
"ffffffi     hhhhhhhhh99999                 OOOOOOOOoooooo   ffff",
"ffffiiifffff              oooooooooooooo   oooOOOOOoooooo   ffff",
"efffifffffff              oooooooooooooo   oooOOOOOoooooo   fffe",
"eeffffffffff              oooooooooooooo   oooOOOOOoooooo   efee",
"eeffffffffff   hhhhhhOOOOOOOOOOOooooooooooo   oooooooo   qefeeee",
"ffffffffffff   hhhhhhOOOOOOOOOOOooooooooooo   oooooooo   ieffeee",
"ffffffffffff   hhhhhhOOOOOOOOOOOooooooooooo   oooooooo   fffffff",
"ffffffiieeee      999999ooOOOOOOOOOoooooooo           qqfgffffff",
"fffffiiiiiii      999999ooOOOOOOOOOoooooooo           efffffffff",
"fffffifiiiff      999999ooOOOOOOOOOoooooooo           fffqffffff",
"fffffffiffff   ooo        OOO           ooo   iifiiiefffqifgffff",
"qiiiifffffff   ooo        OOO           ooo   ifffiieffqqiffgffg",
"iiifffffffff   XXX   ###  XXX      ..   ...   riifiiieqeeffefffq",
"iiifffffffff   XXX   ###  XXX      ..   ...   +3aiiiiiieeeefffqq",
"iiffffffffir   XXX   ###  XXX      ..   ...   ##%riffifiiiiffqee",
"iffffffiiii,      #++###     ######  +++      ###>ffiffiiiffiiie",
"iffiiiiiiii+      +++###     ######  +##      ###+fffifiifffiiii",
"fffifffffii,      ++++##     #####+  +##      #++,ifiififfffffff",
"ffiifffffffr%+###++++############+++############%riiiiffffffffff",
"ffifffffffffy<#####+#########################++3aiiiifffffffffff",
"ffffffffffffffr4*##############&###########+@4piiiiiiiffffffffff",
"ffffffffffffffgfdt5;###########&&#####&##;5tuiiiiiiiiiffffffffff",
"fffffffffffffigfgfffsp862:-=@$+&*=-1768psfffffffiiffifffffffwwff",
"fffffffffffffiiigffgffffffffiiiifiigffggiiiifiiiiifffffffffffwwf",
"fffffffffffffffiggigffffffffiiiiiffiiififfiifffiiiifffffffffffiw",
"fffffffffffffiiifiiiifffffffiiiiffffiiiffffffffiffifffffffffffii",
"ffffffffffffiiiiiffiiifffffiiiiiffffffffffffffiffffiffffiffffffi",
"fffffffffiiiiffiifffffffffffffiifffffffiifiiffffffffffffffffffff",
"fffffffffffiifiifffffffffffffiifffffffffiiiffffffffiffffffffffff",
"ffffffffffiiffiffffffffffffffiffffffifffffffffffffffffffffffffff",
"fffffffqffiiefffffffffffffffffffffffffffffffffffiffffiffffifgfff"
};
