/* XPM */
static const char *c2JrX2Z5cnJj_67a3b3d7969af[] = {
/* columns rows colors chars-per-pixel */
"64 64 58 1 ",
"  c #2F2F2E",
". c #4F4F4E",
"X c #516F53",
"o c #9D5021",
"O c #D67941",
"+ c #5A805A",
"@ c #688258",
"# c #7D8B54",
"$ c #7F8C55",
"% c #708C5F",
"& c #759163",
"* c #7A9767",
"= c #7F9F6C",
"- c #75A475",
"; c #808D56",
": c #8C8E59",
"> c #839158",
", c #87955B",
"< c #8C9B5F",
"1 c #92955D",
"2 c #909F61",
"3 c #81A16E",
"4 c #92A163",
"5 c #99A967",
"6 c #9BAB69",
"7 c #87A873",
"8 c #8DAF78",
"9 c #94B77D",
"0 c #96BA7F",
"q c #A0B16D",
"w c #A7B872",
"e c #A9BA73",
"r c #BCBF79",
"t c #B1C378",
"y c #B3C67A",
"u c #B5C87B",
"i c #B9CC7E",
"p c #97BC80",
"a c gray72",
"s c #8EC68E",
"d c #9BC084",
"f c #90CB8B",
"g c #8FC193",
"h c #8FC79A",
"j c #9EDC9E",
"k c #A3CA8A",
"l c #A4CB8B",
"z c #ABD491",
"x c #B5E09A",
"c c #C2D685",
"v c #C4D886",
"b c #CDE18C",
"n c #CFE48E",
"m c #D4EA91",
"M c #D6EC93",
"N c #D8EE94",
"B c #F0F49C",
"V c white",
/* pixels */
"NNNNNNNNNxxjjBBNNNNNNNNNNNNNNNNNNNNNNNNNNNNNNNNNNNNNNNNNNNNNNNNN",
"NNNNNNNNNNxjjBNNNNNNNNNNNNNNNNNNNNNNNNNNNNNNNNNNNNNNNNNNNNNNNNNN",
"NNNNNNNNNNxjjjNNNNNNNNNNNNxxxxxxxxNNNNBNNNNNNNNNNNNNNNNNNxNNNNjj",
"xxNNNNNNNxxNjjNgNNNNNNNNNxxxxxxNNNNNNNNNNNNNNjNNNNNNNNgxNNNNNxxx",
"xxxxxNNNNNNNNgjjxjNNNxxxxxxxxxNNNNNNNNNNNNNNNNNNNjjgNggNNNNNxxxx",
"xxxxxNNNNNNNNNxxxxxxxxxxxxxNxxxxxNNNNNNNNNNNNNNNNNjjggNNNNNNxNNx",
"NxxxxNNNNhNNNNxxxxxxxxxNjjNNNNNNNNNNNNNNNNNNNNNNNNNjjjgNNNhNNNNN",
"NNxxxxNNNNxNNNNxxxxjNBBNNNNNNNNNNNNNNNNNNNNNNNNNNjjjjjjgNNNNNNNN",
"NNxxxxNNNNhNNNNxxxxjNNNNNNNNNNNNNNNjNNNNNNNNxNNNNjjjjjjgNNNNNNNN",
"NNNNNNNNNNNNNNNNxxjNNNNNNNNNNNjNNNNjjNjNNNNNxNgggxxxjjxNNNNNNNNN",
"xxNNNNNNNNNNNNNNxjjNNNNNNNNxNNNNNNjxjNNNNNNxgNNjjBxxxjNNNNNNNNNN",
"jjNNNNNNNNNNNNNxNNNNNNNNNNNxNNNjxjxNNNNjjNNgxNNjjxxxxxjjNNNNBNNN",
"NNNNNNNNNNNNNNNNNNNNNNNNNNNNNNNNxxNNNNNNjNjjNNgjxxBBxxjxjNNBBNNN",
"BNNNNNNNNNNNNNNNNNNNNNNNNNNNNNNNxNNNNNNNxjNNg      xxxxjjBBNxgxN",
"BNNNNNNNNNNNNNNNNNNNNNNNNNNNNNNNNNNNNNNNxxxxx      xxxxxjgjggxNN",
"NNNNNNNNNNNNNNNNNNNNNNNNNxNNNNNNNNNNNNNxxxxxx      xxxxxxjjjNNNN",
"NBNBNNNNNNNNNNNNNNNNNNNNxxNNNN         BNx   oooOOO   NNNjjjNNBB",
"NBNBBNNNNNNNNNNNNNNNNNNNxxxxxx         Nxx   oooOOO   NNNNNjjBBN",
"NggggNNNNNNNNNNNNNNNNNNxxxxxxx         NxN   oooOOO   NNNNNNNNjj",
"ggxgNNNNNNNNNNNNNNNNNNNxxxxxxx   oooOOO   NNN   VVVOOO   NNNNNjg",
"xxxBNNNNNNNNNNNNNNNNxxxxjjNNNN   oooOOO   NNN   VVVOOO   NNNNNNj",
"xxxNggNNNNNNNNNNxxxxxxxjNNNNNN   oooOOO   NNN   VVVOOO   NNNNNNN",
"xxxxxxxNNNNNNNxxxxxxxxjNNNNNNNNNN               VVVOOO   NNNNNNN",
"NxxxxxNNNNNNNNNNNNNxxxxNNNNNNNNNN               VVVOOO   NNNNNNN",
"NNNNxNNNNNNNNNNNNNNNxxxxxNNNNNNNN               VVVOOO   NNNNxNN",
"NNNNxxxNNNNNNNN                     ooooooooooooOOOOOO   NNNxxxN",
"NNNfxxxxxxNNNNx                     ooooooooooooOOOOOO   NNxxxxx",
"xNfxxxxxxxxxxxx                     ooooooooooooOOOOOO   NxNNNNx",
"xxhxxxxxxxxx   ooooooOOOOOOOOO   ooooooooo      OOOOOO   NNNNNNN",
"xxxxxxxNNNNN   ooooooOOOOOOOOO   ooooooooo      OOOOOO   NxNxxNx",
"NNNNNNxNNNNN   ooooooOOOOOOOOO   ooooooooo      OOOOOO   NNNNNNN",
"NNNNxxxNN         ooooooOOO         ooooooOOOOOOOOOOOOOOO   NNNN",
"NNNNNNxNN         ooooooOOO         ooooooOOOOOOOOOOOOOOO   NNNN",
"NNNNNNxNN         ooooooOOO         ooooooOOOOOOOOOOOOOOO   NNNN",
"NNNNxx   oooOOOOOO            aaaaaaaaaVVVVVVVVVVVVVVVVVV   NNNN",
"jNNNxN   oooOOOOOO            aaaaaaaaaVVVVVVVVVVVVVVVVVV   NNNj",
"jjNNNN   oooOOOOOO            aaaaaaaaaVVVVVVVVVVVVVVVVVV   jNjj",
"jjNNNN   oooOOOOOOVVVVVVVVV                        VVV   gjNjjjj",
"NNNNNN   oooOOOOOOVVVVVVVVV                        VVV   xjNNjjj",
"NNNNNN   oooOOOOOOVVVVVVVVV                        VVV   NNNNNNN",
"NNNNNN   oooOOOOOOaaaVVVVVVVVV   OOO...   ...OOOOOO   XX#rnNNNNN",
"NNNNNx   oooOOOOOOaaaVVVVVVVVV   OOO...   ...OOOOOO   +###wNNNNN",
"NNNNNx   oooOOOOOOaaaVVVVVVVVV   OOO...   ...OOOOOO   ###X$NNNNN",
"NNNNNNw@#                                             ##X@wBNNNN",
"gxxxxNne#                                             #XX8nNBNNB",
"xxxNNNNNc                                             X-sNNjNNNg",
"xxxNNNNNNNbu6####@@########################@@@@##@@@3pzjjjjNNNgg",
"xxNNNNNNNNxxNmvyq2@@###############:#@#@@#@@@##270lmNxNxxxxNNgjj",
"xNNNNNNxxxxxxxxNNNMzkiteq54<,>;###;1%&*=qe9dkbMNNNNNxNNxxxNNxxxj",
"xNNxxxxxxxxxxxxxxxxxxNNNNNNNNNNNNNNxxxNNNNNNNNNNNxNNNxNxxNNNxxxx",
"NNNxNNNNNxxxxxNxxxxxxxNNNNNNNNNNNNxxxxNNNNNNNNNxxxxNxxNxNNNNNNNN",
"NNxxNNNNNNNxxxNNNxxxxNNNNNNNNNNNNxxxNNNNNNNNNNNNxxxxxxNNNNNNNNNN",
"NNxNNNNNNNNNxxNNNNNxNNNNNNNNNNNNNNNNNNNNNNNNNxxNNxxxxNNNNNNNNNNN",
"NNNNNNNNNNNNNNxNNNNNNNNNNNNNNNNBNNNNNNNNNNNxxNNxxxxxxxNNNNNNNNNN",
"NNNNNNNNNNNNNNBNNNNNNNNNNNNNNNNBBNNNNNBNNNNNxxxxxxxxxxNNNNNNNNNN",
"NNNNNNNNNNNNNxBNBNNNNNNNNNNNxNxBNNNBBNNNNNNNNNNNxxNNxNNNNNNNhhNN",
"NNNNNNNNNNNNNxxxBNNBNNNNNNNNxxxxNxxBNNBBxxxxNxxxxxNNNNNNNNNNNhhN",
"NNNNNNNNNNNNNNNxBBxBNNNNNNNNxxxxxNNxxxNxNNxxNNNxxxxNNNNNNNNNNNxh",
"NNNNNNNNNNNNNxxxNxxxxNNNNNNNxxxxNNNNxxxNNNNNNNNxNNxNNNNNNNNNNNxx",
"NNNNNNNNNNNNxxxxxNNxxxNNNNNxxxxxNNNNNNNNNNNNNNxNNNNxNNNNxNNNNNNx",
"NNNNNNNNNxxxxNNxxNNNNNNNNNNNNNxxNNNNNNNxxNxxNNNNNNNNNNNNNNNNNNNN",
"NNNNNNNNNNNxxNxxNNNNNNNNNNNNNxxNNNNNNNNNxxxNNNNNNNNxNNNNNNNNNNNN",
"NNNNNNNNNNxxNNxNNNNNNNNNNNNNNxNNNNNNxNNNNNNNNNNNNNNNNNNNNNNNNNNN",
"NNNNNNNgNNxxjNNNNNNNNNNNNNNNNNNNNNNNNNNNNNNNNNNNxNNNNxNNNNxNBNNN"
};
