/* XPM */
static const char *c2JrX2V2dHVnMg___67abea2babede[] = {
/* columns rows colors chars-per-pixel */
"64 64 47 1 ",
"  c #2F2F2E",
". c #3B3B39",
"X c #4F4F4E",
"o c #9D5021",
"O c #D67941",
"+ c #6F8760",
"@ c #708961",
"# c #759065",
"$ c #799468",
"% c #7E9A6C",
"& c #838F5C",
"* c #85925E",
"= c #87945F",
"- c #8B9861",
"; c #8F9D64",
": c #919361",
"> c #95A468",
", c #9AAA6C",
"< c #9EAE6E",
"1 c #82A070",
"2 c #8AAA76",
"3 c #A0B06F",
"4 c #A4B572",
"5 c #ABBC76",
"6 c #B0C27A",
"7 c #B3C57C",
"8 c gray72",
"9 c #90CB8B",
"0 c #8FC193",
"q c #8FC79A",
"w c #9EDC9E",
"e c #A1C78A",
"r c #A6CD8D",
"t c #BCCF82",
"y c #AED894",
"u c #B2DC97",
"i c #B5E09A",
"p c #C0D484",
"a c #C6DB88",
"s c #D6D98B",
"d c #D8DB8D",
"f c #D0E58F",
"g c #DCE090",
"h c #D4E991",
"j c #D8EE94",
"k c #F0F49C",
"l c white",
/* pixels */
"jjjjjjjjjiiwwkkjjjjjjjjjjjjjjjjjjjjjjjjjjjjjjjjjjjjjjjjjjjjjjjjj",
"jjjjjjjjjjiwwkjjjjjjjjjjjjjjjjjjjjjjjjjjjjjjjjjjjjjjjjjjjjjjjjjj",
"jjjjjjjjjjiwwwjjjjjjjjjjjjiiiiiiiijjjjkjjjjjjjjjjjjjjjjjjijjjjww",
"iijjjjjjjiijwwj0jjjjjjjjjiiiiiijjjjjjjjjjjjjjwjjjjjjjj0ijjjjjiii",
"iiiiijjjjjjjj0wwiwjjjiiiiiiiiijjjjjjjjjjjjjjjjjjjww0j00jjjjjiiii",
"iiiiijjjjjjjjjiiiiiiiiiiiiijiiiiijjjjjjjjjjjjjjjjjww00jjjjjjijji",
"jiiiijjjjqjjjjiiiiiiiiijwwjjjjjjjjjjjjjjjjjjjjjjjjjwww0jjjqjjjjj",
"jjiiiijjjjijjjjiiiiwjkkjjjjjjjjjjjjjjjjjjjjjjjjjjwwwwww0jjjjjjjj",
"jjiiiijjjjqjjjjiiiiwjjjjjjjjjjjjjjjwjjjjjjjjijjjjwwwwww0jjjjjjjj",
"jjjjjjjjjjjjjjjjiiwjjjjjjjjjjjwjjjjwwjwjjjjjij000iiiwwijjjjjjjjj",
"iijjjjjjjjjjjjjjiwwjjjjjjjjijjjjjjwiwjjjjjji0jjwwkiiiwjjjjjjjjjj",
"wwjjjjjjjjjjjjjijjjjjjjjjjjijjjwiwijjj      ijjwwiiiiiwwjjjjkjjj",
"jjjjjjjjjjjjjjjjjjjjjjjjjjjjjjjjiijjjj      jj0wiikkiiwiwjjkkjjj",
"kjjjjjjjjjjjjjjjjjjjjjjjjjjjjjjjijjjjj      0wwwiiiiiiiwwkkji0ij",
"kjjjjjjjjjjjjjjjjjjjjjjjjjjjjjjjjjj   ooo   iiiiii         00ijj",
"jjjjjjjjjjjjjjjjjjjjjjjjjijjjjjjjjj   ooo   iiiiii         wjjjj",
"jkjkjjjjjjjjjjjjjjjjjjjjiijjjjjiiij   ooo   ijjiii         wjjkk",
"jkjkkjjjjjjjjjjjjjjjjjjjiiiiiiii   ooolll   jjj   oooOOO   wwkkj",
"j0000jjjjjjjjjjjjjjjjjjiiiiiiiii   ooolll   jjj   oooOOO   jjjww",
"00i0jjjjjjjjjjjjjjjjjjjiiiiiiiii   ooolll   jjj   oooOOO   jjjw0",
"iiikjjjjjjjjjjjjjjjjiiiiwwjjjjj0   ooolll               jjjjjjjw",
"iiij00jjjjjjjjjjiiiiiiiwjjjjjjjj   ooolll               jjjjjjjj",
"iiiiiiijjjjjjjiiiiiiiiwjjjjjjjjj   ooolll               jjjjjjjj",
"jiiiiijjj   jjjjjjjiiiijjjjjjjjj   ooooooOOOOOOOOOOOO   jjjjjjjj",
"jjjjijjjj   jjjjjjjjiiiiijjjjjjj   ooooooOOOOOOOOOOOO   jjjjjijj",
"jjjjiiijj   jjjjjjjjjiiijjjjjjjj   ooooooOOOOOOOOOOOO   jjjjiiij",
"jjj9ii   888   jjjjjjjjjjjjjjjjj   ooooooOOO   ooooooooo   iiiii",
"ij9iii   888   jjjjjjjjjjjjjjjww   ooooooOOO   ooooooooo   jjjji",
"iiqiii   888   ijjjiijjjjjwjjjjw   ooooooOOO   ooooooooo   jjjjj",
"iii   888lll   jjjjiijjjjiiwww  oooooooooOOOOOOOOOOOO        iji",
"jjj   888lll   jjjjjjwwiiiiiii  oooooooooOOOOOOOOOOOO        jjj",
"jjj   ooolll         jiiiiiiii  888888lllllllllllllllllllll  jjj",
"jjj   ooolll         wwiiiiiii  888888lllllllllllllllllllll  jjj",
"jjj   ooolll         wwiiiiiii  888888lllllllllllllllllllll  jjj",
"jjj   ooooooOOOOOOOOO                 888888lllllllll      jjjjj",
"wjj   ooooooOOOOOOOOO                 888888lllllllll      jjjjw",
"wwj   ooooooOOOOOOOOO                 888888lllllllll      jwjww",
"wwj   ooooooOOOOOOooo   oooooooooooooo               j0000wjwwww",
"jjj   ooooooOOOOOOooo   oooooooooooooo               0ww0iwjjwww",
"jjj   ooooooOOOOOOooo   oooooooooooooo               www0jjjjjjj",
"jjjjjj   ooooooooo   oooooooooooOOOOOOOOOOOOllllll   w00jkjjjjjj",
"jjjjji   ooooooooo   oooooooooooOOOOOOOOOOOOllllll   wwjjjjjjjjj",
"jjjjji   ooooooooo   oooooooooooOOOOOOOOOOOOllllll   0jjj0jjjjjj",
"jjjjjjjij            oooooooooOOOOOOOOooo888888      jjj0ijkjjjj",
"0iiiijjjj            oooooooooOOOOOOOOooo888888      jj00ijjkjjk",
"iiijjjjjj            oooooooooOOOOOOOOooo888888      w0wwjjwjjj0",
"iiijjjjjjjjjjjjjji   ooo           OOO         ooo   iiwwwwjjj00",
"iijjjjjjjjiijjjjjj   ooo           OOO         ooo   ijiiiijj0ww",
"ijjjjjjiiiiiiiijjj   ooo           OOO         ooo   jjiiijjiiiw",
"ijjiiiiiiiiiiiiiii   ...   ...     XXX   &&&   XXX   ujiijjjiiii",
"jjjijjjjjiiiiijie2   ...   ...     XXX   &&&   XXX   @4ejjjjjjjj",
"jjiijjjjjjjiiia3&+   ...   ...     XXX   &&&   XXX   +&&3ajjjjjj",
"jjijjjjjjjjjii,&&&      &&&   &&&&&      &&&&++      &&&&,jjjjjj",
"jjjjjjjjjjjjjj1&&&      &&&   &:&&&      &&++&&      +&&&,jjjjjj",
"jjjjjjjjjjjjjjg3&&      &&&   &::&&      &&&+++      +&&3ajjjjjj",
"jjjjjjjjjjjjjikjs4*&&&&&&&&&+&+:&&&::&&&&&&&&&&&++&&+*4pjjjjqqjj",
"jjjjjjjjjjjjjiiikjhd6<-&&&&&++++&++:&&::++++&++++#<6phjjjjjjjqqj",
"jjjjjjjjjjjjjjjikkikjjjfat7521%$#=*++@=#;>1257tryiijjjjjjjjjjjiq",
"jjjjjjjjjjjjjiiijiiiijjjjjjjiiiijjjjiiijjjjjjjjijjijjjjjjjjjjjii",
"jjjjjjjjjjjjiiiiijjiiijjjjjiiiiijjjjjjjjjjjjjjijjjjijjjjijjjjjji",
"jjjjjjjjjiiiijjiijjjjjjjjjjjjjiijjjjjjjiijiijjjjjjjjjjjjjjjjjjjj",
"jjjjjjjjjjjiijiijjjjjjjjjjjjjiijjjjjjjjjiiijjjjjjjjijjjjjjjjjjjj",
"jjjjjjjjjjiijjijjjjjjjjjjjjjjijjjjjjijjjjjjjjjjjjjjjjjjjjjjjjjjj",
"jjjjjjj0jjiiwjjjjjjjjjjjjjjjjjjjjjjjjjjjjjjjjjjjijjjjijjjjijkjjj"
};
