/* XPM */
static const char *c2JrX3lyc2coMSk__67abe7408820a[] = {
/* columns rows colors chars-per-pixel */
"64 64 48 1 ",
"  c #2F2F2E",
". c #3B3B39",
"X c #4F4F4E",
"o c #9D5021",
"O c #D67941",
"+ c #6F8760",
"@ c #708961",
"# c #758F64",
"$ c #799568",
"% c #838F5C",
"& c #84915D",
"* c #8A9761",
"= c #8F9D64",
"- c #919361",
"; c #96A568",
": c #9DAD6D",
"> c #84A371",
", c #86A472",
"< c #8BAC77",
"1 c #90B17B",
"2 c #93B57D",
"3 c #94B77E",
"4 c #A6B673",
"5 c #ABBC76",
"6 c #B0B374",
"7 c #AFC079",
"8 c #B0C27A",
"9 c #B9CB7F",
"0 c #96B980",
"q c gray72",
"w c #90CB8B",
"e c #8FC193",
"r c #8FC79A",
"t c #9EDC9E",
"y c #A4CA8B",
"u c #A6CD8D",
"i c #AAD291",
"p c #ADD693",
"a c #B1DA96",
"s c #B5E09A",
"d c #C6DA88",
"f c #CBDF8B",
"g c #D9DC8D",
"h c #CEE38D",
"j c #D3E890",
"k c #D8EE94",
"l c #F0F49C",
"z c white",
/* pixels */
"kkkkkkkkkssttllkkkkkkkkkkkkkkkkkkkkkkkkkkkkkkkkkkkkkkkkkkkkkkkkk",
"kkkkkkkkkksttlkkkkkkkkkkkkkkkkkkkkkkkkkkkkkkkkkkkkkkkkkkkkkkkkkk",
"kkkkkkkkkkstttkkkkkkkkkkkksssssssskkkklkkkkkkkkkkkkkkkkkkskkkktt",
"sskkkkkkksskttkekkkkkkkkksssssskkkkkkkkkkkkkktkkkkkkkkeskkkkksss",
"ssssskkkkkkkkettstkkkssssssssskkkkkkkkkkkkkkkkkkkttekeekkkkkssss",
"ssssskkkkkkkkkssssssssssssskssssskkkkkkkkkkkkkkkkktteekkkkkkskks",
"ksssskkkkrkkkkssssssssskttkkkkkkkkkkkkkkkkkkkkkkkkktttekkkrkkkkk",
"kksssskkkkskkkksssstkllkkkkkkkkkkkkkkkkkkkkkkkkkkttttttekkkkkkkk",
"kksssskkkkrkkkksssstkkkkkkkkkkkkkkktkkkkkkkkskkkkttttttekkkkkkkk",
"kkkkkkkkkkkkkkkksstkkkkkkkkkkktkkkkttktkkkkkskeeesssttskkkkkkkkk",
"sskkkkkkkkkkkkkksttkk      skkkkkktstkkkkkksekkttlssstkkkkkkkkkk",
"ttkkkkkkkkkkkkkskkkkk      skkktstskkkkttkkeskkttsssssttkkkklkkk",
"kkkkkkkkkkkkkkkkkkkkk      kkkkksskkkkkktkttkketssllsststkkllkkk",
"lkkkkk         kkkkkk   ooo   kkskkkkkkkstkketttsssssssttllksesk",
"lkkkkk         kkkkkk   ooo   kkkkkkkkkkssssssssssssssssteteeskk",
"kkkkkk         kkkkkk   ooo   kkkkkkkkksssssssssssssssssstttkkkk",
"klklkk   OOOooo   kkk   zzzooo   skkkkklksssskkssssskkkkktttkkll",
"klkllk   OOOooo   kkk   zzzooo   kkklkkkssskkkkkkksskkkkkkkttllk",
"keeeek   OOOooo   kkk   zzzooo   skkkkkkskkkkkkkkksskkkkkkkkkktt",
"eesekkkkk               zzzooo   sskkkkkkkkkkkkkkkkskkkk      te",
"ssslkkkkk               zzzooo   ssskkkkkkkkkkkkkkkkkkkk      kt",
"ssskeekkk               zzzooo   kkkkkkkkkkkkkkkkkkkkkkk      kk",
"ssssssskk   OOOOOOOOOOOOoooooo   kkkkkkkkkkkkkk         qqq   kk",
"kssssskkk   OOOOOOOOOOOOoooooo   kkkkkkkkkkkkkk         qqq   kk",
"kkkkskkkk   OOOOOOOOOOOOoooooo   kkkkkkkkkkkkkk         qqq   kk",
"kkkkss   ooooooooo   OOOoooooo   kkktttkkkkk   OOOzzzzzzqqq   sk",
"kkkwss   ooooooooo   OOOoooooo   kkrstkkkkkk   OOOzzzzzzqqq   ss",
"skwsss   ooooooooo   OOOoooooo   krssstkkkkk   OOOzzzzzzqqq   ks",
"ssr         OOOOOOOOOOOOooooooooo  sssttk   OOOOOOoooqqq   kkkkk",
"sss         OOOOOOOOOOOOooooooooo  sssttt   OOOOOOoooqqq   kssks",
"kkk         OOOOOOOOOOOOooooooooo  stktkk   OOOOOOoooqqq   kkkkk",
"kkk   zzzzzzzzzzzzzzzzzzzzzqqqqqq  stk   OOOOOOOOOooo   kkkkkkkk",
"kkk   zzzzzzzzzzzzzzzzzzzzzqqqqqq  sst   OOOOOOOOOooo   kkkkkkkk",
"kkkkkk      zzzzzzzzzqqqqqq              OOOOOOoooooo   kkkkkkkk",
"kkkkss      zzzzzzzzzqqqqqq              OOOOOOoooooo   kkkkkkkk",
"tkkksk      zzzzzzzzzqqqqqq              OOOOOOoooooo   kkkkkkkt",
"ttkkkkkkkkkk               oooooooooooooo   oooooo   esskkkktktt",
"ttkkkkkkkkkk               oooooooooooooo   oooooo   keeeetktttt",
"kkkkkkkkkkkk               oooooooooooooo   oooooo   ettestkkttt",
"kkkkkkkkkkkk   zzzzzzOOOOOOOOOOOOooooooooooo      kletttekkkkkkk",
"kkkkkksstttt   zzzzzzOOOOOOOOOOOOooooooooooo      rttteeklkkkkkk",
"kkkkksssssss   zzzzzzOOOOOOOOOOOOooooooooooo      tttttkkkkkkkkk",
"kkkkkskssskk      qqqqqqoooOOOOOOOOooooooooo   kkssstekkkekkkkkk",
"kkkkkkkskkkk      qqqqqqoooOOOOOOOOooooooooo   skssstkkkesklkkkk",
"esssskkkkkkk      qqqqqqoooOOOOOOOOooooooooo   kkksstkkeeskklkkl",
"ssskkkkkkkkk   ooo         OOO           ooo   sskssstettkktkkke",
"ssskkkkkkkkk   ooo         OOO           ooo   kkssssssttttkkkee",
"sskkkkkkkkss   ooo         OOO           ooo   kssskksksssskkett",
"skkkkkksssss   XXX   %%%   XXX     ...   ...   kkkkkskkssskkssst",
"skkssssssssi   XXX   %%%   XXX     ...   ...   fkskkksksskkkssss",
"kkkskkkkka3@   XXX   +%%   XXX     ...   ...   @3asksskskkkkkkkk",
"kksskkkkk5%+      +++%%%      %%%++   %%%      %+1sssskkkkkkkkkk",
"kkskkkkkk&%%      %+%%%%      %%%%%   %%%      %%@ssskkkkkkkkkkk",
"kkkkkkkkk5%%      %%%%%%      %-%%%   %%%      ++1sssskkkkkkkkkk",
"kkkkkkkkkj8&%%-%%%%%%%%%%%%%%%%--%%%%%-%%%%%+++@3asssskkkkkkkkkk",
"kkkkkkkkkkkf7$-%-%%%%%%%%%%%+%+-%%%--%%%%%%%%=7fsskkskkkkkkkrrkk",
"kkkkkkkkkkkkksu06*%-%%%%%%%%++++%++-%%--+#,0dssssskkkkkkkkkkkrrk",
"kkkkkkkkkkkkkkksllpg974:;=*&@+@@#=;><29yhksskkksssskkkkkkkkkkksr",
"kkkkkkkkkkkkksssksssskkkkkkksssskkkkssskkkkkkkkskkskkkkkkkkkkkss",
"kkkkkkkkkkkkssssskkssskkkkkssssskkkkkkkkkkkkkkskkkkskkkkskkkkkks",
"kkkkkkkkksssskksskkkkkkkkkkkkksskkkkkkkssksskkkkkkkkkkkkkkkkkkkk",
"kkkkkkkkkkkssksskkkkkkkkkkkkksskkkkkkkkkssskkkkkkkkskkkkkkkkkkkk",
"kkkkkkkkkksskkskkkkkkkkkkkkkkskkkkkkskkkkkkkkkkkkkkkkkkkkkkkkkkk",
"kkkkkkkekksstkkkkkkkkkkkkkkkkkkkkkkkkkkkkkkkkkkkskkkkskkkksklkkk"
};
