/* XPM */
static const char *c2JrX3lyc2c__67a3b304690f8[] = {
/* columns rows colors chars-per-pixel */
"64 64 44 1 ",
"  c #2F2F2E",
". c #3B3B39",
"X c #4F4F4E",
"o c #9D5021",
"O c #D67941",
"+ c #688258",
"@ c #6A855A",
"# c #6C875B",
"$ c #6F8A5D",
"% c #7E8B54",
"& c #7E8C55",
"* c #799766",
"= c #808D56",
"- c #8C8E59",
"; c #829057",
": c #839158",
"> c #859359",
", c #89975C",
"< c #8A985D",
"1 c #91A062",
"2 c #9CAC6A",
"3 c #8AAB75",
"4 c #8FB279",
"5 c #90B27A",
"6 c #93B67D",
"7 c #A5B670",
"8 c #ABBD74",
"9 c #ACBE75",
"0 c #B0C278",
"q c gray72",
"w c #9EC487",
"e c #90CB8B",
"r c #8FC193",
"t c #8FC79A",
"y c #9EDC9E",
"u c #BDD181",
"i c #ABD492",
"p c #B1DB96",
"a c #B5E09A",
"s c #CDE18C",
"d c #D3E991",
"f c #D8EE94",
"g c #F0F49C",
"h c white",
/* pixels */
"fffffffffaayyggfffffffffffffffffffffffffffffffffffffffffffffffff",
"ffffffffffayygffffffffffffffffffffffffffffffffffffffffffffffffff",
"ffffffffffayyyffffffffffffaaaaaaaaffffgffffffffffffffffffaffffyy",
"aafffffffaafyyfrfffffffffaaaaaaffffffffffffffyffffffffrafffffaaa",
"aaaaaffffffffryyayff      aaaafffffffffffffffffffyyrfrrfffffaaaa",
"aaaaafffffffffaaaaaa      afaaaaafffffffffffffffffyyrrffffffaffa",
"faaaafffftffffaaaaaa      fffffffffffffffffffffffffyyyrffftfffff",
"ffaaaa         aaaay   ooo   ffffffffffffffffffffyyyyyyrffffffff",
"ffaaaa         aaaay   ooo   ffffffyffffffffaffffyyyyyyrffffffff",
"ffffff         faayf   ooo   fyffffyyfyfffffafrrraaayyafffffffff",
"aaffff         fayyf   ooo   fffffyayffffffarffyygaaayffffffffff",
"yyffff   OOOooo  fff   hhhooo   ayaffffyyffraffyyaaaaayyffffgfff",
"ffffff   OOOooo  fff   hhhooo   aaffffffyfyyffryaaggaayayffggfff",
"gfffff   OOOooo  fff   hhhooo   afffffffayffryyyaaaaaaayyggfaraf",
"gffffffff              hhhooo   ffffffffaaaaaaaaaaaaaaaayryrraff",
"fffffffff              hhhooo   fffffffaaaaaaaaaaaaaaaaaayyyffff",
"fgfgfffff              hhhooo   aafffffgfaaaaffaaaaafffffyyyffgg",
"fgfggffff              hhhooo   afffgfffaaafffffffaafffffffyyggf",
"frrrrffff   OOOOOOOOOOOoooooo   aaffffffafffffffffaa   fffffffyy",
"rrarfffff   OOOOOOOOOOOoooooo   aaaffffffffffffffffa   fffffffyr",
"aaagfffff   OOOOOOOOOOOoooooo   faaaffffffffffffffff   ffffffffy",
"aaafrr   oooooooo   OOOoooooo   fffffffffffffffff   qqq   ffffff",
"aaaaaa   oooooooo   OOOoooooo   fffffffffffffffff   qqq   ffffff",
"faaaaa   oooooooo   OOOoooooo   fffffffffffffffff   qqq   ffffff",
"ffffaf   oooooooo   OOOoooooo   fffffffffffffffff   qqq   fffaff",
"fff         OOOOOOOOOOOooooooooo   fyyyffffffffff   hhhqqq   aaf",
"fff         OOOOOOOOOOOooooooooo   tayfffffffffff   hhhqqq   aaa",
"afe         OOOOOOOOOOOooooooooo   aaayffffffffff   hhhqqq   ffa",
"aat   hhhhhhhhhhhhhhhhhhhhqqqqqq   aaayyffff        hhhooo   fff",
"aaa   hhhhhhhhhhhhhhhhhhhhqqqqqq   aaayyyfff        hhhooo   afa",
"fff   hhhhhhhhhhhhhhhhhhhhqqqqqq   ayfyffggf        hhhooo   fff",
"fff   hhhhhhhhhhhhhhhhhhhhqqqqqq   ayfffgggf        hhhooo   fff",
"ffffff      hhhhhhhhqqqqqq                  OOOOOOOOoooooo   fff",
"ffffff      hhhhhhhhqqqqqq                  OOOOOOOOoooooo   fff",
"ffffaa      hhhhhhhhqqqqqq                  OOOOOOOOoooooo   fff",
"yfffaf      hhhhhhhhqqqqqq                  OOOOOOOOoooooo   ffy",
"yyffffffffff              ooooooooooooooo   oooOOOOOoooooo   fyy",
"yyffffffffff              ooooooooooooooo   oooOOOOOoooooo   yyy",
"ffffffffffff              ooooooooooooooo   oooOOOOOoooooo   yyy",
"ffffffffffff   hhhhhOOOOOOOOOOOOoooooooooooo   oooooooo   ffffff",
"ffffffaayyyy   hhhhhOOOOOOOOOOOOoooooooooooo   oooooooo   ffffff",
"fffffaaaaaaa   hhhhhOOOOOOOOOOOOoooooooooooo   oooooooo   ffffff",
"fffffafaaaff   hhhhhOOOOOOOOOOOOoooooooooooo   oooooooo   ffffff",
"fffffffaffff     qqqqqqoooOOOOOOOOOooooooooo           frafgffff",
"raaaafffffff     qqqqqqoooOOOOOOOOOooooooooo           rraffgffg",
"aaafffffffff     qqqqqqoooOOOOOOOOOooooooooo           yyffyfffr",
"aaafffffffff   oo         OOO            ooo   ffaaaaaayyyyfffrr",
"aaffffffffaa   oo         OOO            ooo   faaaffafaaaaffryy",
"affffffaaaaa   oo         OOO            ooo   fffffaffaaaffaaay",
"affaaaaaaaaa   oo         OOO            ooo   ffafffafaafffaaaa",
"fffafffffaaa   XX   ++%   XXX      ...   ...   aaaafaafaffffffff",
"ffaafffffff5   XX   +%%   XXX      ...   ...   faaaaaaffffffffff",
"ffaffffff0>%   XX   %%%   XXX      ...   ...   >0aaaafffffffffff",
"ffffffff7%%%     %%%%%%      %%-%%%   %%%      ++3aaaaffffffffff",
"ffffffff=%%%     %%%%%%      %%--%%   -%%      ++@aaaaffffffffff",
"ffffffff=%%%     %%%%%%      %+-%%%   %%%      %+@ffafffffffttff",
"ffffffff7%%%     %%-%%%      +++%++   --+      ++3fffffffffffttf",
"fffffffff0>%%%%+--+-%%%%%%%%+++++%%+++%+%%++%%%$6aafffffffffffat",
"fffffffffff9<+++%++++%%%%%%%++++%%%%+++%%%%%%<9affafffffffffffaa",
"ffffffffffffai4*#%%+++%%%%%+++++%%%%%%%%%;18sfaffffaffffaffffffa",
"fffffffffaaaaffaadu821,:=&%%%%++&=:,128wpfaaffffffffffffffffffff",
"fffffffffffaafaafffffffffffffaafffffffffaaaffffffffaffffffffffff",
"ffffffffffaaffaffffffffffffffaffffffafffffffffffffffffffffffffff",
"fffffffrffaayfffffffffffffffffffffffffffffffffffaffffaffffafgfff"
};
