/* XPM */
static const char *c2JrX2V2dHVn_67a3b4a511722[] = {
/* columns rows colors chars-per-pixel */
"64 64 44 1 ",
"  c black",
". c #181817",
"X c #252524",
"o c #2F2F2E",
"O c #3B3B39",
"+ c #4F4F4E",
"@ c #9D5021",
"# c #D67941",
"$ c #688258",
"% c #6A855A",
"& c #6D885C",
"* c #7E8B54",
"= c #728E60",
"- c #789666",
"; c #808D56",
": c #8C8E59",
"> c #829057",
", c #859359",
"< c #8F915B",
"1 c #8A985D",
"2 c #82A26E",
"3 c #91A162",
"4 c #9CAC6A",
"5 c #8AAB75",
"6 c #8FB279",
"7 c #90B27A",
"8 c #A5B670",
"9 c #ABBD75",
"0 c #ACBE75",
"q c #B0C278",
"w c gray72",
"e c #9EC487",
"r c #90CB8B",
"t c #8FC193",
"y c #8FC79A",
"u c #9EDC9E",
"i c #BDD181",
"p c #B1DB96",
"a c #B5E09A",
"s c #CDE18C",
"d c #D3E991",
"f c #D8EE94",
"g c #F0F49C",
"h c white",
/* pixels */
"fffffffffaauuggfffffffffffffffffffffffffffffffffffffffffffffffff",
"ffffffffffauugffffffffffffffffffffffffffffffffffffffffffffffffff",
"ffffffffffauuuffffffffffffaaaaaaaaffffgffffffffffffffffffaffffuu",
"aafffffffaafuuftfffffffffaaaaaaffffffffffffffufffffffftafffffaaa",
"aaaaafffffffftuuaufffaaaaaaaaafffffffffffffffffffuutfttfffffaaaa",
"aaaaafffffffffaaaaaaaaaaaaafaaaaafffffffffffffffffuuttffffffaffa",
"faaaaffffyffffaaaaaaaaafuufffffffffffffffffffffffffuuutfffyfffff",
"ffaaaaffffaffffaaaaufggffffffffffffffffffffffffffuuuuuutffffffff",
"ffaaaaffffyffffaaaaufffffffffffffffufoooooofaffffuuuuuutffffffff",
"ffffffffffffffffaaufffffffffffuffffuuoooooofaftttaaauuafffffffff",
"aaffffffffffffffauuffffffffaffffffuauooooooatffuugaaauffffffffff",
"uufffffffffffffafffffffffffafffuauooo@@@oootaffuuoooooooooffgfff",
"ffffffffffffffffffffffffffffffffaaooo@@@oooufftuaooooooooofggfff",
"gfffffffffffffffffffffffffffffffafooo@@@oooftuuuaooooooooogfataf",
"gffffffffffffffffffffffffffffffooo@@@hhhoooaaaooo@@@###ooouttaff",
"fffffffffffffffffffffffffafffffooo@@@hhhoooaaaooo@@@###ooouuffff",
"fgfgffffffffffffffffffffaafffffooo@@@hhhoooaafooo@@@###ooouuffgg",
"fgfggfffffffffffffffffffaaaaaaaooo@@@hhhoooooooooooooooffffuuggf",
"fttttffffffffffffffffffaaaaaaaaooo@@@hhhooooooooooooooofffffffuu",
"ttatfffffffffffffffffffaaaaaaaaooo@@@hhhooooooooooooooofffffffut",
"aaagffffffffffffffffaaaauufffffooo@@@@@@############oooffffffffu",
"aaafttffffffffffaaaaaaaufffffffooo@@@@@@############ooofffffffff",
"aaaaaaafffffffaaaaaaaauffffffffooo@@@@@@############ooofffffffff",
"faaaaafffffoooooooooaaaffffffffooo@@@@@@###ooo@@@@@@@@@oooffffff",
"ffffaffffffoooooooooaaaaaffffffooo@@@@@@###ooo@@@@@@@@@ooofffaff",
"ffffaaaffffooooooooofaaafffffffooo@@@@@@###ooo@@@@@@@@@oooffaaaf",
"fffraaaaooo#########oooffffffoo@@@@@@@@@############oooooooooaaa",
"afraaaaaooo#########oooffffffoo@@@@@@@@@############oooooooooffa",
"aayaaaaaooo#########ooofffuffoo@@@@@@@@@############ooooooooofff",
"aaaaaooo###############oooauuoowwwwwwhhhhhhhhhhhhhhhhhhhhhoooafa",
"fffffooo###############oooaaaoowwwwwwhhhhhhhhhhhhhhhhhhhhhooofff",
"ffffaooo###############oooaaaoowwwwwwhhhhhhhhhhhhhhhhhhhhhooofff",
"ffooowwwwww@@@@@@######oooooooooooooowwwwwwhhhhhhhhhooooooffffff",
"ffooowwwwww@@@@@@######oooooooooooooowwwwwwhhhhhhhhhooooooffffff",
"ffooowwwwwwoooooo@@@ooo@@@@@@@@@@@@@@oooooooooooooooffffffffffff",
"ufooowwwwwwoooooo@@@ooo@@@@@@@@@@@@@@ooooooooooooooofffffffffffu",
"uuooowwwwwwoooooo@@@ooo@@@@@@@@@@@@@@oooooooooooooooftaaffffufuu",
"uuooowwwooofuuufuooo@@@@@@@@@@@############hhhhhhoooffttttufuuuu",
"ffooowwwoooffuuuuooo@@@@@@@@@@@############hhhhhhooottuutauffuuu",
"ffooowwwooofuuaaaooo@@@@@@@@@@@############hhhhhhoootuuutfffffff",
"ffoooooouuuuuaaaaooo@@@@@@@@@########@@@wwwwwwoooooouuttfgffffff",
"ffooooooaaaaaafaaooo@@@@@@@@@########@@@wwwwwwoooooouuufffffffff",
"ffooooooaaffffffaooo@@@@@@@@@########@@@wwwwwwooooooutffftffffff",
"fffffffafffffffaaooo@@@ooooooooooo###ooooooooo@@@ooouffftafgffff",
"taaaaffffffffffffooo@@@ooooooooooo###ooooooooo@@@ooouffttaffgffg",
"aaaffffffffffffffooo@@@ooooooooooo###ooooooooo@@@oooautuuffuffft",
"aaaffffffffffffffoooOOOoooOOOooooo+++ooo***ooo+++Xooaaauuuuffftt",
"aaffffffffaafffffoooOOOoooOOOooooo+++ooo$*$ooo+++  .0afaaaafftuu",
"affffffaaaaaaaaq,oooOOOoooOOOooooo+++ooo**$ooo+++   $,qaaaffaaau",
"affaaaaaaaaaaa5$$oooooo***ooo*****oooooo******      *$*5afffaaaa",
"fffafffffaaaaa;$$oooooo***ooo*****oooooo******      $$*%ffffffff",
"ffaafffffffaaa;**oooooo***ooo****$oooooo******      $$*;ffffffff",
"ffafffffffffaa8****$*************************$$**$$$$**8ffffffff",
"ffffffffffffffaq,**************:***********$$**$$$$$$&qfffffffff",
"ffffffffffffffgff01************::*****:*****$$$$$$$=7affffffffff",
"fffffffffffffagfgffs93>*****$*$:***::**********>-6sfafffffffyyff",
"fffffffffffffaaagffgfffdi943=&%$*$$:**:<&=-29epaaafffffffffffyyf",
"fffffffffffffffaggagffffffffaaaaaffaaafaffaafffaaaafffffffffffay",
"fffffffffffffaaafaaaafffffffaaaaffffaaaffffffffaffafffffffffffaa",
"ffffffffffffaaaaaffaaafffffaaaaaffffffffffffffaffffaffffaffffffa",
"fffffffffaaaaffaafffffffffffffaafffffffaafaaffffffffffffffffffff",
"fffffffffffaafaafffffffffffffaafffffffffaaaffffffffaffffffffffff",
"ffffffffffaaffaffffffffffffffaffffffafffffffffffffffffffffffffff",
"ffffffftffaaufffffffffffffffffffffffffffffffffffaffffaffffafgfff"
};
