/* XPM */
static const char *dGViaGFxX2d2eXJm_67a39bf023764[] = {
/* columns rows colors chars-per-pixel */
"64 64 7 1 ",
"  c #90CB8B",
". c #8FC193",
"X c #8FC79A",
"o c #9EDC9E",
"O c #B5E09A",
"+ c #D8EE94",
"@ c #F0F49C",
/* pixels */
"+++++++++OOoo@@+++++++++++++++++++++++++++++++++++++++++++++++++",
"++++++++++Ooo@++++++++++++++++++++++++++++++++++++++++++++++++++",
"++++++++++Oooo++++++++++++OOOOOOOO++++@++++++++++++++++++O++++oo",
"OO+++++++OO+oo+.+++++++++OOOOOO++++++++++++++o++++++++.O+++++OOO",
"OOOOO++++++++.ooOo+++OOOOOOOOO+++++++++++++++++++oo.+..+++++OOOO",
"OOOOO+++++++++OOOOOOOOOOOOO+OOOOO+++++++++++++++++oo..++++++O++O",
"+OOOO++++X++++OOOOOOOOO+oo+++++++++++++++++++++++++ooo.+++X+++++",
"++OOOO++++O++++OOOOo+@@++++++++++++++++++++++++++oooooo.++++++++",
"++OOOO++++X++++OOOOo+++++++++++++++o++++++++O++++oooooo.++++++++",
"++++++++++++++++OOo+++++++++++o++++oo+o+++++O+...OOOooO+++++++++",
"OO++++++++++++++Ooo++++++++O++++++oOo++++++O.++oo@OOOo++++++++++",
"oo+++++++++++++O+++++++++++O+++oOoO++++oo++.O++ooOOOOOoo++++@+++",
"++++++++++++++++++++++++++++++++OO++++++o+oo++.oOO@@OOoOo++@@+++",
"@+++++++++++++++++++++++++++++++O+++++++Oo++.oooOOOOOOOoo@@+O.O+",
"@+++++++++++++++++++++++++++++++++++++++OOOOOOOOOOOOOOOOo.o..O++",
"+++++++++++++++++++++++++O+++++++++++++OOOOOOOOOOOOOOOOOOooo++++",
"+@+@++++++++++++++++++++OO+++++OOO+++++@+OOOO++OOOOO+++++ooo++@@",
"+@+@@+++++++++++++++++++OOOOOOOOO+++@+++OOO+++++++OO+++++++oo@@+",
"+....++++++++++++++++++OOOOOOOOOOO++++++O+++++++++OO++++++++++oo",
"..O.+++++++++++++++++++OOOOOOOOOOOO++++++++++++++++O++++++++++o.",
"OOO@++++++++++++++++OOOOoo+++++.+OOO+++++++++++++++++++++++++++o",
"OOO+..++++++++++OOOOOOOo++++++++++++++++++++++++++++++++++++++++",
"OOOOOOO+++++++OOOOOOOOo+++++++++++++++++++++++++++++++++++++++++",
"+OOOOO+++++++++++++OOOO+++++++++++++++++++++++++++++++++++++++++",
"++++O+++++++++++++++OOOOO++++++++++++++++++++++++++++++++++++O++",
"++++OOO++++++++++++++OOO++++++++++++ooo+++++++++++++++++++++OOO+",
"+++ OOOOOO++++O++++++++++++++++++++XOo+++++++++++++++++++++OOOOO",
"O+ OOOOOOOOOOOO+++++++++++++++ooo+XOOOo+++++++++++++++++++O++++O",
"OOXOOOOOOOOOOOOO+++OO+++++o++++ooooOOOoo++++++++++++++++++++++++",
"OOOOOOO+++++++O++++OO++++OOooo++oOOOOOooo+++++++++++++++@+O+OO+O",
"++++++O++++++++++++++ooOOOOOOOOOOOOOo+o++@@+++++++++++++++++++++",
"++++OOO++++++o++++++++OOOOOOOOOOOOOOo+++@@@+++++++++++++++++++++",
"++++++O++++++++++++++ooOOOOOOOOOOOOOOo+@+++@++++++++++++++++++++",
"++++++O++++++++++++++ooOOOOOOOOOOOOOOoo+++@@++++++++++++++++++++",
"++++OOO++++++o++++++++OOOOOOOOOOOOOOOOo++@@+++++++++++++++++++++",
"o+++O+++++++oo+++++@oOOOOOOO+OOOO+OOOOOO@@+X+++++++++++++++++++o",
"oo+++++++++++oo++++OOOO+++++OOO++OOOOOOOooXX++@++++++.OO++++o+oo",
"oo++++++++++ooo+oooOOOO+++OO++++++++OOOOOOOoX+@@+++@++....o+oooo",
"+++++++++++++oooooOOOOOO++++++++++OOOOOOOOOOoo++X+@@..oo.Oo++ooo",
"++++++++++++ooOOOOOOOO+++++++++++++O+++OOOOOOOOooX+@.ooo.+++++++",
"++++++OOoooooOOOOOOOOOOO++O+++++++++O+++OOOOOOOOOoXooo..+@++++++",
"+++++OOOOOOOOO+OOOOOOOO+++O++++++++++++++++++++OOOooooo+++++++++",
"+++++O+OOO++++++OOOOOOOO++++++++++++++++O+++OO+++OOOo.+++.++++++",
"+++++++O+++++++OOO+OOO+O+++++++++++++++OOO+++OOO+OOOo+++.O+@++++",
".OOOO++++++++++++++++O++++++++++++++++OOOOO+OOO+++OOo++..O++@++@",
"OOO++++++++++++++++++++++++++++++++++O++++OOOOOOO+OOOo.oo++o+++.",
"OOO++++++++++++++OO++++++++++++++++++++++++OOOO++OOOOOOoooo+++..",
"OO++++++++OO++++++OO+++++++++++++++@+O+OO+OOO+++OOO++O+OOOO++.oo",
"O++++++OOOOOOOO++++OO++++++++++++++@OOOO++OOO+++++++O++OOO++OOOo",
"O++OOOOOOOOOOOOOOOOOO++++++++++++++OOO+++++++++++O+++O+OO+++OOOO",
"+++O+++++OOOOO+OOOOOOO++++++++++++OOOO+++++++++OOOO+OO+O++++++++",
"++OO+++++++OOO+++OOOO++++++++++++OOO++++++++++++OOOOOO++++++++++",
"++O+++++++++OO+++++O+++++++++++++++++++++++++OO++OOOO+++++++++++",
"++++++++++++++O++++++++++++++++@+++++++++++OO++OOOOOOO++++++++++",
"++++++++++++++@++++++++++++++++@@+++++@+++++OOOOOOOOOO++++++++++",
"+++++++++++++O@+@+++++++++++O+O@+++@@+++++++++++OO++O+++++++XX++",
"+++++++++++++OOO@++@++++++++OOOO+OO@++@@OOOO+OOOOO+++++++++++XX+",
"+++++++++++++++O@@O@++++++++OOOOO++OOO+O++OO+++OOOO+++++++++++OX",
"+++++++++++++OOO+OOOO+++++++OOOO++++OOO++++++++O++O+++++++++++OO",
"++++++++++++OOOOO++OOO+++++OOOOO++++++++++++++O++++O++++O++++++O",
"+++++++++OOOO++OO+++++++++++++OO+++++++OO+OO++++++++++++++++++++",
"+++++++++++OO+OO+++++++++++++OO+++++++++OOO++++++++O++++++++++++",
"++++++++++OO++O++++++++++++++O++++++O+++++++++++++++++++++++++++",
"+++++++.++OOo+++++++++++++++++++++++++++++++++++O++++O++++O+@+++"
};
