/* XPM */
static const char *ZWJweA___67a3e01f14dd1[] = {
/* columns rows colors chars-per-pixel */
"64 64 61 1 ",
"  c #9F9457",
". c #A4964B",
"X c #A4944C",
"o c #A49F49",
"O c #A09754",
"+ c #A29A51",
"@ c #9AAD51",
"# c #A5A249",
"$ c #A79C67",
"% c #93AC6E",
"& c #A9A965",
"* c #B9A863",
"= c #A2B06C",
"- c #BDBA6B",
"; c #CAB775",
": c #CCBA76",
"> c #CDBD77",
", c #C7B47E",
"< c #CBBB7A",
"1 c #CEBF78",
"2 c #CBC97B",
"3 c #CECF7D",
"4 c #B2BB8D",
"5 c #B3BF8F",
"6 c #B1BC90",
"7 c #C6B280",
"8 c #C4BD86",
"9 c #C7C283",
"0 c #C7C184",
"q c #D4C983",
"w c #DCC58C",
"e c #D4CA8A",
"r c #DFCC8F",
"t c #D9D287",
"y c #DFD193",
"u c #E1CF91",
"i c #E3D392",
"p c #E6D795",
"a c #E7D895",
"s c #E8DA96",
"d c #E9DD97",
"f c #E3D49B",
"g c #E4D49B",
"h c #E2D19C",
"j c #E7D59C",
"k c #E7D999",
"l c #E8DA99",
"z c #EADE98",
"x c #E9D89E",
"c c #EADBA0",
"v c #E8DDA2",
"b c #EEE1A3",
"n c #E6EAA8",
"m c #F0E4A5",
"M c #F7F0AB",
"N c #F1E7B7",
"B c #F2E9B7",
"V c #F9F6B4",
"C c #FDFBB3",
"Z c #FFFFB3",
"A c #FFF7C1",
/* pixels */
"5551zzZzzz1555111zz551tZZzzzzzzz*555#1Zz5**zz55zZzzzZ##z11zzzzzz",
"555555z155z155z5555555#ttZzzzzznz55555@1*Zzzzz51zzzzzZ551ZzzznZz",
"5555z555=5555555555#55##1ttZZzzzz555z*ZZZZzZzZz5ZzzzzZ5#1ZzZzzZz",
"51zzzZ1z115#555555zt5155#11ttZzz11*zZZZzZzZzZZz5ZZzzzzZ5#Zzzzzzz",
"1zZzZzZ1z15555551zttt5555#######1*ZzZzZ1zzzzzzz51Zzzzz#5#ZzzzzzZ",
"ZZzzZz111z15##11zzzZtt555#####=51ZzzZz11zzZzZz15#1zzZZ##1Zz-zZ1z",
"Zzzzz11ZZzz1551ZZzzZz1551ZZ555tt1zzzz11zzzzZz1#55#1zz#5#1zzzzzzz",
"1zzzzzzZzzz1#5ZZzzzz11511zzz5551#zzzzzzzzz11*#z551#1##5##1ZZzzz1",
"zZzzzZZZzzZ#55z1zzzzzz5551znz555#ZzzzZzZZ1###5555*551555##11z#*5",
"1ZZzzzZ1z#1#551zZzzzZZ5555555555##ZzzzZ1***5551**115555555###355",
"##ZZZzz11#5=5#1tzzzzz15z55z51155###ZZzz*55z555**vZz11155555*#=5*",
"5##11111#5555551tztt155A55z111555###11*#5zZ15#ZZZzZzz555511*1155",
"z3-#####55555555111155-z5----555z3#####55Z115ZZzZzzZZz55511n1z55",
"zz35555zz5555555555555555--z-*5zzz3-555zz11&ZZZzzzZzzZ155ZzZzz15",
"1Zzz55zzzz5555#55555555555-z-5zzzZzz55zzz5#ZZzzzzzZzZzt*ZZZznZ31",
"ZZzzz5zzzz55zzZz#55z555555555ZzzzZz1z5zzzz=ZzzZzzzzZZtt#ZzznZZ31",
"zzZZy555555ZzZzzzz55##1111155ZzzzzZZ155555ZzZzzzzzZzzt##zznZZ#11",
"#zz#55#t*55Ztzzzzz55tzzzzz1z5ZzZzzz#15#y*5ZzzzZzZ1zztt$5#zn1#11%",
"5##5551zz-51ZZzzzzz#1zzzzzAz5zzzzz#151zzz-#Zzzzzzzzztt555###1111",
"5555551zzz5#ttzzzzz#1tz>zzzz5#zzz11551z1zz5ZzZzzZZztqX5555555z55",
"11*5551zzzz#1tZzzzzt#11tzzz55#1z:155511zz1z#zzzZztt115555##*#55y",
"z1n55551zt*4#1tZZz1#5##111555##115###51zzz151*ZZZZ##5555****##*y",
"1zzn1555**555#1111##555#55*555##1#rpd551zz15##***##555**>;c**##%",
"ZZzzn1#5555555####555555511**55#m1zAzA541115513#o11555*1ZzZc**##",
"zZnnz1=555555555555555111zZv*1551ZnzzzA5555555=##5155*1ZzzZzz**#",
"zzZnz15zzzz5555111#55**ZzZzzz1551ZZnzz5zzz55551**#555*1zzZzzzz*#",
"zzZnz#5zzzzu5511111#5*ZZZzzZzz15#1Znz151zzz551Z1**#5**zZzzzzzz*1",
"zzzz#55tZzzz.1Zzzz1##1MzzZzZZzz51#11#551Azzz#1Zzz**5*1Zzzzzzzzz5",
"####555tZzzz52Zzzzz1#11ZdZzZzzz551##555#11z#53Znzz*#11Zzzzzzzzz5",
"55555*55tZtt53ZZzzz1#*1zZzzzzzzz55511*55###153ZZZz1*#tZzZzzzzzzz",
"551*zz*555#5511ZZZzz1*1zZZzzzzzz551zZv1555551##ZzZz**#tZzzzzzzzz",
"5z1zzz1555555#1ZZzzz1#11zZ1Zz1zzz51Zz11555555#11Zzzw1$#tZZzZzzz5",
"*55511Zz5*Z11551ZzzzZ1**Zzzzzzzz*555#1Zz5**zz55zZzzzZ##z11zzzzzz",
"z55555**5Zzzz151sddazj#*bZzzz1zzz55555@1*Zzzzz51zzzzzZ551ZzzznZz",
"z555**ZZZZzzzz11ZZzzzz#*aZzZzzzzz555z*ZZZZzZzZz5ZzzzzZ5#1ZzZzzZz",
"111**ZZzZzZzzz11Zzzzzzx**Zzzzzzz11*zZZZzZzZzZZz5ZZzzzzZ5#Zzzzzzz",
"1*1ZZzZ1zzzzzzz#1ZZzzi#**Zzzzzzz1*ZzZzZ1zzzzzzz51Zzzzz#5#ZzzzzzZ",
"11zzZzzzzzZzZz15#ZzzZZ##1Zz1zzzz1ZzzZz11zzZzZz15#1zzZZ##1Zz-zZ1z",
"*Zzzz1zZzzzZzz#55#Zzz15#*1zzzzzz1zzzz11zzzzZz1#55#1zz#5#1zzzzzzz",
"#ZzZzzzzzZZzz#z555#*##5##*ZZzz**#zzzzzzzzz11*#z551#1##5##1ZZzzz1",
"#ZZzZZzZZZ1##55555555555###11**5#ZzzzZzZZ1###5555*551555##11z#*5",
"#1ZZzzZZ11#5555**115555555#*#555##ZzzzZ1***5551**115555555###355",
"##1ZZZZ1#5z555**vZz1115555555555###ZZzz*55z555**vZz11155555*#=5*",
"5##111*#5zZ15*ZZZzZzz555511111555###11*#5zZ15#ZZZzZzz555511*1155",
"z3#####55Z1<*ZZzZzkZZz5551Zz1155z3#####55Z115ZZzZzzZZz55511n1z55",
"fz3-555zz1,*ZZZzzzZzzZ155Zzzz115zz3-555zz11&ZZZzzzZzzZ155ZzZzz15",
"zVzz55zzz5*ZZzzzzzZzVzt*ZZZ1zz95zZzz55zzz5#ZZzzzzzZzZzt*ZZZznZ31",
"zBzz*51z55*ZglZzkzzzZ1t#ZzzzzZ85zZz1z5zzzz=ZzzZzzzzZZtt#ZzznZZ31",
"zzVZ*55555ZlZzzzzzZzze##ZzzZZ 51zzZZ155555ZzZzzzzzZzzt##zznZZ#11",
"zzh#55#115ZzzzZzZzkz11$*#Zz  11%zzz#15#y*5ZzzzZzZ1zztt$5#zn1#11%",
"zzO555z115*Zzzzzzzzz1*555## 1111zz#151zzz-#Zzzzzzzzztt555###1111",
"z#5555zzzz5ZzZzzZZz11*5555555555z11551z1zz5ZzZzzZZztqX5555555z55",
"#111151zzz1*zzzZzzz1*55555*1555y:155511zz1z#zzzZztt115555##*#55y",
"z1C115511155**ZZZZ1*55511z111 5y15###51zzz151*ZZZZ##5555****##*y",
"1zzzz55555555******#5511zzzz1 #%1#rpd551zz15##***##555**>;c**##%",
"CCzAzA#55555553####5551zzzZzz1##m1zAzA541115513#o11555*1ZzZc**##",
"ZzCzzzA555555555555551zAzAZZZz1#1ZnzzzA5555555=##5155*1ZzzZzz**#",
"1ZCCzz5lzz#555##*#55611zzzAzzz1#1ZZnzz5zzz55551**#555*1zzZzzzz*#",
" +ZCC#5zzzzz5#l1n1#551Zzzzzzzz11#1Znz151zzz551Z1**#5**zZzzzzzz*1",
"7####55zZzzz51zzzz1##1ZzzZzZZNz51#11#551Azzz#1Zzz**5*1Zzzzzzzzz5",
"51##555##Zzz58Zzzzz#11ZZzZzZzzz551##555#11z#53Znzz*#11Zzzzzzzzz5",
"55511*55###650ZZzz**#tt1Zzzzzzzz55511*55###153ZZZz1*#tZzZzzzzzzz",
"551zZv1555#51##ZZnz*##tZzzzzzzzz551zZv1555551##ZzZz**#tZzzzzzzzz",
"z51Zz11555555#11Znzz*$#tZZzZzzz5z51Zz11555555#11Zzzw1$#tZZzZzzz5"
};
