/* XPM */
static const char *Zm5hcQ___67a3e02ea8786[] = {
/* columns rows colors chars-per-pixel */
"64 64 34 1 ",
"  c #C3AF8A",
". c #CEB78D",
"X c #CCBD8F",
"o c #C6B890",
"O c #CEBD96",
"+ c #CBBB9E",
"@ c #D1BA90",
"# c #D1BF92",
"$ c #D5BF94",
"% c #D6C693",
"& c #D6C095",
"* c #DAC297",
"= c #DFC897",
"- c #D8C79A",
"; c #DCC59A",
": c #D8C39D",
"> c #DFCA9B",
", c #DFCC9B",
"< c #E2CB97",
"1 c #E3CF9B",
"2 c #E5CF9A",
"3 c #E3D098",
"4 c #E5D19B",
"5 c #E7D39C",
"6 c #E8D39B",
"7 c #ECD39C",
"8 c #E9D49C",
"9 c #EBD99F",
"0 c #C4C0A2",
"q c #C8C4A5",
"w c #DCC7A0",
"e c #D3D2B8",
"r c #EBD9A2",
"t c #ECDBAC",
/* pixels */
"ttt>>>t++2>288w$$$$$w$wqqqqqq$$$wqqeq4qqqowow%%w>99ww998<<>>>8>=",
"=>8>>>t>81188ww>$$$$w$wqqqqqqqww$qw$ewqqq%ow%www>>www<t<8<>1t>=t",
"t=>t1>88>8184w$$$wwwwtwwqqwq$q$$eee$qeqqwww%%o8>w>>t>><<t<8>1=>t",
"t>=1>8ttr118ww>$>$$w$wwwqq$qqq$eqwqqqqqowwowo%>>tw>>t>trt<881t=8",
"8=t1888t81www>w$$$$$$$$wqq>qqwwqqeq$wqqoo$wwwow>tww>>t48<8<>tt15",
"51tt>w111wt>>ww$>$$$ww$oqqqq$qeqqqeqqqq$>$w4w>$$oowwww4>t8<<<><8",
"8<><11wt14www$oo$$>w4w$>qqqqqeqwe0qqewqwq8$49oow$w$$ow>>41>w<<4>",
">4<<w8118wwo$$w$woo94$8qwqweqqqeqqeqeqqqqqq$o$XXo$oX$www9>>>><4<",
"<4<>w111$$w$Xo$oXX$o$qqqqqqeqeqqe0qeqeqwqqqwww$>XX$wXo$w4>ww>wtr",
"rtwwww>8w$oXw$XX>$wwqqqqwqeqeqqeeqeqewqqqqqq$ow$ow$o>X$www>w>>>1",
"1>www>$$w$X>o$wo$wo$qqqqqqweqeqeqqqeewq$qeqqwrw$$owowwowXwwww4ww",
"ww$$$wwXwowwowo$$wrwqqeq$qweeqqq>$qq$$wqqqeqqwq$www8$$$$$$ww4www",
"ww$4ww$$$$$$8www$qwqqeqqqw$$qq$>$$qw$qqqee$eqqwwww$oww$$o$XXwwww",
"ww$wXX$o$$wwo$wwwwqqe$eeqqq$wq$$$owqw$weqqeqeqqw>www$$wwwo$$Xww$",
"$$$$$$owww$$qwwqqqqeqeqqew$wqwo$wwoqqowqeqeqqqeqqwqwwwwwXow$XX$$",
"$wX$$woXwwwwwqqqqeqqqeqeqwoqqowwwXw$oqowqq$qq>qqqqq>qqqw$wwwXXw$",
"$q$$wqq$wqqq>qqqqq>qq$qqwoqo$wXwqww$$o$owwqqqqqqeqqqqqqqqww4oX$4",
"4qqo4wwqqqqqqqqeqqqqqqwwo$o$$wwq$w$w$$owq,q%qqqqqqqqqeqqqqqwwww$",
"qqwqqqqqqqeqqqqqqqqq%q,qwo$$w$w$$wqqw$oq7o$$q>qqeqqeqqwqqqqwwoo$",
"$ooqwqqqqwqqeqqeqq>q$$o7qo$wqqw$$$$$@$$qw$wwqqeqq>q>qqqeqqqq>qq$",
"qqqqqqqqeqqqqq>qqeqqww$wq$$@$$$$q$w$w$o;,$owqwqq>q>qeeqqeqwqqqwq",
"qqqqqwqeqqeeq>q>qqwqwo$,;o$w$w$qqqq$qq@wwowwwwq,qqqqqqqqqqqqqqqq",
"wqqqqqqqqqqqqqqq,qwwwwoww@qq$qqqXqqww@qw$wo$w7w>q>q>qq<q>>qqqqqq",
"qqqqqq>>q<qq>q>q>w7w$ow$wq@wwqqX$we$$wqw,ow$$ow,qq>>>>qq>qq>qqqe",
"eqqq>qq>qq>>>>qq,wo$$wo,wqw$$ew$$www$ewqooo$o$&>wqqq$$q>q>qqqqqq",
"qqqqqq>qqq$$qqqw>&$o$oooqwe$www$oww$ww$q,%o$o$&wqqq$&q$$>q>>qeqq",
"eqeq>>q>$$q&$qqqw&$o$o%,q$ww$wwoqwow$eqqwwX$wo$w>>w$$>>$$$q>qqqq",
"qqqq>q$&$>&$$w>>w$ow$Xwwqqe$wowqwwwwwwqoXwwow$,w>8w>>>q>>qqqqqqq",
"qqqqqqq>>q>w>w8>w,$woww$oqwqwwwwqwqwwwqeX$$q$oo,wOww>qq>qqqqq$>q",
"q$$qqqqq>qq>-#w#,o$$q$$X$qwwqwwqwwqwwwqeX$$q$oo,w$$w>qq>qqqqq$>q",
"q$$qqqqq$qq>#w#w$$o$q$$XeqqwwwqwwqwXXo3wwwww* ww$ww$wwww$qqq$qe.",
"q>$qqqqq>qq#-#-#$o$$q$$Xeqwqwqwq>wwqXo3wwwww* $wO$$wOw$wwqq$0$e.",
"qqqqqqq>>q&:&o:&w,$wowwXoqwwwwwqqwqwwwqoXwwow$,w>8w>>>q>>qqqqqqq",
"qqqq>q$$$>>$$w&::$ow$Xwwqqe$wowqqwow$eqqwwX$wo$w>>w$$>>$$$q>qqqq",
"eqeq>>q>$$q&$qq&&&$o$o%,q$ww$wwooww$ww$q,%o$o$&wqqq$&q$$>q>>qeqe",
"qqqqqq>q>q$$qqqw&&$o$oooqwe$www$$www$ewqooo$o$&>wqqq$$q>q>qqqqqq",
"eqqq>qq>qq>>>>qq,&o$$wo,wqw$$ew$$we$$wqw,ow$$ow,qq>>>>qq>qq>qqqe",
"qqqqqq>>q<qq>q>q>w&w$ow$wq@wwqqXXqqww@qw$wo$w7w>q>q>qq<q>>qqqqqq",
"qqqqqqqqqqqqqqqq,qwwwwoww@qq$qqqqqq$qq@wwowwwwq,qqqqqqqqqqqqqqqq",
"wqqqqwqeqqeeq>q>qqwqwo$,;o$w$w$qq$w$w$o;,$owqwqq>q>qeeqqeqwqqqwq",
"qwqqqqqqeqqq>q>qqeqqww$wq$$@$$$$$$$$@$$qw$wwqqeqq>q>qqqeqqqq>qqq",
"qqqqwqqqqwqqeqqeqq>q$$o7qo$wqqw$$wqqw$oq7o$$q>qqeqqeqqwqqqqqqqqq",
"Xwqqwqqqqqeqqqqqqqqq%q,qwo$$w$w$$w$w$$owq,q%qqqqqqqqqeqqqqqwwqqX",
"4qXoqqwqqqqqqqqeqqqqqqwwo$o$$wwqqww$$o$owwqqqqqqeqqqqqqqqwwqqqqq",
"$qqqqww$qqqqqqqqqq>qq$qqwoqo$wXwwXw$oqowqq$qq>qqqqq>qqqw$wqqXqq$",
"4wXqqqqqwqwqqqwqqeqqqeqeqwoqqowwwwoqqowqeqeqqqeqqwqwwwwwXow$XXw4",
"wwwX$$qwww$$qqqqwqqeqeqqew$wqwo$$owqw$weqqeqeqqw>www$$wwwo$$Xwww",
"w$$wXX$o$$wwqqqwwwqqe$eeqqq$wq$$$$qw$qqqee$eqqwwww$oww$$o$XXwwww",
"w$$www$$$$$$wqww$qwqqeqqqw$$qq$>>$qq$$wqqqeqqwq$wwwX$$$$$$ww4www",
"ww$$$$$X$owwowq$qqwwqqeq$qweeqqqqqqeewq$qeqqwXw$$owowwowXwwwww88",
"w>ww$$ww$$X>o$woqwq$qqqqqqweqeqeeqeqewqqqqqq$ow$ow$o>X$www>ww>>1",
"rwwwww>ww$oXw$XX>qwqqqqqwqeqeqqeeqqeqeqwqqqwww$>XX$wXo$w4>ww>wtr",
">w<>ww>wwww$Xo$oXX$qqqqqqqqeqeqqqqeqeqqqqqq$o$XXo$oX$www9>w>><4<",
">4w<www4w>wo$$w$woowwqqqwqweqqqeeqqqewqwqqq4Xoow$w$$ow>>41>w<<4>",
"8<><1www$$w$$wow$$>qqqqq$qqqqeqwwqeqqqqqqqqqXq$$oowwww4>t811<><8",
"51>>>>www4$$>w$w$wwqqwqqqqqqqqeqqeq$wqqoqqqwww$XtwwX>t48r88>t115",
"8=t1>w>>>ww$>>wX$>$$qqwwqqqqqwwqqww$wq$oqwwwXXwXXw>>t>trt8881t=8",
"t>=11>1>>t>>$$$$X$Xwqqqqqqqqqq$ee$$$qqqqqq$qq$ww$>>t>>trtt8>1=>t",
"t=>t1>>8w>>>>$ww$$wXXwqwqqwqqwq$$$w$wqqqXqXqw$$wXX4449t>88>1t>=t",
"=>8>>>1>>>w>w>>w$X>$Xwq$q4qqqowwwwo$qqwqqqww$$$w>9989998>t>>>8>=",
"ttt>>>t1>1>>w>>>$XX$wwwqqqqqqq$$$qqqqqqqqwXX$Xww4w862>28+t>>>ttt",
">888>t>>>+>w>>ww$$$wXwwwqqqqqqqqwqqwqqqXqwqX$X$ww88tt>888>t>888>",
"11t8118t18181>>w>$wXw$$w1qqqqqqqqqqqqqqqX$$$Xw$w1w111ttttt11ttt1",
"t1>8>t11181118w1w1wwwwwwwwwqqqqqqqqqqqqqq1XXw1w111tttt11111tt111"
};
