/* XPM */
static char * star_xpm[] = {
"64 64 238 2",
"  	c #D8EE94",
". 	c #B5E09A",
"+ 	c #9EDC9E",
"@ 	c #F0F49C",
"# 	c #8FC193",
"$ 	c #8FC79A",
"% 	c #CAAA4C",
"& 	c #D2C557",
"* 	c #E8CE93",
"= 	c #CDA637",
"- 	c #D1B31E",
"; 	c #E2CD2B",
"> 	c #DCC22C",
", 	c #F0D367",
"' 	c #CFB225",
") 	c #FCFF5B",
"! 	c #FEFFFE",
"~ 	c #FCFF63",
"{ 	c #E8CA46",
"] 	c #FEFE9C",
"^ 	c #FEFFBA",
"/ 	c #E6D433",
"( 	c #ECD969",
"_ 	c #F3DA68",
": 	c #E8C82A",
"< 	c #D4B929",
"[ 	c #FFFFE5",
"} 	c #EDE53C",
"| 	c #E8D297",
"1 	c #F2D777",
"2 	c #EFCA30",
"3 	c #D9AF22",
"4 	c #F0E636",
"5 	c #EEC92A",
"6 	c #CB9917",
"7 	c #FFFF75",
"8 	c #FEFD44",
"9 	c #EAE134",
"0 	c #EBC32B",
"a 	c #C6A31C",
"b 	c #FFFF83",
"c 	c #FBFE53",
"d 	c #F2EB3B",
"e 	c #F0C72C",
"f 	c #C7A523",
"g 	c #CFB628",
"h 	c #FFFE8B",
"i 	c #FDFD4C",
"j 	c #ECE146",
"k 	c #F7FF53",
"l 	c #EFEB3A",
"m 	c #E9E257",
"n 	c #D1B322",
"o 	c #D7C32B",
"p 	c #FEFF6B",
"q 	c #F5FF61",
"r 	c #E6D936",
"s 	c #F1CD39",
"t 	c #E9BE2B",
"u 	c #FFFFA9",
"v 	c #F4F03D",
"w 	c #E5D42E",
"x 	c #DAC82C",
"y 	c #DCC425",
"z 	c #D1AB1D",
"A 	c #DAB769",
"B 	c #F1DA55",
"C 	c #C4960D",
"D 	c #C9A41C",
"E 	c #FFFFD8",
"F 	c #FEFF95",
"G 	c #F6FF5C",
"H 	c #F1E693",
"I 	c #E9C446",
"J 	c #AF870F",
"K 	c #CDAB1C",
"L 	c #FEFEFB",
"M 	c #FEEB3B",
"N 	c #90CB8B",
"O 	c #FAE684",
"P 	c #E4BE4A",
"Q 	c #BF900E",
"R 	c #C08F05",
"S 	c #CF960E",
"T 	c #FEFEC8",
"U 	c #FEFD3F",
"V 	c #FDF43C",
"W 	c #FEE936",
"X 	c #E3C284",
"Y 	c #ECDE2D",
"Z 	c #242109",
"` 	c #3D3421",
" .	c #FBE434",
"..	c #D8A735",
"+.	c #FEFFA6",
"@.	c #FFFFF3",
"#.	c #282012",
"$.	c #362B18",
"%.	c #9D9576",
"&.	c #FEF82D",
"*.	c #F5DC31",
"=.	c #F3D32A",
"-.	c #EDC323",
";.	c #FFFF7C",
">.	c #594829",
",.	c #706343",
"'.	c #FEF344",
").	c #D6CBAA",
"!.	c #FFF14A",
"~.	c #F9DC2D",
"{.	c #F8D329",
"].	c #EABD24",
"^.	c #E0A612",
"/.	c #D39825",
"(.	c #EAD28A",
"_.	c #EFCA36",
":.	c #7A7313",
"<.	c #69542B",
"[.	c #DCD1BA",
"}.	c #3A2E1C",
"|.	c #D39813",
"1.	c #E0BD5C",
"2.	c #E4B41C",
"3.	c #6A6100",
"4.	c #C0AE82",
"5.	c #39321D",
"6.	c #5F431D",
"7.	c #523A07",
"8.	c #F3CE2A",
"9.	c #F1C521",
"0.	c #D3930A",
"a.	c #D09830",
"b.	c #E7C455",
"c.	c #E2B42D",
"d.	c #D7990E",
"e.	c #D8A117",
"f.	c #4B361C",
"g.	c #664C27",
"h.	c #735426",
"i.	c #F3CD25",
"j.	c #473920",
"k.	c #ECBC1C",
"l.	c #EBB61A",
"m.	c #E4AA13",
"n.	c #D0A250",
"o.	c #E4C260",
"p.	c #E0B335",
"q.	c #E7B217",
"r.	c #FEE648",
"s.	c #805F2F",
"t.	c #F4D026",
"u.	c #F0C01C",
"v.	c #393429",
"w.	c #DEA00E",
"x.	c #E8CA76",
"y.	c #DCA414",
"z.	c #876737",
"A.	c #D18E0A",
"B.	c #E2B843",
"C.	c #DFB12D",
"D.	c #CE8D0A",
"E.	c #DA9B0B",
"F.	c #EFC01E",
"G.	c #23261F",
"H.	c #775C31",
"I.	c #E9B214",
"J.	c #EAAF11",
"K.	c #282922",
"L.	c #DBAA48",
"M.	c #E6BB2D",
"N.	c #6E6421",
"O.	c #B79221",
"P.	c #E2A30E",
"Q.	c #D29307",
"R.	c #DCB459",
"S.	c #DDB133",
"T.	c #E5B723",
"U.	c #E1B257",
"V.	c #E2BC53",
"W.	c #CC8B06",
"X.	c #DAAB3A",
"Y.	c #C88706",
"Z.	c #C78813",
"`.	c #C48304",
" +	c #C07E00",
".+	c #AED794",
"++	c #92B57C",
"@+	c #BC7C01",
"#+	c #B47502",
"$+	c #AA6D00",
"%+	c #BED282",
"&+	c #91A162",
"*+	c #7D8B54",
"=+	c #E9C34C",
"-+	c #A46901",
";+	c #8E5800",
">+	c #8C5200",
",+	c #975A03",
"'+	c #799766",
")+	c #C1D584",
"!+	c #8B9A5E",
"~+	c #B67A01",
"{+	c #935C00",
"]+	c #B88823",
"^+	c #A87416",
"/+	c #B67B14",
"(+	c #688258",
"_+	c #749062",
":+	c #A1C889",
"<+	c #80A06D",
"[+	c #C99E39",
"}+	c #E4C56C",
"|+	c #98610B",
"1+	c #9AAA68",
"2+	c #7E8B54",
"3+	c #9B6101",
"4+	c #8C8E59",
"5+	c #D8BB75",
"6+	c #698358",
"7+	c #BE9535",
"8+	c #AE7101",
"9+	c #9FC587",
"0+	c #C79427",
"a+	c #86945A",
"b+	c #AEC077",
"c+	c #D0E58E",
"d+	c #D2E890",
"e+	c #B9CC7E",
"f+	c #9FAF6C",
"g+	c #818F57",
"h+	c #D6EC93",
"i+	c #C6DB87",
"j+	c #B7CA7D",
"k+	c #A9BB73",
"l+	c #9CAD6A",
"m+	c #91A062",
"n+	c #88965C",
"o+	c #90935C",
"                  . . + + @ @                                                                                                   ",
"                    . + + @                                                                                                     ",
"                    . + + +                         . . . . . . . .         @                                     .         + + ",
". .               . .   + +   #                   . . . . . .                             +                 # .           . . . ",
". . . . .                 # + + . +       . . . . . . . . .                                       + + #   # #           . . . . ",
". . . . .                   . . . . . . . . . . . . .   . . . . .                                   + + # #             .     . ",
"  . . . .         $         . . . . . . . . .   + +                                                   + + + #       $           ",
"    . . . .         .         . . . . +   @ @                                                     + + + + + + #                 ",
"    . . . .         $         . . . . +                               +                 .         + + + + + + #                 ",
"                                . . +                       +         + +   +           .   # # # . . . + + .                   ",
". .                             . + +                 .             + . +             . #     + + @ . . . +                     ",
"+ +                           .                       .       + . + .         + +     # .     + + . . . . . + +         @       ",
"                                                              % & *             +   + +     # + . . @ @ . . + . +     @ @       ",
"@                                                           = - ; >             . +     # + + + . . . . . . . + + @ @   . # .   ",
"@                                                         , ' ) ! ~ {           . . . . . . . . . . . . . . . . + # + # # .     ",
"                                                  .       { ' ] ! ^ / (       . . . . . . . . . . . . . . . . . . + + +         ",
"  @   @                                         . .     _ : < [ ! ! } / |     @   . . . .     . . . . .           + + +     @ @ ",
"  @   @ @                                       . . . 1 2 3 > ! ! ! ~ 4 /       . . .               . .               + + @ @   ",
"  # # # #                                     . . . . { 5 6 / ! ! ! 7 8 9       .                   . .                     + + ",
"# # . #                                       . . . . 2 0 a 9 ! ! ! b c d (                           .                     + # ",
". . . @                                 . . . . + + 1 e f g ~ ! ! ! h ~ i 9 j                                                 + ",
". . .   # #                     . . . . . . . +     { 0 f < h ! ! ! h ~ k l 9 m                                                 ",
". . . . . . .               . . . . . . . . +     , 2 n ' o [ ! ! ! b p q 8 l r                                                 ",
"  . . . . .                           . . . .   s t f n o l ! ! ! u 7 7 ~ k 8 v w x y - - z - n < A                             ",
"        .                               . . . B C C D < x b ! ! E F 7 p p G k 8 9 w ; y y y y y ; j H                     .     ",
"        . . .                             I 6 J C D K w 7 ! ! L u b 7 p p q G k v v 9 w w w 9 l v M _                   . . .   ",
"      N . . . . . .         .   O P Q R S z K - ; ) T ! ! ! E F b 7 p ~ ~ G k k i i i 8 U U U V W e X                 . . . . . ",
".   N . . . . . . . . . . . . f a a K n < Y c F ! ! ! ! ! ! ] b 7 p ~ ~ q c Z ` U i i 8 8 U W  .Y ..                .         . ",
". . $ . . . . . . . . . . . { n y w 7 +.@.! ! ! ! ! ! ! @.^ b #.$.) ~ ) ) c #.%.&.8 8 V M M *.=.-.A                             ",
". . . . . . .             , : 8 i G 7 7 ;.h F F ] ] ] b 7 7 & >.L ,.c i i '.$.).!.4  .~.~.{.].^./.              @   .   . .   . ",
"            .             (._.d 8 i ~ ~ ~ 7 7 ;.;.;.7 7 p ) :.<.L [.i '.'.V }.<.J *.~.=.=.-.^.|.A                               ",
"        . . .             + 1.2.2.e '.i c ~ ~ p p p ~ ) ) c 3.>.[.4.'.'.M W 5.6.7.8.8.9.9.].0.a.                                ",
"            .                 b.c.t d.e.].*.W M '.!.'.'.M V j f.g.h.~.~.~.i.j.g.<.k.-.l.m.d.n.                                  ",
"            .                   o.p.t |.0.q.].8. .W W W W W r.f.h.s.{.{.t.u.v.g.<.k.l.m.w.0.                                    ",
"        . . .             +       x.c.t 3 0.d.y.-.i.{.~.~.~.=.f.s.z.i.u.u.k.$.>.<.q.m.^.d.A.                                    ",
"+       .               + +         | B.C.t 3 D.0.E.m.F.u.u.u.G.H.z.l.I.I.J.m.v.^.^.E.d.A.a.                                  + ",
"+ +                       + +         . B.c.t 3 D.0.E.q.k.k.u.5.G.K.I.m.J.m.w.w.w.w.d.E.D.L.@             # . .         +   + + ",
"+ +                     + + +   + + + . * C.M.M.D.D.d.m.J.I.I.J.N.O.m.J.m.P.P.w.E.E.E.Q.D.R.@ @       @     # # # # +   + + + + ",
"                          + + + + + . . . p.S.M.T.0.D.d.P.P.m.m.m.P.P.E.w.E.E.E.0.0.0.0.A.U.    $   @ @ # # + + # . +     + + + ",
"                        + + . . . . . . . B.c.M.t |.A.d.E.y.P.P.P.P.E.E.E.E.0.0.0.0.A.A.A.L.. + + $   @ # + + + #               ",
"            . . + + + + + . . . . . . . . V.c.M.5 y.0.0.E.E.w.E.E.E.E.E.E.0.Q.Q.0.W.W.W.A.X.. . . + $ + + + # #   @             ",
"          . . . . . . . . .   . . . . . . b.t 0 0 y.0.0.0.Q.0.0.Q.Q.Q.Q.A.W.Y.W.Y.Y.Y.Y.Z./.  . . . + + + + +                   ",
"          .   . . .             . . . . . b.M.0 -.e.0.A.W.A.Q.Q.Q.Q.W.`.`. + + +`. +Y.`.Y./.      . . . + #       #             ",
"              .               . . .   .+++b.t 0 ].|.0.W.W.W.W.W.W.W. +@+#+$+$+#+@+@+@+`.`.Z..+.   . . . +       # .   @         ",
"# . . . .                           %+&+*+=+t 5 T.S D.`.`.`.`.`.#+-+;+>+,+,+>+>+;+,+$+#+@+Z.'+%+    . . +     # # .     @     @ ",
". . .                             )+!+*+*+=+0 5 m.D.`.`.`.@+~+-+{+;+]+= X.a.O.^+>+;+,+#+#+/+(+_+:+  . . . + # + +     +       # ",
". . .                             <+(+*+*+=+0 5 e.Y.`.@+~+#+,+;+,+[+*+*+*+}+V.X.]+|+>+,+$+/+(+*+1+. . . . . . + + + +       # # ",
". .                 . .           2+(+(+*+=+5 5 D.@+#+3+3+3+1.*+*+*+*+4+*+(+*+(+(+*+(.R.5+*+*+*+6+. .     .   . . . .     # + + ",
".             . . . . . . . .     1+*+(+(+=+5 0 `.#+$+3+{+7+*+*+*+*+*+4+(+(+(+(+*+*+(+(+(+*+*+*+1+      .     . . .     . . . + ",
".     . . . . . . . . . . . . . . :+_+(+(+b.0 0 ~+8+-+^+o.*+*+*+*+*+*+(+(+(+*+*+*+*+*+*+*+*+*+!+)+.       .   . .       . . . . ",
"      .           . . . . .   . . . 9+'+(+(+I c.0+= }+*+*+*+*+*+*+*+(+(+(+(+*+*+*+*+*+*+*+*+&+9+. . .   . .   .                 ",
"    . .               . . .       . . .+++a+*+x.(.*+*+*+*+*+*+*+*+(+(+(+*+*+*+*+*+*+*+*+a+b+c+  . . . . . .                     ",
"    .                   . .           .   d+e+f+g+*+*+*+*+*+*+*+*+*+*+*+*+*+*+*+*+g+f+e+d+. .     . . . .                       ",
"                            .                   h+i+j+k+l+m+n+o+2+2+g+n+m+l+k+j+i+h+  . .     . . . . . . .                     ",
"                            @                                 @ @           @           . . . . . . . . . .                     ",
"                          . @   @                       .   . @       @ @                       . .     .               $ $     ",
"                          . . . @     @                 . . . .   . . @     @ @ . . . .   . . . . .                       $ $   ",
"                              . @ @ . @                 . . . . .     . . .   .     . .       . . . .                       . $ ",
"                          . . .   . . . .               . . . .         . . .                 .     .                       . . ",
"                        . . . . .     . . .           . . . . .                             .         .         .             . ",
"                  . . . .     . .                           . .               . .   . .                                         ",
"                      . .   . .                           . .                   . . .                 .                         ",
"                    . .     .                             .             .                                                       ",
"              #     . . +                                                                       .         .         .   @       "};
