/* XPM */
static const char *am55eQ___67a3b30469278[] = {
/* columns rows colors chars-per-pixel */
"64 64 11 1 ",
"  c #719183",
". c #85A498",
"X c #91AFA6",
"o c #A1BFB4",
"O c #9EDC9E",
"+ c #D8EE94",
"@ c #A7C9C0",
"# c #B8D4CD",
"$ c #D0D9CA",
"% c #CDD6D6",
"& c #E2DED8",
/* pixels */
"o.ooXooooooo@oX%%%%oooooooooo %%XXXXXXXooooXXXXXXXX%%XXXXXX%%%%%",
"%.oX@oooo@oo@oo%%ooXoXoooooXXXoo%%%%XXXXoooXoXoXXX#%%%XX%%%%%%%%",
"X%.@@@oooooooo#%%XXX@@@@@@@XXXXXoo#.%XXXooooXooXX@oX%%%%oooooooX",
"X%. o@@oooooooo%XXo@@@@oooXoXXXXooooo%%oX@oXXo@oo@oo#%ooXXXXXXXX",
"XX%. o@@oo@@ooo%Xo#o@ooooXoXoXXXoooXX%%.@@@oooXXooo#.oXXX@@@X@XX",
"XX%.Xo@@@@@ooo%%Xoooo@ooXoXoXXoXoXoXXX%.Xo@@ooXoooo#.XXo@@@@oXoX",
"XXX%..o@@ooooo%%Xooo@@ooXXXXooXoXXXXXX%%XXo@@oo@@o#..Xo#o@ooooXo",
"XXXX% ooooooo%%%X@@@@oXXoooooXoXXXXoXX %.Xo@@@@@oo..%XoooooooooX",
"oXoX%%.ooooo%%%#&@@ooooo@@@oooooXooooXX%%.Xo@@ooo..%%XooooooXoXo",
"#ooX%%%%%%%%%%###o@ooo@@@Xoo@@oooooooXX%%%XXXooX.o%%%Xoo@@oXoXXo",
"ooo%%XXXXXX%%%@@&@oo@@@@ooo@@oooooooooX%%%%.XXXX.%%%o&oo@oooXooo",
"#oo%XXXXXoXX%%o@@@@o@@@@@ooo@@ooooooo#o%%%%%%%%%%%%#o#o@ooooooXo",
"ooo%.oooXXXXXX%o@@#ooo@o@oX@@@oo@oo#oo%%%%XXXXXX%%%oo&o@@ooooooo",
"oo%.oooXXoXXXX%ooo###ooooo@@@oo@@@ooo%%%%XXXXXXoXX%##ooo#@.oooo@",
"oX%X@@XXooXXXXX%@o#%#&##oXo@@#@@@%%%%%%o..oooXooXX%%oooo#@o@oX@@",
"X%o@@oXooXXXXXX%%%%#%%%#%###%%%%%%%%%%$..o#oXoXooXX%o###oo###@#o",
"X&%o@@o@@XooXoX%%##%ooooooo%%%%%%%%%%%X.ooooXXo#o. %###oo@@####o",
"%#%%@oo@@ooXoo%%#oXXXXXXXXXXo%%%%%%%%%%XoooXoooXXX.%%%#o##Xooooo",
"##%%oo@@ooo#X#%#oXXXX@@X@XXXXo%%%%%XXX%%Xooo##oXo.X%#%%%%%%XXXX%",
"#%%%%%@@oo%%#%%o XXo@@XXXXXXoXo%%XXXXXX%%Xo##oXo.#%%......%%%%%%",
"%%%%%%%%%%oo%%o.XXoXXXXoXXXoXXX%%XXXXXX%%ooooooo#%%.XX#ooo..%%%%",
"%%%%XX.   %%#%X.XXXXoooXoXoXXXX%%XXXXXX%%%%oooo%%%.XXooooo#o.%%%",
"%%%XXXXXX.  %%.#XXooooXoXoXXXoXo%%XX%%%%%%%%%%%oo%.Xoo#oooo#.%%%",
"%%%XXXXXXXX. %.ooXoo@@oXoXoXoXoo%%%%o%%%%%%%   %%%.X#oOooo#+.%%%",
"%%XXXoXoXXXX. %.o&o@@ooXXoooXooo%%ooXoo%%%%%.XX  %.oXo#o#.oX.%%%",
"%XXooXoXXoXXX.%.o#@@ooXoo@@oXooo%oXXX@ooo%%.XXXXX %.XoooooX.%oXo",
"%XooooXXoXoXXX %o&@#@oo@@@oo@ooo%XXo@@ooXo%XoXXXXX%.XXXoX..%XXoo",
"XXoXXXoXooXoXX %o#&##@.@@oo@@@o%XXo#o@o%oo%oXXXXXX %.....%%%X#oX",
"XoXXXoXooXooXX.%%oX#&##@oX@##oo%XXooooooooX%XXXXXX %%%%%%%%XoooX",
"%XXXooooooXoXoXX%ooo@&#####@@@%%XXooooooooo%XoXoXXX%%.XXX%%XoooX",
"%XXooooooooooooX%%.oX@###@@oo#%% XoooooooXXX%%oXoXX%.oooXo%%XXX%",
"%%Xoooo#oo#oooooX%#oooXooo%%%%%%o.oooooooooo@%%%%%%XooooooXX  %%",
"%%%XoooooXooXXoooXX%%XXXXXX%%%%%%.oo@oooo@oo@o%%%oXXoooooooXXXoo",
"%%%%XooooXXXoXXXXXX%%%XX%%%%%%%%%%.@@@oooooooo#%%XXX@@@@@@@XXXXX",
"oo#.%XXoooXXXooXX@oX%%%%oooooooX%%. o@@oooooooo%XXo@@@@oooXoXXXX",
"ooooo%XXoooXXo@Xo@oo#%ooXXXXXXXXXX%. o@@oo@@ooo%Xo#o@ooooXoXoXXX",
"oooXX%%.@@@oooXXooo#.oXXX@@@X@XXXX%.Xo@@@@@ooo%%Xoooo@ooXoXoXXoX",
"oXoXXX%.Xo@@ooXoooo#.XXo@@@@oXoXXXX%..o@@ooooo%%Xooo@@ooXXXXooXo",
"XXXXXX%%XXo@@oo@@o#..Xo#o@ooooXoXXXX% ooooooo%%%X@@@@oXXoooooXoX",
"XXXoXX %.Xo@@@@@oo..%XoooooooooXoXoX%%.ooooo%%%#&@@ooooo@@@ooooo",
"XooooXX%%.Xo@@ooo..%%XooooooXoXo#ooX%%%%%%%%%%###o@ooo@@@Xoo@@oo",
"oooooXX%%%XXXooX.o%%%Xoo@@oXoXXoooo%%XXXXXX%%%@@&@oo@@@@ooo@@ooo",
"ooooooX%%%%.XXXX.%%%o&oo@oooXooo#oo%XXXXXoXX%%o@@@@o@@@@@ooo@@oo",
"ooooo#o%%%%%%%%%%%%#o#o@ooooooXoooo%.oooXXXXXX%o@@#ooo@o@oX@@@oo",
"@oo#oo%%%%XXXXXX%%%oo&o@@ooooooooo%.oooXXoXXXX%ooo###ooooo@@@oo#",
"@@ooo%%%%XXXXXXoXX%##ooo#@.oooo@oX%X@@XXooXXXXX%@o#%#&##oXo@@###",
"@%%%%%%o..oooXooXX%%oooo#@o@oX@@X%o@@oXooXXXXXX%%%%#%%%#%###%%%%",
"%%%%%%$..o#oXoXooXX%o###oo###@#oX&%o@@o@@XooXoX%%##%ooooooo%%%%%",
"%%%%%%X.ooooXXo#o. %###oo@@####o%#%%@oo@@ooXoo%%#oXXXXXXXXXXo%%%",
"%%%%%%%XoooXoooXXX.%%%#o##Xooooo##%%oo@@ooo#X#%#oXXXX@@X@XXXXo%%",
"%%%XXX%%Xooo##oXo.X%#%%%%%%XXXX%#%%%%%@@oo%%#%%o XXo@@XXXXXXoXo%",
"%XXXXXX%%Xo##oXo.#%%......%%%%%%%%%%%%%%%%oo%%o.XXoXXXXoXXXoXXX%",
"%XXXXXX%%ooooooo#%%.XX#ooo..%%%%%%%%XX.   %%#%X.XXXXoooXoXoXXXX%",
"%XXXXXX%%%%oooo%%%.XXooooo#o.%%%%%%XXXXXX.  %%.#XXooooXoXoXXXoXo",
"%%XX%%%%%%%%%%%oo%.Xoo#oooo#.%%%%%%XXXXXXXX. %.ooXoo@@oXoXoXoXoo",
"%%%%o%%%%%%%   %%%.X#oOooo#+.%%%%%XXXoXoXXXX. %.o&o@@ooXXoooXooo",
"%%ooXoo%%%%%.XX  %.oXo#o#.oX.%%%%XXooXoXXoXXX.%.o#@@ooXoo@@oXooo",
"%oXXX@ooo%%.XXXXX %.XoooooX.%o%%%XooooXXoXoXXX %o&@#@oo@@@oo@ooo",
"%XXo@@oooo%XoXXXXX%.XXXoX..%XXo%XXoXXXoXooXXXX %o#&##@.@@oo@@@o%",
"XXo#o@o%oo%oXXXXXX %.....%%%X#o%XoXXXoXooXoXXX.%%oX#&##@oX@##oo%",
"XXoooooooo%%XXXXXX %%%%%%%%Xooo%XXXXooooooXoXXXX%ooo@&#####@@@%%",
"XXooooooooo%XoXoXXX%%.ooo%%Xooo%XXXooXooooooooXo%%.oX@###@@oo#%%",
" XoooooooXX%%%oXoXX%.ooooo%%XXX%%Xooooo#oo#oo#o#o%#oooXooooo%%%%",
" @@o@oooooooo%%oXo%%.oooooo%%%%%oXXooXXooooooXXXooo%%oXXXoo%%%%%"
};
